<?xml version="1.0" encoding="utf-8"?>
<!-- Generator: Adobe Illustrator 16.0.4, SVG Export Plug-In . SVG Version: 6.00 Build 0)  -->
<!DOCTYPE svg PUBLIC "-//W3C//DTD SVG 1.1//EN" "http://www.w3.org/Graphics/SVG/1.1/DTD/svg11.dtd">
<svg version="1.1" id="Layer_1" xmlns="http://www.w3.org/2000/svg" xmlns:xlink="http://www.w3.org/1999/xlink" x="0px" y="0px"
	 width="720em" height="382em" viewBox="0 0 720 382" enable-background="new 0 0 720 382" xml:space="preserve">
<g>
	<g>
		<path d="M313.611,349.738l9.847-12.038h2.028v25.921h-2.022v-22.989l-9.862,12.116l-9.899-12.116v22.989h-2.004V337.7h2.005
			L313.611,349.738z"/>
		<path d="M345.34,354.455h-13.452c-0.037,0.297-0.056,0.594-0.056,0.891c0,1.905,0.68,3.52,2.041,4.843
			c1.36,1.324,2.969,1.985,4.824,1.985c2.165,0,4.28-0.847,6.346-2.542v2.06c-1.955,1.51-4.144,2.264-6.568,2.264
			c-2.462,0-4.497-0.854-6.104-2.561c-1.608-1.707-2.412-3.878-2.412-6.513c0-2.498,0.742-4.567,2.227-6.206
			c1.484-1.64,3.352-2.459,5.604-2.459c2.115,0,3.902,0.739,5.362,2.217C344.61,349.912,345.34,351.92,345.34,354.455z
			 M332.129,352.989h11.059c-0.644-3.327-2.443-4.991-5.399-4.991c-1.398,0-2.607,0.436-3.627,1.309
			C333.14,350.178,332.463,351.406,332.129,352.989z"/>
		<path d="M363.709,337.7v25.921h-1.837v-1.336c-1.559,1.113-3.241,1.67-5.047,1.67c-2.425,0-4.469-0.856-6.132-2.57
			c-1.664-1.713-2.496-3.818-2.496-6.317c0-2.535,0.819-4.645,2.458-6.327c1.639-1.682,3.695-2.523,6.169-2.523
			c1.571,0,3.253,0.458,5.047,1.373v-9.89H363.709z M361.872,360.615v-11.021c-1.633-1.063-3.291-1.596-4.973-1.596
			c-1.967,0-3.587,0.652-4.861,1.957c-1.274,1.306-1.911,2.973-1.911,5.001c0,2.066,0.68,3.785,2.041,5.158
			c1.36,1.373,3.062,2.06,5.103,2.06C358.854,362.174,360.388,361.654,361.872,360.615z"/>
		<path d="M370.5,337.7v3.117h-1.837V337.7H370.5z M370.5,346.551v17.07h-1.837v-17.07H370.5z"/>
		<path d="M387.552,363.621v-2.82h-0.074c-0.792,1.139-1.604,1.948-2.44,2.431c-0.834,0.482-1.896,0.724-3.182,0.724
			c-1.831,0-3.346-0.594-4.546-1.781s-1.8-2.869-1.8-5.047v-10.576h1.818v10.539c0,1.584,0.433,2.827,1.299,3.729
			c0.865,0.903,1.991,1.354,3.377,1.354c1.188,0,2.199-0.271,3.033-0.816c0.836-0.544,1.674-1.484,2.515-2.82v-11.986h1.818v17.07
			H387.552z"/>
		<path d="M395.883,346.551v3.006h0.074c1.385-2.227,3.197-3.34,5.437-3.34c2.61,0,4.446,1.367,5.511,4.101
			c1.605-2.733,3.582-4.101,5.928-4.101c1.767,0,3.193,0.631,4.279,1.893c1.088,1.262,1.631,2.938,1.631,5.028v10.483h-1.818v-9.686
			c0-1.843-0.389-3.293-1.166-4.352c-0.778-1.057-1.871-1.586-3.278-1.586c-1.05,0-1.964,0.315-2.741,0.946s-1.58,1.646-2.407,3.043
			v11.634h-1.837v-9.723c0-1.893-0.405-3.35-1.215-4.369c-0.811-1.021-1.896-1.531-3.257-1.531c-1.979,0-3.692,1.219-5.14,3.655
			v11.968h-1.818v-17.07H395.883z"/>
	</g>
	<rect x="248.412" y="231.751" fill-rule="evenodd" clip-rule="evenodd" fill="#6095C9" width="222.636" height="84.011"/>
	
		<rect x="248.412" y="231.751" fill="none" stroke="#47719C" stroke-width="2" stroke-linejoin="round" stroke-miterlimit="10" width="222.636" height="84.011"/>
	<g>
		<path fill="#FFFFFF" d="M310.964,266.421v16.593h8.772v1.143h-10.144v-17.735H310.964z"/>
		<path fill="#FFFFFF" d="M326.783,272.248c1.693,0,3.104,0.58,4.234,1.739s1.695,2.606,1.695,4.342
			c0,1.727-0.565,3.167-1.695,4.323c-1.13,1.154-2.541,1.732-4.234,1.732s-3.108-0.578-4.247-1.732
			c-1.138-1.156-1.708-2.597-1.708-4.323c0-1.735,0.569-3.183,1.708-4.342S325.09,272.248,326.783,272.248z M326.783,283.166
			c1.312,0,2.408-0.459,3.288-1.377c0.88-0.919,1.32-2.072,1.32-3.46c0-1.38-0.442-2.535-1.327-3.466s-1.979-1.396-3.282-1.396
			c-1.32,0-2.423,0.461-3.307,1.384s-1.327,2.082-1.327,3.479c0,1.388,0.442,2.541,1.327,3.46
			C324.36,282.707,325.462,283.166,326.783,283.166z"/>
		<path fill="#FFFFFF" d="M343.68,272.819v1.384c-1.117-0.491-2.128-0.736-3.034-0.736c-1.303,0-2.363,0.453-3.18,1.358
			s-1.225,2.082-1.225,3.529c0,1.473,0.408,2.643,1.225,3.511c0.817,0.867,1.911,1.301,3.282,1.301c0.999,0,2.048-0.225,3.148-0.673
			v1.295c-1.168,0.397-2.251,0.597-3.25,0.597c-1.709,0-3.091-0.542-4.145-1.625s-1.581-2.505-1.581-4.266
			c0-1.837,0.531-3.337,1.593-4.5c1.062-1.164,2.418-1.746,4.069-1.746C341.488,272.248,342.521,272.438,343.68,272.819z"/>
		<path fill="#FFFFFF" d="M355.614,282.125v1.041c-1.075,0.812-1.862,1.219-2.361,1.219c-0.288,0-0.487-0.096-0.597-0.285
			c-0.11-0.191-0.19-0.578-0.241-1.162c-1.227,0.965-2.446,1.447-3.656,1.447c-0.88,0-1.625-0.288-2.234-0.863
			s-0.914-1.273-0.914-2.095c0-1.27,0.588-2.271,1.765-3.003c1.176-0.731,2.856-1.152,5.04-1.263v-1.485
			c0-1.591-0.863-2.387-2.59-2.387c-1.1,0-2.29,0.495-3.567,1.485v-1.282c1.32-0.829,2.577-1.244,3.771-1.244
			c1.058,0,1.93,0.26,2.615,0.781c0.686,0.52,1.028,1.275,1.028,2.266v7.274c0,0.397,0.093,0.597,0.279,0.597
			C354.188,283.166,354.742,282.819,355.614,282.125z M352.415,281.846v-3.644c-1.6-0.06-2.926,0.222-3.98,0.845
			c-1.054,0.621-1.581,1.415-1.581,2.38c0,0.542,0.22,0.999,0.66,1.371s0.99,0.559,1.65,0.559
			C350.231,283.356,351.314,282.853,352.415,281.846z"/>
		<path fill="#FFFFFF" d="M358.838,266.421v17.735h-1.257v-17.735H358.838z"/>
		<path fill="#FFFFFF" d="M369.934,266.421h6.203c3.138,0,5.533,0.825,7.187,2.476s2.479,3.783,2.479,6.398
			c0,2.564-0.818,4.683-2.454,6.354c-1.636,1.672-3.96,2.508-6.971,2.508h-6.444V266.421z M371.305,267.563v15.45h4.998
			c2.291,0,4.199-0.705,5.726-2.113c1.526-1.41,2.29-3.278,2.29-5.605c0-2.276-0.753-4.135-2.258-5.573
			c-1.506-1.438-3.455-2.158-5.848-2.158H371.305z"/>
		<path fill="#FFFFFF" d="M390.195,266.421v2.133h-1.256v-2.133H390.195z M390.195,272.477v11.68h-1.256v-11.68H390.195z"/>
		<path fill="#FFFFFF" d="M400.047,273.238v1.346c-1.185-0.796-2.251-1.193-3.199-1.193c-0.702,0-1.295,0.19-1.777,0.569
			c-0.482,0.38-0.723,0.849-0.723,1.405c0,0.396,0.146,0.762,0.439,1.096c0.293,0.333,1.102,0.755,2.425,1.267
			c1.323,0.511,2.188,1.042,2.595,1.592s0.609,1.164,0.609,1.841c0,0.905-0.369,1.67-1.105,2.291
			c-0.736,0.623-1.646,0.934-2.729,0.934c-1.177,0-2.345-0.355-3.504-1.066V282.1c1.379,0.711,2.602,1.066,3.668,1.066
			c0.72,0,1.311-0.19,1.771-0.571c0.461-0.38,0.691-0.866,0.691-1.459c0-0.406-0.15-0.78-0.451-1.123
			c-0.301-0.342-1.113-0.776-2.438-1.302s-2.183-1.044-2.576-1.557c-0.394-0.512-0.59-1.081-0.59-1.707
			c0-0.889,0.365-1.645,1.098-2.266c0.732-0.623,1.623-0.934,2.672-0.934C397.881,272.248,398.922,272.578,400.047,273.238z"/>
		<path fill="#FFFFFF" d="M403.996,266.421v17.735h-1.244v-17.735H403.996z M412.26,272.477l-6.387,5.543l7.377,6.137h-1.706
			l-7.37-6.132l6.451-5.548H412.26z"/>
	</g>
	<rect x="248.412" y="142.461" fill-rule="evenodd" clip-rule="evenodd" fill="#CD665F" width="222.636" height="83.777"/>
	
		<rect x="248.412" y="142.461" fill="none" stroke="#9F4B46" stroke-width="2" stroke-linejoin="round" stroke-miterlimit="10" width="222.636" height="83.777"/>
	<g>
		<path fill="#FFFFFF" d="M310.66,185.252l6.737-8.237h1.388v17.735h-1.384v-15.729l-6.748,8.29l-6.773-8.29v15.729h-1.371v-17.735
			h1.372L310.66,185.252z"/>
		<path fill="#FFFFFF" d="M330.655,194.75v-1.93h-0.051c-0.542,0.778-1.098,1.333-1.669,1.663s-1.297,0.495-2.177,0.495
			c-1.252,0-2.29-0.406-3.11-1.219s-1.231-1.964-1.231-3.453v-7.236h1.244v7.211c0,1.083,0.296,1.934,0.889,2.552
			s1.363,0.927,2.311,0.927c0.812,0,1.504-0.187,2.076-0.559s1.145-1.016,1.72-1.93v-8.201h1.244v11.68H330.655z"/>
		<path fill="#FFFFFF" d="M336.622,177.015v17.735h-1.257v-17.735H336.622z"/>
		<path fill="#FFFFFF" d="M342.334,179.198v3.872h3.275v1.016h-3.275v6.944c0,1.117,0.091,1.852,0.273,2.202
			c0.182,0.352,0.671,0.527,1.466,0.527c0.609,0,1.32-0.19,2.133-0.571v1.193c-0.821,0.397-1.625,0.597-2.412,0.597
			c-0.77,0-1.414-0.22-1.93-0.66s-0.774-1.05-0.774-1.828v-8.404h-3.148v-1.016h3.148v-2.78l0.851-1.092H342.334z"/>
		<path fill="#FFFFFF" d="M349.355,177.015v2.133h-1.257v-2.133H349.355z M349.355,183.07v11.68h-1.257v-11.68H349.355z"/>
		<path fill="#FFFFFF" d="M361.021,183.413v1.384c-1.117-0.491-2.128-0.736-3.034-0.736c-1.303,0-2.363,0.453-3.18,1.358
			s-1.225,2.082-1.225,3.529c0,1.473,0.408,2.643,1.225,3.511c0.817,0.867,1.911,1.301,3.282,1.301c0.999,0,2.048-0.225,3.149-0.673
			v1.295c-1.168,0.397-2.252,0.597-3.25,0.597c-1.709,0-3.091-0.542-4.145-1.625s-1.581-2.505-1.581-4.266
			c0-1.837,0.531-3.337,1.593-4.5c1.062-1.164,2.418-1.746,4.069-1.746C358.83,182.842,359.862,183.032,361.021,183.413z"/>
		<path fill="#FFFFFF" d="M369.059,182.842c1.692,0,3.104,0.58,4.233,1.739s1.694,2.606,1.694,4.342
			c0,1.727-0.564,3.167-1.694,4.323c-1.13,1.154-2.541,1.732-4.233,1.732c-1.693,0-3.109-0.578-4.247-1.732
			c-1.138-1.156-1.708-2.597-1.708-4.323c0-1.735,0.57-3.183,1.708-4.342S367.365,182.842,369.059,182.842z M369.059,193.76
			c1.312,0,2.407-0.459,3.287-1.377c0.881-0.919,1.32-2.072,1.32-3.46c0-1.38-0.441-2.535-1.326-3.466s-1.979-1.396-3.281-1.396
			c-1.32,0-2.424,0.461-3.308,1.384s-1.327,2.082-1.327,3.479c0,1.388,0.443,2.541,1.327,3.46
			C366.635,193.301,367.738,193.76,369.059,193.76z"/>
		<path fill="#FFFFFF" d="M385.803,184.226l-0.723,1.168c-0.974-0.889-1.757-1.333-2.35-1.333c-1.168,0-2.416,1.117-3.744,3.352
			v7.338h-1.244v-11.68h1.244v3.072h0.051c1.396-2.2,2.759-3.301,4.088-3.301C383.887,182.842,384.779,183.303,385.803,184.226z"/>
		<path fill="#FFFFFF" d="M396.328,188.479h-9.205c-0.025,0.203-0.037,0.406-0.037,0.609c0,1.304,0.465,2.408,1.396,3.313
			c0.931,0.905,2.031,1.358,3.301,1.358c1.48,0,2.928-0.58,4.342-1.739v1.409c-1.338,1.032-2.836,1.549-4.494,1.549
			c-1.685,0-3.077-0.584-4.178-1.752c-1.1-1.168-1.65-2.653-1.65-4.456c0-1.71,0.508-3.125,1.523-4.247
			c1.016-1.121,2.294-1.682,3.834-1.682c1.447,0,2.671,0.506,3.67,1.518C395.828,185.37,396.328,186.743,396.328,188.479z
			 M387.289,187.476h7.566c-0.44-2.276-1.672-3.415-3.695-3.415c-0.956,0-1.783,0.299-2.481,0.895
			C387.98,185.553,387.518,186.393,387.289,187.476z"/>
		<path fill="#FFFFFF" d="M406.496,177.015h4.545c1.904,0,3.36,0.413,4.367,1.237c1.008,0.826,1.512,1.94,1.512,3.346
			c0,2.048-1.126,3.487-3.377,4.316c0.584,0.279,1.371,1.181,2.361,2.704l4.012,6.132h-1.623l-3.09-4.86
			c-1.032-1.626-1.836-2.64-2.411-3.042s-1.417-0.604-2.526-0.604h-2.398v8.506h-1.371V177.015z M407.867,178.157v6.944h2.945
			c1.498,0,2.643-0.303,3.435-0.908c0.792-0.604,1.187-1.462,1.187-2.57c0-1.092-0.401-1.942-1.205-2.552
			c-0.805-0.609-1.96-0.914-3.467-0.914H407.867z"/>
	</g>
	
		<rect x="249.893" y="143.943" opacity="0.5412" fill-rule="evenodd" clip-rule="evenodd" fill="#E0E0E0" width="88.621" height="24.234"/>
	<g>
		<path d="M266.15,152.67v0.807c-1.158-0.615-2.292-0.923-3.404-0.923c-1.185,0-2.176,0.403-2.974,1.21s-1.196,1.813-1.196,3.021
			c0,1.222,0.401,2.227,1.203,3.015s1.825,1.183,3.069,1.183c1.039,0,2.171-0.326,3.397-0.978v0.766
			c-1.13,0.597-2.258,0.896-3.384,0.896c-1.454,0-2.665-0.466-3.633-1.398c-0.968-0.932-1.453-2.093-1.453-3.482
			c0-1.399,0.495-2.568,1.483-3.507s2.167-1.408,3.534-1.408C263.87,151.87,264.988,152.137,266.15,152.67z"/>
		<path d="M270.361,155.131c0.912,0,1.671,0.312,2.28,0.937s0.913,1.403,0.913,2.338c0,0.93-0.304,1.706-0.913,2.327
			c-0.608,0.623-1.368,0.934-2.28,0.934s-1.674-0.311-2.287-0.934c-0.613-0.621-0.919-1.397-0.919-2.327
			c0-0.935,0.307-1.714,0.919-2.338S269.45,155.131,270.361,155.131z M270.361,161.01c0.707,0,1.296-0.247,1.771-0.742
			c0.474-0.494,0.711-1.115,0.711-1.862c0-0.743-0.238-1.365-0.714-1.866s-1.065-0.752-1.767-0.752
			c-0.711,0-1.305,0.248-1.781,0.745s-0.714,1.121-0.714,1.873c0,0.747,0.238,1.368,0.714,1.862
			C269.057,160.763,269.65,161.01,270.361,161.01z"/>
		<path d="M275.666,155.254v1.107h0.027c0.51-0.82,1.178-1.23,2.003-1.23c0.961,0,1.638,0.504,2.03,1.511
			c0.591-1.007,1.319-1.511,2.184-1.511c0.651,0,1.176,0.232,1.577,0.697s0.601,1.082,0.601,1.853v3.862h-0.67v-3.568
			c0-0.679-0.144-1.213-0.43-1.604c-0.287-0.389-0.689-0.584-1.208-0.584c-0.387,0-0.724,0.116-1.01,0.349
			c-0.286,0.232-0.582,0.606-0.887,1.121v4.286h-0.677v-3.582c0-0.697-0.149-1.234-0.448-1.609c-0.298-0.377-0.698-0.564-1.2-0.564
			c-0.729,0-1.36,0.449-1.894,1.347v4.409h-0.67v-6.289H275.666z"/>
		<path d="M286.501,155.254v0.355c0.633-0.319,1.265-0.479,1.894-0.479c0.893,0,1.634,0.308,2.222,0.923s0.882,1.39,0.882,2.324
			c0,0.921-0.303,1.698-0.909,2.335c-0.606,0.635-1.347,0.953-2.222,0.953c-0.606,0-1.228-0.157-1.866-0.472v3.568h-0.67v-9.509
			H286.501z M286.501,156.252v4.286c0.57,0.314,1.148,0.472,1.736,0.472c0.752,0,1.36-0.237,1.825-0.711s0.697-1.096,0.697-1.866
			c0-0.766-0.246-1.397-0.738-1.897c-0.492-0.498-1.114-0.748-1.866-0.748C287.618,155.787,287.066,155.942,286.501,156.252z"/>
		<path d="M297.391,161.543v-1.039h-0.027c-0.292,0.419-0.591,0.718-0.899,0.896s-0.698,0.267-1.172,0.267
			c-0.674,0-1.233-0.219-1.675-0.656s-0.663-1.058-0.663-1.859v-3.896h0.67v3.883c0,0.583,0.16,1.041,0.479,1.374
			s0.734,0.499,1.244,0.499c0.438,0,0.81-0.101,1.118-0.301s0.616-0.547,0.926-1.039v-4.416h0.67v6.289H297.391z"/>
		<path d="M301.048,153.169v2.085h1.764v0.547h-1.764v3.739c0,0.602,0.049,0.997,0.147,1.187c0.098,0.188,0.361,0.283,0.79,0.283
			c0.328,0,0.711-0.103,1.148-0.308v0.643c-0.442,0.214-0.875,0.321-1.299,0.321c-0.415,0-0.761-0.118-1.039-0.355
			s-0.417-0.565-0.417-0.984v-4.525h-1.695v-0.547h1.695v-1.497l0.458-0.588H301.048z"/>
		<path d="M309.066,160.449v0.561c-0.579,0.438-1.002,0.656-1.271,0.656c-0.155,0-0.262-0.051-0.321-0.154
			c-0.059-0.102-0.103-0.311-0.13-0.625c-0.661,0.52-1.317,0.779-1.969,0.779c-0.474,0-0.875-0.155-1.203-0.465
			s-0.492-0.686-0.492-1.128c0-0.684,0.317-1.223,0.95-1.616c0.633-0.395,1.538-0.621,2.714-0.681v-0.8
			c0-0.856-0.465-1.285-1.395-1.285c-0.592,0-1.233,0.267-1.921,0.8v-0.69c0.711-0.446,1.388-0.67,2.03-0.67
			c0.57,0,1.039,0.141,1.408,0.42c0.369,0.281,0.554,0.688,0.554,1.221v3.917c0,0.214,0.05,0.321,0.15,0.321
			C308.298,161.01,308.597,160.823,309.066,160.449z M307.344,160.299v-1.962c-0.861-0.032-1.576,0.12-2.143,0.454
			c-0.567,0.336-0.851,0.763-0.851,1.282c0,0.292,0.119,0.538,0.355,0.738s0.533,0.301,0.889,0.301
			C306.168,161.112,306.751,160.841,307.344,160.299z"/>
		<path d="M311.247,153.169v2.085h1.764v0.547h-1.764v3.739c0,0.602,0.049,0.997,0.147,1.187c0.098,0.188,0.361,0.283,0.79,0.283
			c0.328,0,0.711-0.103,1.148-0.308v0.643c-0.442,0.214-0.875,0.321-1.299,0.321c-0.415,0-0.761-0.118-1.039-0.355
			s-0.417-0.565-0.417-0.984v-4.525h-1.695v-0.547h1.695v-1.497l0.458-0.588H311.247z"/>
		<path d="M315.027,151.993v1.148h-0.677v-1.148H315.027z M315.027,155.254v6.289h-0.677v-6.289H315.027z"/>
		<path d="M319.799,155.131c0.912,0,1.671,0.312,2.28,0.937s0.913,1.403,0.913,2.338c0,0.93-0.304,1.706-0.913,2.327
			c-0.608,0.623-1.368,0.934-2.28,0.934s-1.674-0.311-2.287-0.934c-0.613-0.621-0.919-1.397-0.919-2.327
			c0-0.935,0.307-1.714,0.919-2.338S318.887,155.131,319.799,155.131z M319.799,161.01c0.707,0,1.296-0.247,1.771-0.742
			c0.474-0.494,0.711-1.115,0.711-1.862c0-0.743-0.238-1.365-0.714-1.866s-1.065-0.752-1.767-0.752
			c-0.711,0-1.305,0.248-1.781,0.745s-0.714,1.121-0.714,1.873c0,0.747,0.238,1.368,0.714,1.862
			C318.494,160.763,319.088,161.01,319.799,161.01z"/>
		<path d="M325.131,155.254v1.094h0.027c0.524-0.812,1.214-1.217,2.071-1.217c0.711,0,1.278,0.228,1.702,0.684
			s0.636,1.087,0.636,1.894v3.835h-0.67v-3.582c0-1.449-0.57-2.174-1.709-2.174c-0.834,0-1.52,0.449-2.058,1.347v4.409h-0.67v-6.289
			H325.131z"/>
	</g>
	
		<rect x="249.893" y="233.435" opacity="0.5412" fill-rule="evenodd" clip-rule="evenodd" fill="#E0E0E0" width="57" height="24.234"/>
	<g>
		<path d="M262.691,241.963v0.813c-0.83-0.487-1.542-0.731-2.14-0.731c-0.574,0-1.054,0.175-1.439,0.522
			c-0.385,0.35-0.578,0.781-0.578,1.296c0,0.369,0.114,0.702,0.342,0.998s0.704,0.581,1.429,0.854s1.253,0.501,1.586,0.684
			s0.615,0.446,0.848,0.793s0.349,0.795,0.349,1.347c0,0.733-0.269,1.354-0.807,1.859s-1.194,0.759-1.969,0.759
			c-0.793,0-1.609-0.278-2.447-0.834v-0.868c0.925,0.679,1.727,1.019,2.406,1.019c0.565,0,1.042-0.184,1.432-0.551
			c0.39-0.366,0.584-0.816,0.584-1.35c0-0.406-0.121-0.771-0.362-1.098s-0.731-0.63-1.469-0.914
			c-0.738-0.283-1.265-0.511-1.582-0.685c-0.317-0.173-0.586-0.42-0.808-0.741c-0.221-0.32-0.332-0.734-0.332-1.24
			c0-0.701,0.269-1.299,0.807-1.793s1.185-0.741,1.941-0.741C261.226,241.361,261.962,241.562,262.691,241.963z"/>
		<path d="M265.761,242.66v2.085h1.764v0.547h-1.764v3.739c0,0.602,0.049,0.997,0.147,1.187c0.098,0.188,0.361,0.283,0.79,0.283
			c0.328,0,0.711-0.103,1.148-0.308v0.643c-0.442,0.214-0.875,0.321-1.299,0.321c-0.415,0-0.761-0.118-1.039-0.355
			s-0.417-0.565-0.417-0.984v-4.525h-1.695v-0.547h1.695v-1.497l0.458-0.588H265.761z"/>
		<path d="M271.681,244.622c0.912,0,1.671,0.312,2.28,0.937s0.913,1.403,0.913,2.338c0,0.93-0.304,1.706-0.913,2.327
			c-0.608,0.623-1.368,0.934-2.28,0.934s-1.674-0.311-2.287-0.934c-0.613-0.621-0.919-1.397-0.919-2.327
			c0-0.935,0.307-1.714,0.919-2.338S270.769,244.622,271.681,244.622z M271.681,250.501c0.707,0,1.296-0.247,1.771-0.742
			c0.474-0.494,0.711-1.115,0.711-1.862c0-0.743-0.238-1.365-0.714-1.866s-1.065-0.752-1.767-0.752
			c-0.711,0-1.305,0.248-1.781,0.745s-0.714,1.121-0.714,1.873c0,0.747,0.238,1.368,0.714,1.862
			C270.376,250.254,270.97,250.501,271.681,250.501z"/>
		<path d="M280.697,245.367l-0.39,0.629c-0.524-0.479-0.946-0.718-1.265-0.718c-0.629,0-1.301,0.602-2.017,1.805v3.951h-0.67v-6.289
			h0.67v1.654h0.027c0.752-1.185,1.486-1.777,2.201-1.777C279.665,244.622,280.146,244.87,280.697,245.367z"/>
		<path d="M286.365,249.94v0.561c-0.579,0.438-1.002,0.656-1.271,0.656c-0.155,0-0.262-0.051-0.321-0.154
			c-0.059-0.102-0.103-0.311-0.13-0.625c-0.661,0.52-1.317,0.779-1.969,0.779c-0.474,0-0.875-0.155-1.203-0.465
			s-0.492-0.686-0.492-1.128c0-0.684,0.317-1.223,0.95-1.616c0.633-0.395,1.538-0.621,2.714-0.681v-0.8
			c0-0.856-0.465-1.285-1.395-1.285c-0.592,0-1.233,0.267-1.921,0.8v-0.69c0.711-0.446,1.388-0.67,2.03-0.67
			c0.57,0,1.039,0.141,1.408,0.42c0.369,0.281,0.554,0.688,0.554,1.221v3.917c0,0.214,0.05,0.321,0.15,0.321
			C285.597,250.501,285.896,250.314,286.365,249.94z M284.643,249.79v-1.962c-0.861-0.032-1.576,0.12-2.143,0.454
			c-0.567,0.336-0.851,0.763-0.851,1.282c0,0.292,0.119,0.538,0.355,0.738s0.533,0.301,0.889,0.301
			C283.467,250.604,284.05,250.332,284.643,249.79z"/>
		<path d="M292.285,244.745v0.547h-1.429c0.579,0.528,0.868,1.085,0.868,1.668c0,0.524-0.113,0.938-0.338,1.244
			s-0.495,0.527-0.807,0.666c-0.312,0.14-0.728,0.276-1.248,0.41c-0.52,0.135-0.845,0.262-0.978,0.38s-0.198,0.255-0.198,0.41
			c0,0.183,0.085,0.328,0.256,0.438s0.702,0.189,1.593,0.239s1.491,0.221,1.801,0.513s0.465,0.679,0.465,1.162
			c0,0.569-0.249,1.018-0.745,1.343c-0.497,0.326-1.187,0.489-2.071,0.489c-0.879,0-1.559-0.153-2.037-0.462
			c-0.479-0.307-0.718-0.714-0.718-1.22c0-0.82,0.611-1.328,1.832-1.524v-0.027c-0.679-0.159-1.019-0.458-1.019-0.896
			c0-0.442,0.419-0.784,1.258-1.025v-0.027c-0.551-0.164-0.97-0.437-1.254-0.817c-0.285-0.38-0.427-0.803-0.427-1.268
			c0-0.661,0.23-1.199,0.69-1.617c0.46-0.416,1.121-0.625,1.982-0.625H292.285z M289.496,253.693c0.652,0,1.17-0.111,1.555-0.335
			s0.578-0.518,0.578-0.882c0-0.738-0.667-1.107-2.003-1.107c-1.522,0-2.283,0.388-2.283,1.162S288.061,253.693,289.496,253.693z
			 M289.4,248.655c0.46,0,0.855-0.165,1.186-0.496c0.331-0.33,0.496-0.726,0.496-1.186s-0.165-0.854-0.496-1.18
			c-0.331-0.325-0.73-0.488-1.2-0.488c-0.465,0-0.857,0.159-1.176,0.479s-0.479,0.706-0.479,1.162c0,0.474,0.162,0.877,0.485,1.21
			S288.936,248.655,289.4,248.655z"/>
		<path d="M298.649,247.657h-4.956c-0.014,0.109-0.021,0.219-0.021,0.328c0,0.702,0.25,1.297,0.752,1.784s1.094,0.731,1.777,0.731
			c0.797,0,1.577-0.312,2.338-0.937v0.759c-0.72,0.556-1.527,0.834-2.42,0.834c-0.907,0-1.657-0.314-2.249-0.943
			s-0.889-1.429-0.889-2.399c0-0.921,0.273-1.683,0.82-2.286c0.547-0.604,1.235-0.906,2.064-0.906c0.779,0,1.438,0.272,1.976,0.816
			C298.38,245.983,298.649,246.723,298.649,247.657z M293.782,247.117h4.074c-0.237-1.226-0.9-1.839-1.989-1.839
			c-0.515,0-0.96,0.16-1.336,0.482C294.155,246.081,293.905,246.534,293.782,247.117z"/>
	</g>
	<g>
		<path d="M561.996,337.7v24.251h12.82v1.67h-14.824V337.7H561.996z"/>
		<path d="M590.811,360.652v1.521c-1.57,1.188-2.721,1.781-3.451,1.781c-0.42,0-0.711-0.139-0.871-0.418
			c-0.162-0.277-0.279-0.844-0.354-1.697c-1.793,1.41-3.574,2.115-5.344,2.115c-1.286,0-2.375-0.42-3.266-1.262
			c-0.891-0.841-1.336-1.861-1.336-3.062c0-1.855,0.859-3.318,2.58-4.388c1.719-1.07,4.174-1.686,7.365-1.847v-2.171
			c0-2.325-1.262-3.488-3.785-3.488c-1.607,0-3.346,0.724-5.213,2.171v-1.874c1.93-1.212,3.766-1.818,5.51-1.818
			c1.547,0,2.82,0.381,3.822,1.141c1.002,0.762,1.504,1.865,1.504,3.312v10.632c0,0.582,0.135,0.872,0.408,0.872
			C588.727,362.174,589.537,361.667,590.811,360.652z M586.135,360.244v-5.325c-2.338-0.086-4.276,0.325-5.816,1.233
			c-1.54,0.91-2.311,2.069-2.311,3.479c0,0.792,0.322,1.46,0.965,2.004c0.644,0.545,1.447,0.816,2.412,0.816
			C582.943,362.452,584.527,361.717,586.135,360.244z"/>
		<path d="M605.209,348.239l-1.057,1.707c-1.424-1.299-2.567-1.948-3.434-1.948c-1.707,0-3.531,1.633-5.473,4.898v10.725h-1.818
			v-17.07h1.818v4.49h0.074c2.041-3.216,4.031-4.824,5.975-4.824C602.408,346.217,603.713,346.892,605.209,348.239z"/>
		<path d="M620.484,346.551v1.484h-3.879c1.571,1.436,2.357,2.944,2.357,4.527c0,1.423-0.307,2.549-0.919,3.377
			c-0.612,0.829-1.343,1.432-2.189,1.809c-0.848,0.378-1.976,0.749-3.386,1.113c-1.41,0.365-2.295,0.709-2.654,1.03
			c-0.358,0.322-0.537,0.693-0.537,1.113c0,0.495,0.231,0.891,0.695,1.188s1.904,0.514,4.323,0.649
			c2.418,0.137,4.048,0.601,4.89,1.392c0.84,0.791,1.262,1.843,1.262,3.154c0,1.546-0.675,2.762-2.023,3.646
			c-1.348,0.885-3.223,1.327-5.621,1.327c-2.389,0-4.23-0.417-5.529-1.253c-1.299-0.834-1.949-1.938-1.949-3.312
			c0-2.227,1.658-3.606,4.973-4.138v-0.074c-1.843-0.433-2.764-1.243-2.764-2.431c0-1.199,1.137-2.127,3.414-2.783v-0.074
			c-1.498-0.445-2.633-1.185-3.405-2.218c-0.773-1.032-1.159-2.18-1.159-3.441c0-1.793,0.624-3.256,1.873-4.389
			c1.25-1.131,3.043-1.697,5.381-1.697H620.484z M612.914,370.839c1.768,0,3.176-0.304,4.221-0.909
			c1.045-0.606,1.568-1.404,1.568-2.394c0-2.004-1.812-3.006-5.438-3.006c-4.131,0-6.197,1.051-6.197,3.154
			C607.068,369.787,609.018,370.839,612.914,370.839z M612.654,357.164c1.248,0,2.322-0.448,3.219-1.346
			c0.896-0.896,1.346-1.969,1.346-3.219c0-1.249-0.449-2.316-1.346-3.201c-0.896-0.884-1.982-1.326-3.256-1.326
			c-1.262,0-2.326,0.434-3.191,1.299c-0.867,0.866-1.299,1.918-1.299,3.154c0,1.287,0.438,2.382,1.316,3.284
			C610.322,356.713,611.393,357.164,612.654,357.164z"/>
		<path d="M637.758,354.455h-13.451c-0.037,0.297-0.057,0.594-0.057,0.891c0,1.905,0.681,3.52,2.041,4.843
			c1.361,1.324,2.969,1.985,4.824,1.985c2.165,0,4.28-0.847,6.346-2.542v2.06c-1.954,1.51-4.144,2.264-6.568,2.264
			c-2.461,0-4.496-0.854-6.104-2.561c-1.609-1.707-2.412-3.878-2.412-6.513c0-2.498,0.742-4.567,2.227-6.206
			c1.484-1.64,3.352-2.459,5.604-2.459c2.115,0,3.902,0.739,5.361,2.217C637.028,349.912,637.758,351.92,637.758,354.455z
			 M624.547,352.989h11.059c-0.643-3.327-2.443-4.991-5.398-4.991c-1.398,0-2.607,0.436-3.628,1.309
			C625.559,350.178,624.881,351.406,624.547,352.989z"/>
	</g>
	<rect x="486.507" y="231.751" fill-rule="evenodd" clip-rule="evenodd" fill="#6095C9" width="222.636" height="84.011"/>
	
		<rect x="486.507" y="231.751" fill="none" stroke="#47719C" stroke-width="2" stroke-linejoin="round" stroke-miterlimit="10" width="222.636" height="84.011"/>
	<g>
		<path fill="#FFFFFF" d="M583.896,266.421v17.735h-1.384v-8.404H570.68v8.404h-1.371v-17.735h1.371v8.188h11.832v-8.188H583.896z"
			/>
		<path fill="#FFFFFF" d="M588.009,266.421h6.203c3.138,0,5.532,0.825,7.187,2.476c1.652,1.65,2.479,3.783,2.479,6.398
			c0,2.564-0.818,4.683-2.454,6.354c-1.637,1.672-3.961,2.508-6.971,2.508h-6.444V266.421z M589.38,267.563v15.45h4.997
			c2.291,0,4.2-0.705,5.727-2.113c1.525-1.41,2.289-3.278,2.289-5.605c0-2.276-0.752-4.135-2.258-5.573
			c-1.505-1.438-3.454-2.158-5.847-2.158H589.38z"/>
		<path fill="#FFFFFF" d="M616.357,266.421v1.143h-7.757v6.741h6.995v1.143h-6.995v8.709h-1.371v-17.735H616.357z"/>
		<path fill="#FFFFFF" d="M626.983,267.31v1.511c-1.54-0.905-2.864-1.358-3.974-1.358c-1.066,0-1.957,0.323-2.672,0.972
			c-0.716,0.646-1.073,1.449-1.073,2.405c0,0.686,0.212,1.304,0.635,1.854s1.308,1.079,2.653,1.587s2.328,0.931,2.945,1.27
			s1.143,0.829,1.574,1.473s0.647,1.477,0.647,2.501c0,1.362-0.499,2.514-1.498,3.453s-2.218,1.409-3.656,1.409
			c-1.473,0-2.987-0.517-4.545-1.549v-1.612c1.718,1.261,3.208,1.892,4.469,1.892c1.05,0,1.937-0.341,2.659-1.021
			c0.725-0.682,1.086-1.518,1.086-2.508c0-0.754-0.225-1.433-0.673-2.038s-1.358-1.171-2.729-1.697s-2.351-0.95-2.938-1.271
			c-0.589-0.321-1.088-0.78-1.499-1.377c-0.411-0.596-0.616-1.363-0.616-2.303c0-1.303,0.5-2.412,1.498-3.33
			s2.201-1.377,3.605-1.377C624.262,266.192,625.629,266.564,626.983,267.31z"/>
	</g>
	<rect x="486.507" y="142.461" fill-rule="evenodd" clip-rule="evenodd" fill="#CD665F" width="222.636" height="83.777"/>
	
		<rect x="486.507" y="142.461" fill="none" stroke="#9F4B46" stroke-width="2" stroke-linejoin="round" stroke-miterlimit="10" width="222.636" height="83.777"/>
	<g>
		<path fill="#FFFFFF" d="M514.452,177.015h4.545c1.904,0,3.36,0.413,4.367,1.237c1.007,0.826,1.511,1.94,1.511,3.346
			c0,2.048-1.125,3.487-3.377,4.316c0.584,0.279,1.371,1.181,2.361,2.704l4.012,6.132h-1.623l-3.09-4.86
			c-1.031-1.626-1.836-2.64-2.41-3.042c-0.576-0.402-1.418-0.604-2.526-0.604h-2.398v8.506h-1.371V177.015z M515.823,178.157v6.944
			h2.945c1.498,0,2.643-0.303,3.435-0.908c0.791-0.604,1.187-1.462,1.187-2.57c0-1.092-0.401-1.942-1.206-2.552
			s-1.959-0.914-3.466-0.914H515.823z"/>
		<path fill="#FFFFFF" d="M543.943,177.015v17.735h-1.384v-8.404h-11.832v8.404h-1.371v-17.735h1.371v8.188h11.832v-8.188H543.943z"
			/>
		<path fill="#FFFFFF" d="M549.402,177.015v17.735h-1.371v-17.735H549.402z"/>
		<path fill="#FFFFFF" d="M553.439,177.015h4.888c1.87,0,3.303,0.419,4.298,1.257c0.994,0.838,1.491,1.98,1.491,3.428
			c0,1.464-0.501,2.624-1.505,3.479c-1.002,0.854-2.473,1.282-4.411,1.282h-3.39v8.29h-1.371V177.015z M554.811,178.157v7.16h3.301
			c1.48,0,2.607-0.313,3.377-0.939s1.155-1.511,1.155-2.653c0-1.092-0.376-1.959-1.13-2.603s-1.832-0.965-3.237-0.965H554.811z"/>
		<path fill="#FFFFFF" d="M576.418,177.015v1.143h-8.303v7.097h8.087v1.155h-8.087v7.198h8.506v1.143h-9.877v-17.735H576.418z"/>
		<path fill="#FFFFFF" d="M590.429,176.786h1.198l-5.695,18.192h-1.224L590.429,176.786z"/>
		<path fill="#FFFFFF" d="M615.799,177.015v17.735h-1.384v-8.404h-11.832v8.404h-1.371v-17.735h1.371v8.188h11.832v-8.188H615.799z"
			/>
		<path fill="#FFFFFF" d="M628.799,192.719v1.041c-1.074,0.812-1.861,1.219-2.361,1.219c-0.287,0-0.486-0.096-0.597-0.285
			c-0.11-0.191-0.19-0.578-0.241-1.162c-1.227,0.965-2.445,1.447-3.656,1.447c-0.881,0-1.625-0.288-2.234-0.863
			s-0.914-1.273-0.914-2.095c0-1.27,0.588-2.271,1.765-3.003c1.177-0.731,2.856-1.152,5.04-1.263v-1.485
			c0-1.591-0.863-2.387-2.59-2.387c-1.1,0-2.289,0.495-3.567,1.485v-1.282c1.32-0.829,2.577-1.244,3.771-1.244
			c1.059,0,1.93,0.26,2.615,0.781c0.686,0.52,1.028,1.275,1.028,2.266v7.274c0,0.397,0.093,0.597,0.279,0.597
			C627.373,193.76,627.928,193.413,628.799,192.719z M625.6,192.439v-3.644c-1.6-0.06-2.926,0.222-3.98,0.845
			c-1.053,0.621-1.58,1.415-1.58,2.38c0,0.542,0.221,0.999,0.66,1.371s0.99,0.559,1.65,0.559
			C623.416,193.95,624.5,193.446,625.6,192.439z"/>
		<path fill="#FFFFFF" d="M640.631,177.015v17.735h-1.257v-0.914c-1.066,0.762-2.218,1.143-3.453,1.143
			c-1.659,0-3.058-0.586-4.196-1.758c-1.138-1.173-1.707-2.613-1.707-4.323c0-1.735,0.561-3.178,1.682-4.329
			c1.122-1.151,2.529-1.727,4.222-1.727c1.075,0,2.226,0.313,3.453,0.939v-6.767H640.631z M639.374,192.693v-7.541
			c-1.117-0.728-2.251-1.092-3.402-1.092c-1.346,0-2.454,0.446-3.326,1.34c-0.872,0.893-1.308,2.033-1.308,3.421
			c0,1.413,0.465,2.59,1.396,3.529s2.095,1.409,3.491,1.409C637.309,193.76,638.358,193.404,639.374,192.693z"/>
		<path fill="#FFFFFF" d="M649.251,182.842c1.692,0,3.104,0.58,4.233,1.739c1.131,1.159,1.695,2.606,1.695,4.342
			c0,1.727-0.564,3.167-1.695,4.323c-1.129,1.154-2.541,1.732-4.233,1.732s-3.108-0.578-4.247-1.732
			c-1.138-1.156-1.707-2.597-1.707-4.323c0-1.735,0.569-3.183,1.707-4.342C646.143,183.422,647.559,182.842,649.251,182.842z
			 M649.251,193.76c1.312,0,2.407-0.459,3.288-1.377c0.881-0.919,1.32-2.072,1.32-3.46c0-1.38-0.442-2.535-1.326-3.466
			c-0.885-0.931-1.979-1.396-3.282-1.396c-1.32,0-2.423,0.461-3.308,1.384c-0.884,0.923-1.326,2.082-1.326,3.479
			c0,1.388,0.442,2.541,1.326,3.46C646.828,193.301,647.931,193.76,649.251,193.76z"/>
		<path fill="#FFFFFF" d="M663.343,182.842c1.692,0,3.104,0.58,4.233,1.739c1.131,1.159,1.695,2.606,1.695,4.342
			c0,1.727-0.564,3.167-1.695,4.323c-1.129,1.154-2.541,1.732-4.233,1.732s-3.108-0.578-4.247-1.732
			c-1.138-1.156-1.707-2.597-1.707-4.323c0-1.735,0.569-3.183,1.707-4.342C660.234,183.422,661.65,182.842,663.343,182.842z
			 M663.343,193.76c1.312,0,2.407-0.459,3.288-1.377c0.881-0.919,1.32-2.072,1.32-3.46c0-1.38-0.442-2.535-1.326-3.466
			c-0.885-0.931-1.979-1.396-3.282-1.396c-1.32,0-2.423,0.461-3.308,1.384c-0.884,0.923-1.326,2.082-1.326,3.479
			c0,1.388,0.442,2.541,1.326,3.46C660.92,193.301,662.022,193.76,663.343,193.76z"/>
		<path fill="#FFFFFF" d="M673.271,183.07v0.66c1.177-0.593,2.349-0.889,3.517-0.889c1.658,0,3.034,0.571,4.126,1.714
			s1.638,2.581,1.638,4.316c0,1.71-0.562,3.155-1.688,4.335c-1.126,1.182-2.501,1.771-4.126,1.771c-1.125,0-2.281-0.292-3.466-0.876
			v6.627h-1.244V183.07H673.271z M673.271,184.924v7.96c1.058,0.584,2.133,0.876,3.225,0.876c1.396,0,2.526-0.44,3.39-1.32
			s1.295-2.035,1.295-3.466c0-1.422-0.457-2.597-1.371-3.522c-0.914-0.928-2.069-1.391-3.466-1.391
			C675.344,184.061,674.32,184.349,673.271,184.924z"/>
	</g>
	
		<rect x="487.988" y="143.943" opacity="0.5412" fill-rule="evenodd" clip-rule="evenodd" fill="#E0E0E0" width="88.62" height="24.234"/>
	<g>
		<path d="M504.246,152.67v0.807c-1.158-0.615-2.293-0.923-3.404-0.923c-1.186,0-2.177,0.403-2.975,1.21
			c-0.797,0.807-1.195,1.813-1.195,3.021c0,1.222,0.4,2.227,1.203,3.015c0.802,0.788,1.824,1.183,3.068,1.183
			c1.039,0,2.172-0.326,3.398-0.978v0.766c-1.131,0.597-2.259,0.896-3.385,0.896c-1.453,0-2.664-0.466-3.633-1.398
			c-0.969-0.932-1.453-2.093-1.453-3.482c0-1.399,0.495-2.568,1.484-3.507c0.988-0.938,2.166-1.408,3.533-1.408
			C501.965,151.87,503.084,152.137,504.246,152.67z"/>
		<path d="M508.457,155.131c0.911,0,1.671,0.312,2.279,0.937s0.912,1.403,0.912,2.338c0,0.93-0.304,1.706-0.912,2.327
			c-0.608,0.623-1.368,0.934-2.279,0.934c-0.912,0-1.674-0.311-2.287-0.934c-0.613-0.621-0.92-1.397-0.92-2.327
			c0-0.935,0.307-1.714,0.92-2.338S507.545,155.131,508.457,155.131z M508.457,161.01c0.706,0,1.296-0.247,1.77-0.742
			c0.475-0.494,0.711-1.115,0.711-1.862c0-0.743-0.238-1.365-0.714-1.866s-1.065-0.752-1.767-0.752
			c-0.711,0-1.305,0.248-1.781,0.745s-0.715,1.121-0.715,1.873c0,0.747,0.238,1.368,0.715,1.862
			C507.152,160.763,507.746,161.01,508.457,161.01z"/>
		<path d="M513.762,155.254v1.107h0.027c0.51-0.82,1.178-1.23,2.002-1.23c0.962,0,1.639,0.504,2.031,1.511
			c0.591-1.007,1.318-1.511,2.184-1.511c0.65,0,1.176,0.232,1.576,0.697s0.602,1.082,0.602,1.853v3.862h-0.67v-3.568
			c0-0.679-0.145-1.213-0.43-1.604c-0.287-0.389-0.689-0.584-1.208-0.584c-0.387,0-0.724,0.116-1.011,0.349
			c-0.285,0.232-0.582,0.606-0.887,1.121v4.286h-0.676v-3.582c0-0.697-0.15-1.234-0.448-1.609c-0.298-0.377-0.698-0.564-1.2-0.564
			c-0.729,0-1.359,0.449-1.893,1.347v4.409h-0.67v-6.289H513.762z"/>
		<path d="M524.596,155.254v0.355c0.634-0.319,1.266-0.479,1.895-0.479c0.893,0,1.633,0.308,2.221,0.923s0.883,1.39,0.883,2.324
			c0,0.921-0.304,1.698-0.91,2.335c-0.605,0.635-1.346,0.953-2.221,0.953c-0.606,0-1.229-0.157-1.867-0.472v3.568h-0.67v-9.509
			H524.596z M524.596,156.252v4.286c0.57,0.314,1.148,0.472,1.736,0.472c0.752,0,1.361-0.237,1.826-0.711s0.697-1.096,0.697-1.866
			c0-0.766-0.246-1.397-0.738-1.897c-0.492-0.498-1.115-0.748-1.867-0.748C525.713,155.787,525.161,155.942,524.596,156.252z"/>
		<path d="M535.486,161.543v-1.039h-0.027c-0.292,0.419-0.592,0.718-0.899,0.896s-0.698,0.267-1.173,0.267
			c-0.674,0-1.232-0.219-1.674-0.656c-0.442-0.438-0.664-1.058-0.664-1.859v-3.896h0.67v3.883c0,0.583,0.16,1.041,0.479,1.374
			c0.319,0.333,0.734,0.499,1.244,0.499c0.438,0,0.811-0.101,1.118-0.301s0.616-0.547,0.927-1.039v-4.416h0.67v6.289H535.486z"/>
		<path d="M539.143,153.169v2.085h1.764v0.547h-1.764v3.739c0,0.602,0.049,0.997,0.147,1.187c0.099,0.188,0.361,0.283,0.79,0.283
			c0.328,0,0.711-0.103,1.148-0.308v0.643c-0.442,0.214-0.875,0.321-1.299,0.321c-0.415,0-0.762-0.118-1.039-0.355
			c-0.278-0.237-0.418-0.565-0.418-0.984v-4.525h-1.695v-0.547h1.695v-1.497l0.459-0.588H539.143z"/>
		<path d="M547.162,160.449v0.561c-0.579,0.438-1.003,0.656-1.271,0.656c-0.155,0-0.263-0.051-0.322-0.154
			c-0.059-0.102-0.102-0.311-0.129-0.625c-0.661,0.52-1.317,0.779-1.969,0.779c-0.475,0-0.875-0.155-1.203-0.465
			s-0.492-0.686-0.492-1.128c0-0.684,0.316-1.223,0.949-1.616c0.634-0.395,1.539-0.621,2.715-0.681v-0.8
			c0-0.856-0.465-1.285-1.395-1.285c-0.593,0-1.233,0.267-1.922,0.8v-0.69c0.711-0.446,1.389-0.67,2.031-0.67
			c0.569,0,1.039,0.141,1.408,0.42c0.369,0.281,0.553,0.688,0.553,1.221v3.917c0,0.214,0.051,0.321,0.15,0.321
			C546.394,161.01,546.692,160.823,547.162,160.449z M545.439,160.299v-1.962c-0.861-0.032-1.576,0.12-2.144,0.454
			c-0.567,0.336-0.851,0.763-0.851,1.282c0,0.292,0.118,0.538,0.355,0.738c0.236,0.2,0.533,0.301,0.889,0.301
			C544.264,161.112,544.847,160.841,545.439,160.299z"/>
		<path d="M549.342,153.169v2.085h1.764v0.547h-1.764v3.739c0,0.602,0.049,0.997,0.147,1.187c0.099,0.188,0.361,0.283,0.79,0.283
			c0.328,0,0.711-0.103,1.148-0.308v0.643c-0.442,0.214-0.875,0.321-1.299,0.321c-0.415,0-0.762-0.118-1.039-0.355
			c-0.278-0.237-0.418-0.565-0.418-0.984v-4.525h-1.695v-0.547h1.695v-1.497l0.459-0.588H549.342z"/>
		<path d="M553.123,151.993v1.148h-0.678v-1.148H553.123z M553.123,155.254v6.289h-0.678v-6.289H553.123z"/>
		<path d="M557.895,155.131c0.911,0,1.671,0.312,2.279,0.937s0.912,1.403,0.912,2.338c0,0.93-0.304,1.706-0.912,2.327
			c-0.608,0.623-1.368,0.934-2.279,0.934c-0.912,0-1.674-0.311-2.287-0.934c-0.613-0.621-0.92-1.397-0.92-2.327
			c0-0.935,0.307-1.714,0.92-2.338S556.982,155.131,557.895,155.131z M557.895,161.01c0.706,0,1.296-0.247,1.77-0.742
			c0.475-0.494,0.711-1.115,0.711-1.862c0-0.743-0.238-1.365-0.714-1.866s-1.065-0.752-1.767-0.752
			c-0.711,0-1.305,0.248-1.781,0.745s-0.715,1.121-0.715,1.873c0,0.747,0.238,1.368,0.715,1.862
			C556.59,160.763,557.184,161.01,557.895,161.01z"/>
		<path d="M563.227,155.254v1.094h0.027c0.523-0.812,1.214-1.217,2.07-1.217c0.711,0,1.279,0.228,1.703,0.684
			s0.635,1.087,0.635,1.894v3.835h-0.67v-3.582c0-1.449-0.569-2.174-1.709-2.174c-0.834,0-1.52,0.449-2.057,1.347v4.409h-0.67
			v-6.289H563.227z"/>
	</g>
	
		<rect x="487.988" y="233.435" opacity="0.5412" fill-rule="evenodd" clip-rule="evenodd" fill="#E0E0E0" width="56.999" height="24.234"/>
	<g>
		<path d="M500.787,241.963v0.813c-0.83-0.487-1.543-0.731-2.141-0.731c-0.574,0-1.053,0.175-1.438,0.522
			c-0.386,0.35-0.577,0.781-0.577,1.296c0,0.369,0.113,0.702,0.342,0.998c0.228,0.296,0.703,0.581,1.428,0.854
			s1.254,0.501,1.586,0.684c0.333,0.183,0.615,0.446,0.848,0.793s0.35,0.795,0.35,1.347c0,0.733-0.27,1.354-0.807,1.859
			c-0.538,0.506-1.194,0.759-1.969,0.759c-0.793,0-1.609-0.278-2.447-0.834v-0.868c0.925,0.679,1.727,1.019,2.406,1.019
			c0.564,0,1.042-0.184,1.432-0.551c0.39-0.366,0.584-0.816,0.584-1.35c0-0.406-0.12-0.771-0.361-1.098
			c-0.242-0.326-0.732-0.63-1.47-0.914c-0.737-0.283-1.265-0.511-1.582-0.685c-0.317-0.173-0.587-0.42-0.808-0.741
			c-0.221-0.32-0.332-0.734-0.332-1.24c0-0.701,0.27-1.299,0.807-1.793c0.538-0.494,1.186-0.741,1.941-0.741
			C499.321,241.361,500.058,241.562,500.787,241.963z"/>
		<path d="M503.855,242.66v2.085h1.764v0.547h-1.764v3.739c0,0.602,0.049,0.997,0.147,1.187c0.099,0.188,0.361,0.283,0.79,0.283
			c0.328,0,0.711-0.103,1.148-0.308v0.643c-0.442,0.214-0.875,0.321-1.299,0.321c-0.415,0-0.762-0.118-1.039-0.355
			c-0.278-0.237-0.418-0.565-0.418-0.984v-4.525h-1.695v-0.547h1.695v-1.497l0.459-0.588H503.855z"/>
		<path d="M509.775,244.622c0.912,0,1.672,0.312,2.28,0.937s0.913,1.403,0.913,2.338c0,0.93-0.305,1.706-0.913,2.327
			c-0.608,0.623-1.368,0.934-2.28,0.934c-0.911,0-1.674-0.311-2.286-0.934c-0.612-0.621-0.919-1.397-0.919-2.327
			c0-0.935,0.307-1.714,0.919-2.338S508.864,244.622,509.775,244.622z M509.775,250.501c0.707,0,1.297-0.247,1.771-0.742
			c0.474-0.494,0.711-1.115,0.711-1.862c0-0.743-0.238-1.365-0.715-1.866s-1.065-0.752-1.768-0.752c-0.711,0-1.305,0.248-1.78,0.745
			s-0.714,1.121-0.714,1.873c0,0.747,0.238,1.368,0.714,1.862C508.471,250.254,509.064,250.501,509.775,250.501z"/>
		<path d="M518.793,245.367l-0.391,0.629c-0.523-0.479-0.945-0.718-1.264-0.718c-0.629,0-1.302,0.602-2.018,1.805v3.951h-0.67
			v-6.289h0.67v1.654h0.027c0.752-1.185,1.486-1.777,2.201-1.777C517.76,244.622,518.241,244.87,518.793,245.367z"/>
		<path d="M524.461,249.94v0.561c-0.579,0.438-1.003,0.656-1.271,0.656c-0.155,0-0.263-0.051-0.322-0.154
			c-0.059-0.102-0.102-0.311-0.129-0.625c-0.661,0.52-1.317,0.779-1.969,0.779c-0.475,0-0.875-0.155-1.203-0.465
			s-0.492-0.686-0.492-1.128c0-0.684,0.316-1.223,0.949-1.616c0.634-0.395,1.539-0.621,2.715-0.681v-0.8
			c0-0.856-0.465-1.285-1.395-1.285c-0.593,0-1.233,0.267-1.922,0.8v-0.69c0.711-0.446,1.389-0.67,2.031-0.67
			c0.569,0,1.039,0.141,1.408,0.42c0.369,0.281,0.553,0.688,0.553,1.221v3.917c0,0.214,0.051,0.321,0.15,0.321
			C523.692,250.501,523.991,250.314,524.461,249.94z M522.738,249.79v-1.962c-0.861-0.032-1.576,0.12-2.144,0.454
			c-0.567,0.336-0.851,0.763-0.851,1.282c0,0.292,0.118,0.538,0.355,0.738c0.236,0.2,0.533,0.301,0.889,0.301
			C521.562,250.604,522.146,250.332,522.738,249.79z"/>
		<path d="M530.381,244.745v0.547h-1.43c0.579,0.528,0.869,1.085,0.869,1.668c0,0.524-0.113,0.938-0.339,1.244
			s-0.495,0.527-0.807,0.666c-0.312,0.14-0.728,0.276-1.247,0.41c-0.52,0.135-0.846,0.262-0.979,0.38
			c-0.132,0.118-0.197,0.255-0.197,0.41c0,0.183,0.085,0.328,0.256,0.438s0.701,0.189,1.593,0.239s1.491,0.221,1.802,0.513
			c0.31,0.292,0.465,0.679,0.465,1.162c0,0.569-0.249,1.018-0.746,1.343c-0.496,0.326-1.187,0.489-2.07,0.489
			c-0.88,0-1.559-0.153-2.037-0.462c-0.479-0.307-0.719-0.714-0.719-1.22c0-0.82,0.611-1.328,1.832-1.524v-0.027
			c-0.679-0.159-1.018-0.458-1.018-0.896c0-0.442,0.419-0.784,1.258-1.025v-0.027c-0.552-0.164-0.971-0.437-1.255-0.817
			c-0.284-0.38-0.427-0.803-0.427-1.268c0-0.661,0.229-1.199,0.689-1.617c0.461-0.416,1.121-0.625,1.982-0.625H530.381z
			 M527.592,253.693c0.651,0,1.17-0.111,1.555-0.335s0.578-0.518,0.578-0.882c0-0.738-0.668-1.107-2.004-1.107
			c-1.521,0-2.283,0.388-2.283,1.162S526.156,253.693,527.592,253.693z M527.496,248.655c0.46,0,0.855-0.165,1.186-0.496
			c0.33-0.33,0.496-0.726,0.496-1.186s-0.166-0.854-0.496-1.18c-0.33-0.325-0.73-0.488-1.199-0.488
			c-0.465,0-0.857,0.159-1.176,0.479c-0.319,0.319-0.479,0.706-0.479,1.162c0,0.474,0.161,0.877,0.484,1.21
			C526.637,248.489,527.031,248.655,527.496,248.655z"/>
		<path d="M536.744,247.657h-4.955c-0.014,0.109-0.021,0.219-0.021,0.328c0,0.702,0.251,1.297,0.752,1.784
			c0.502,0.487,1.094,0.731,1.777,0.731c0.798,0,1.577-0.312,2.338-0.937v0.759c-0.72,0.556-1.526,0.834-2.42,0.834
			c-0.906,0-1.656-0.314-2.248-0.943c-0.593-0.629-0.889-1.429-0.889-2.399c0-0.921,0.273-1.683,0.82-2.286
			c0.547-0.604,1.234-0.906,2.064-0.906c0.779,0,1.438,0.272,1.975,0.816C536.476,245.983,536.744,246.723,536.744,247.657z
			 M531.877,247.117h4.074c-0.236-1.226-0.899-1.839-1.988-1.839c-0.516,0-0.961,0.16-1.337,0.482
			C532.25,246.081,532,246.534,531.877,247.117z"/>
	</g>
	<g>
		<path d="M98.209,338.999v2.208c-2.251-1.323-4.188-1.985-5.808-1.985c-1.559,0-2.861,0.474-3.906,1.419
			c-1.045,0.947-1.568,2.119-1.568,3.517c0,1.002,0.309,1.905,0.928,2.709c0.618,0.805,1.911,1.577,3.878,2.319
			s3.401,1.361,4.305,1.855c0.903,0.495,1.67,1.213,2.301,2.152c0.631,0.94,0.946,2.159,0.946,3.655c0,1.992-0.73,3.674-2.189,5.047
			c-1.46,1.373-3.241,2.06-5.344,2.06c-2.152,0-4.367-0.754-6.643-2.264v-2.356c2.511,1.844,4.688,2.765,6.531,2.765
			c1.534,0,2.83-0.498,3.887-1.494c1.058-0.995,1.586-2.217,1.586-3.665c0-1.101-0.328-2.094-0.983-2.978
			c-0.655-0.885-1.985-1.712-3.988-2.48c-2.003-0.77-3.435-1.389-4.295-1.858s-1.591-1.141-2.191-2.012
			c-0.6-0.872-0.9-1.994-0.9-3.366c0-1.903,0.729-3.526,2.189-4.868c1.459-1.341,3.216-2.012,5.27-2.012
			C94.232,337.366,96.229,337.911,98.209,338.999z"/>
		<path d="M104.944,346.551v3.006h0.074c1.385-2.227,3.197-3.34,5.437-3.34c2.61,0,4.447,1.367,5.511,4.101
			c1.605-2.733,3.582-4.101,5.928-4.101c1.766,0,3.192,0.631,4.279,1.893s1.63,2.938,1.63,5.028v10.483h-1.818v-9.686
			c0-1.843-0.389-3.293-1.167-4.352c-0.778-1.057-1.871-1.586-3.278-1.586c-1.05,0-1.963,0.315-2.741,0.946s-1.58,1.646-2.407,3.043
			v11.634h-1.837v-9.723c0-1.893-0.405-3.35-1.215-4.369c-0.811-1.021-1.896-1.531-3.256-1.531c-1.979,0-3.692,1.219-5.14,3.655
			v11.968h-1.818v-17.07H104.944z"/>
		<path d="M146.136,360.652v1.521c-1.571,1.188-2.722,1.781-3.451,1.781c-0.421,0-0.711-0.139-0.872-0.418
			c-0.161-0.277-0.278-0.844-0.353-1.697c-1.794,1.41-3.575,2.115-5.344,2.115c-1.287,0-2.375-0.42-3.266-1.262
			c-0.891-0.841-1.336-1.861-1.336-3.062c0-1.855,0.859-3.318,2.579-4.388c1.719-1.07,4.175-1.686,7.366-1.847v-2.171
			c0-2.325-1.262-3.488-3.785-3.488c-1.608,0-3.346,0.724-5.214,2.171v-1.874c1.93-1.212,3.767-1.818,5.511-1.818
			c1.546,0,2.82,0.381,3.822,1.141c1.002,0.762,1.503,1.865,1.503,3.312v10.632c0,0.582,0.136,0.872,0.408,0.872
			C144.051,362.174,144.861,361.667,146.136,360.652z M141.46,360.244v-5.325c-2.338-0.086-4.277,0.325-5.817,1.233
			c-1.54,0.91-2.31,2.069-2.31,3.479c0,0.792,0.321,1.46,0.965,2.004c0.643,0.545,1.447,0.816,2.412,0.816
			C138.269,362.452,139.852,361.717,141.46,360.244z"/>
		<path d="M150.849,337.7v25.921h-1.837V337.7H150.849z"/>
		<path d="M157.992,337.7v25.921h-1.837V337.7H157.992z"/>
	</g>
	<rect x="10.316" y="231.751" fill-rule="evenodd" clip-rule="evenodd" fill="#6095C9" width="222.636" height="84.011"/>
	
		<rect x="10.316" y="231.751" fill="none" stroke="#47719C" stroke-width="2" stroke-linejoin="round" stroke-miterlimit="10" width="222.636" height="84.011"/>
	<g>
		<path fill="#FFFFFF" d="M87.881,274.658l6.737-8.237h1.388v17.735h-1.384v-15.729l-6.748,8.29l-6.773-8.29v15.729h-1.371v-17.735
			h1.372L87.881,274.658z"/>
		<path fill="#FFFFFF" d="M109.59,277.885h-9.204c-0.025,0.203-0.038,0.406-0.038,0.609c0,1.304,0.465,2.408,1.396,3.313
			s2.031,1.358,3.301,1.358c1.481,0,2.928-0.58,4.342-1.739v1.409c-1.337,1.032-2.835,1.549-4.494,1.549
			c-1.684,0-3.077-0.584-4.177-1.752s-1.65-2.653-1.65-4.456c0-1.71,0.508-3.125,1.523-4.247c1.016-1.121,2.293-1.682,3.834-1.682
			c1.447,0,2.67,0.506,3.669,1.518C109.091,274.776,109.59,276.149,109.59,277.885z M100.551,276.882h7.566
			c-0.44-2.276-1.671-3.415-3.694-3.415c-0.957,0-1.784,0.299-2.482,0.895C101.243,274.959,100.78,275.799,100.551,276.882z"/>
		<path fill="#FFFFFF" d="M113.285,272.477v2.057h0.051c0.948-1.523,2.188-2.285,3.72-2.285c1.786,0,3.042,0.936,3.771,2.806
			c1.099-1.87,2.451-2.806,4.056-2.806c1.208,0,2.185,0.432,2.928,1.295c0.743,0.863,1.115,2.01,1.115,3.44v7.173h-1.244v-6.627
			c0-1.261-0.266-2.254-0.798-2.977c-0.532-0.725-1.28-1.086-2.243-1.086c-0.718,0-1.343,0.216-1.875,0.647
			c-0.532,0.432-1.082,1.126-1.647,2.082v7.96h-1.257v-6.652c0-1.295-0.277-2.291-0.832-2.99c-0.554-0.697-1.297-1.047-2.228-1.047
			c-1.354,0-2.526,0.834-3.517,2.501v8.188h-1.244v-11.68H113.285z"/>
		<path fill="#FFFFFF" d="M137.571,272.248c1.693,0,3.104,0.58,4.234,1.739s1.695,2.606,1.695,4.342
			c0,1.727-0.565,3.167-1.695,4.323c-1.13,1.154-2.541,1.732-4.234,1.732s-3.108-0.578-4.247-1.732
			c-1.138-1.156-1.708-2.597-1.708-4.323c0-1.735,0.569-3.183,1.708-4.342S135.878,272.248,137.571,272.248z M137.571,283.166
			c1.312,0,2.408-0.459,3.288-1.377c0.88-0.919,1.32-2.072,1.32-3.46c0-1.38-0.442-2.535-1.327-3.466s-1.979-1.396-3.282-1.396
			c-1.32,0-2.423,0.461-3.307,1.384s-1.327,2.082-1.327,3.479c0,1.388,0.442,2.541,1.327,3.46
			C135.148,282.707,136.25,283.166,137.571,283.166z"/>
		<path fill="#FFFFFF" d="M154.316,273.632l-0.724,1.168c-0.973-0.889-1.756-1.333-2.349-1.333c-1.168,0-2.417,1.117-3.745,3.352
			v7.338h-1.244v-11.68h1.244v3.072h0.051c1.396-2.2,2.759-3.301,4.088-3.301C152.399,272.248,153.292,272.709,154.316,273.632z"/>
		<path fill="#FFFFFF" d="M166.076,272.477l-8.742,17.659h-1.275l4.084-8.25l-4.922-9.409h1.306l4.237,8.154l4.037-8.154H166.076z"
			/>
	</g>
	<rect x="10.316" y="142.461" fill-rule="evenodd" clip-rule="evenodd" fill="#CD665F" width="222.636" height="83.777"/>
	
		<rect x="10.316" y="142.461" fill="none" stroke="#9F4B46" stroke-width="2" stroke-linejoin="round" stroke-miterlimit="10" width="222.636" height="83.777"/>
	<g>
		<path fill="#FFFFFF" d="M116.433,177.015h4.545c1.904,0,3.36,0.413,4.367,1.237c1.007,0.826,1.511,1.94,1.511,3.346
			c0,2.048-1.125,3.487-3.377,4.316c0.584,0.279,1.371,1.181,2.361,2.704l4.012,6.132h-1.623l-3.089-4.86
			c-1.032-1.626-1.836-2.64-2.411-3.042c-0.576-0.402-1.417-0.604-2.526-0.604h-2.398v8.506h-1.371V177.015z M117.804,178.157v6.944
			h2.945c1.498,0,2.643-0.303,3.434-0.908c0.792-0.604,1.187-1.462,1.187-2.57c0-1.092-0.402-1.942-1.206-2.552
			s-1.959-0.914-3.466-0.914H117.804z"/>
	</g>
	
		<rect x="11.798" y="143.943" opacity="0.5412" fill-rule="evenodd" clip-rule="evenodd" fill="#E0E0E0" width="88.62" height="24.234"/>
	<g>
		<path d="M28.055,152.67v0.807c-1.158-0.615-2.292-0.923-3.404-0.923c-1.185,0-2.176,0.403-2.974,1.21s-1.196,1.813-1.196,3.021
			c0,1.222,0.401,2.227,1.203,3.015s1.825,1.183,3.069,1.183c1.039,0,2.171-0.326,3.397-0.978v0.766
			c-1.13,0.597-2.258,0.896-3.384,0.896c-1.454,0-2.665-0.466-3.633-1.398c-0.968-0.932-1.453-2.093-1.453-3.482
			c0-1.399,0.495-2.568,1.483-3.507s2.167-1.408,3.534-1.408C25.774,151.87,26.893,152.137,28.055,152.67z"/>
		<path d="M32.266,155.131c0.912,0,1.671,0.312,2.28,0.937s0.913,1.403,0.913,2.338c0,0.93-0.304,1.706-0.913,2.327
			c-0.608,0.623-1.368,0.934-2.28,0.934s-1.674-0.311-2.287-0.934c-0.613-0.621-0.919-1.397-0.919-2.327
			c0-0.935,0.307-1.714,0.919-2.338S31.354,155.131,32.266,155.131z M32.266,161.01c0.707,0,1.296-0.247,1.771-0.742
			c0.474-0.494,0.711-1.115,0.711-1.862c0-0.743-0.238-1.365-0.714-1.866s-1.065-0.752-1.767-0.752
			c-0.711,0-1.305,0.248-1.781,0.745s-0.714,1.121-0.714,1.873c0,0.747,0.238,1.368,0.714,1.862
			C30.961,160.763,31.555,161.01,32.266,161.01z"/>
		<path d="M37.571,155.254v1.107h0.027c0.51-0.82,1.178-1.23,2.003-1.23c0.961,0,1.638,0.504,2.03,1.511
			c0.591-1.007,1.319-1.511,2.184-1.511c0.651,0,1.176,0.232,1.577,0.697s0.601,1.082,0.601,1.853v3.862h-0.67v-3.568
			c0-0.679-0.144-1.213-0.43-1.604c-0.287-0.389-0.689-0.584-1.208-0.584c-0.387,0-0.724,0.116-1.01,0.349
			c-0.286,0.232-0.582,0.606-0.887,1.121v4.286h-0.677v-3.582c0-0.697-0.149-1.234-0.448-1.609c-0.298-0.377-0.698-0.564-1.2-0.564
			c-0.729,0-1.36,0.449-1.894,1.347v4.409h-0.67v-6.289H37.571z"/>
		<path d="M48.406,155.254v0.355c0.633-0.319,1.265-0.479,1.894-0.479c0.893,0,1.634,0.308,2.222,0.923s0.882,1.39,0.882,2.324
			c0,0.921-0.303,1.698-0.909,2.335c-0.606,0.635-1.347,0.953-2.222,0.953c-0.606,0-1.228-0.157-1.866-0.472v3.568h-0.67v-9.509
			H48.406z M48.406,156.252v4.286c0.57,0.314,1.148,0.472,1.736,0.472c0.752,0,1.36-0.237,1.825-0.711s0.697-1.096,0.697-1.866
			c0-0.766-0.246-1.397-0.738-1.897c-0.492-0.498-1.114-0.748-1.866-0.748C49.522,155.787,48.971,155.942,48.406,156.252z"/>
		<path d="M59.295,161.543v-1.039h-0.027c-0.292,0.419-0.591,0.718-0.899,0.896s-0.698,0.267-1.172,0.267
			c-0.674,0-1.233-0.219-1.675-0.656s-0.663-1.058-0.663-1.859v-3.896h0.67v3.883c0,0.583,0.16,1.041,0.479,1.374
			s0.734,0.499,1.244,0.499c0.438,0,0.81-0.101,1.118-0.301s0.616-0.547,0.926-1.039v-4.416h0.67v6.289H59.295z"/>
		<path d="M62.953,153.169v2.085h1.764v0.547h-1.764v3.739c0,0.602,0.049,0.997,0.147,1.187c0.098,0.188,0.361,0.283,0.79,0.283
			c0.328,0,0.711-0.103,1.148-0.308v0.643c-0.442,0.214-0.875,0.321-1.299,0.321c-0.415,0-0.761-0.118-1.039-0.355
			s-0.417-0.565-0.417-0.984v-4.525h-1.695v-0.547h1.695v-1.497l0.458-0.588H62.953z"/>
		<path d="M70.971,160.449v0.561c-0.579,0.438-1.002,0.656-1.271,0.656c-0.155,0-0.262-0.051-0.321-0.154
			c-0.059-0.102-0.103-0.311-0.13-0.625c-0.661,0.52-1.317,0.779-1.969,0.779c-0.474,0-0.875-0.155-1.203-0.465
			s-0.492-0.686-0.492-1.128c0-0.684,0.317-1.223,0.95-1.616c0.633-0.395,1.538-0.621,2.714-0.681v-0.8
			c0-0.856-0.465-1.285-1.395-1.285c-0.592,0-1.233,0.267-1.921,0.8v-0.69c0.711-0.446,1.388-0.67,2.03-0.67
			c0.57,0,1.039,0.141,1.408,0.42c0.369,0.281,0.554,0.688,0.554,1.221v3.917c0,0.214,0.05,0.321,0.15,0.321
			C70.203,161.01,70.502,160.823,70.971,160.449z M69.249,160.299v-1.962c-0.861-0.032-1.576,0.12-2.143,0.454
			c-0.567,0.336-0.851,0.763-0.851,1.282c0,0.292,0.119,0.538,0.355,0.738s0.533,0.301,0.889,0.301
			C68.073,161.112,68.656,160.841,69.249,160.299z"/>
		<path d="M73.152,153.169v2.085h1.764v0.547h-1.764v3.739c0,0.602,0.049,0.997,0.147,1.187c0.098,0.188,0.361,0.283,0.79,0.283
			c0.328,0,0.711-0.103,1.148-0.308v0.643c-0.442,0.214-0.875,0.321-1.299,0.321c-0.415,0-0.761-0.118-1.039-0.355
			s-0.417-0.565-0.417-0.984v-4.525h-1.695v-0.547h1.695v-1.497l0.458-0.588H73.152z"/>
		<path d="M76.932,151.993v1.148h-0.677v-1.148H76.932z M76.932,155.254v6.289h-0.677v-6.289H76.932z"/>
		<path d="M81.704,155.131c0.912,0,1.671,0.312,2.28,0.937s0.913,1.403,0.913,2.338c0,0.93-0.304,1.706-0.913,2.327
			c-0.608,0.623-1.368,0.934-2.28,0.934s-1.674-0.311-2.287-0.934c-0.613-0.621-0.919-1.397-0.919-2.327
			c0-0.935,0.307-1.714,0.919-2.338S80.792,155.131,81.704,155.131z M81.704,161.01c0.707,0,1.296-0.247,1.771-0.742
			c0.474-0.494,0.711-1.115,0.711-1.862c0-0.743-0.238-1.365-0.714-1.866s-1.065-0.752-1.767-0.752
			c-0.711,0-1.305,0.248-1.781,0.745s-0.714,1.121-0.714,1.873c0,0.747,0.238,1.368,0.714,1.862
			C80.399,160.763,80.993,161.01,81.704,161.01z"/>
		<path d="M87.036,155.254v1.094h0.027c0.524-0.812,1.214-1.217,2.071-1.217c0.711,0,1.278,0.228,1.702,0.684
			s0.636,1.087,0.636,1.894v3.835h-0.67v-3.582c0-1.449-0.57-2.174-1.709-2.174c-0.834,0-1.52,0.449-2.058,1.347v4.409h-0.67v-6.289
			H87.036z"/>
	</g>
	
		<rect x="11.798" y="233.435" opacity="0.5412" fill-rule="evenodd" clip-rule="evenodd" fill="#E0E0E0" width="56.999" height="24.234"/>
	<g>
		<path d="M24.596,241.963v0.813c-0.83-0.487-1.542-0.731-2.14-0.731c-0.574,0-1.054,0.175-1.439,0.522
			c-0.385,0.35-0.578,0.781-0.578,1.296c0,0.369,0.114,0.702,0.342,0.998s0.704,0.581,1.429,0.854s1.253,0.501,1.586,0.684
			s0.615,0.446,0.848,0.793s0.349,0.795,0.349,1.347c0,0.733-0.269,1.354-0.807,1.859s-1.194,0.759-1.969,0.759
			c-0.793,0-1.609-0.278-2.447-0.834v-0.868c0.925,0.679,1.727,1.019,2.406,1.019c0.565,0,1.042-0.184,1.432-0.551
			c0.39-0.366,0.584-0.816,0.584-1.35c0-0.406-0.121-0.771-0.362-1.098s-0.731-0.63-1.469-0.914
			c-0.738-0.283-1.265-0.511-1.582-0.685c-0.317-0.173-0.586-0.42-0.808-0.741c-0.221-0.32-0.332-0.734-0.332-1.24
			c0-0.701,0.269-1.299,0.807-1.793s1.185-0.741,1.941-0.741C23.131,241.361,23.867,241.562,24.596,241.963z"/>
		<path d="M27.666,242.66v2.085h1.764v0.547h-1.764v3.739c0,0.602,0.049,0.997,0.147,1.187c0.098,0.188,0.361,0.283,0.79,0.283
			c0.328,0,0.711-0.103,1.148-0.308v0.643c-0.442,0.214-0.875,0.321-1.299,0.321c-0.415,0-0.761-0.118-1.039-0.355
			s-0.417-0.565-0.417-0.984v-4.525H25.3v-0.547h1.695v-1.497l0.458-0.588H27.666z"/>
		<path d="M33.585,244.622c0.912,0,1.671,0.312,2.28,0.937s0.913,1.403,0.913,2.338c0,0.93-0.304,1.706-0.913,2.327
			c-0.608,0.623-1.368,0.934-2.28,0.934s-1.674-0.311-2.287-0.934c-0.613-0.621-0.919-1.397-0.919-2.327
			c0-0.935,0.307-1.714,0.919-2.338S32.674,244.622,33.585,244.622z M33.585,250.501c0.707,0,1.296-0.247,1.771-0.742
			c0.474-0.494,0.711-1.115,0.711-1.862c0-0.743-0.238-1.365-0.714-1.866s-1.065-0.752-1.767-0.752
			c-0.711,0-1.305,0.248-1.781,0.745s-0.714,1.121-0.714,1.873c0,0.747,0.238,1.368,0.714,1.862
			C32.281,250.254,32.875,250.501,33.585,250.501z"/>
		<path d="M42.602,245.367l-0.39,0.629c-0.524-0.479-0.946-0.718-1.265-0.718c-0.629,0-1.301,0.602-2.017,1.805v3.951h-0.67v-6.289
			h0.67v1.654h0.027c0.752-1.185,1.486-1.777,2.201-1.777C41.57,244.622,42.051,244.87,42.602,245.367z"/>
		<path d="M48.27,249.94v0.561c-0.579,0.438-1.002,0.656-1.271,0.656c-0.155,0-0.262-0.051-0.321-0.154
			c-0.059-0.102-0.103-0.311-0.13-0.625c-0.661,0.52-1.317,0.779-1.969,0.779c-0.474,0-0.875-0.155-1.203-0.465
			s-0.492-0.686-0.492-1.128c0-0.684,0.317-1.223,0.95-1.616c0.633-0.395,1.538-0.621,2.714-0.681v-0.8
			c0-0.856-0.465-1.285-1.395-1.285c-0.592,0-1.233,0.267-1.921,0.8v-0.69c0.711-0.446,1.388-0.67,2.03-0.67
			c0.57,0,1.039,0.141,1.408,0.42c0.369,0.281,0.554,0.688,0.554,1.221v3.917c0,0.214,0.05,0.321,0.15,0.321
			C47.502,250.501,47.801,250.314,48.27,249.94z M46.547,249.79v-1.962c-0.861-0.032-1.576,0.12-2.143,0.454
			c-0.567,0.336-0.851,0.763-0.851,1.282c0,0.292,0.119,0.538,0.355,0.738s0.533,0.301,0.889,0.301
			C45.372,250.604,45.955,250.332,46.547,249.79z"/>
		<path d="M54.19,244.745v0.547h-1.429c0.579,0.528,0.868,1.085,0.868,1.668c0,0.524-0.113,0.938-0.338,1.244
			s-0.495,0.527-0.807,0.666c-0.312,0.14-0.728,0.276-1.248,0.41c-0.52,0.135-0.845,0.262-0.978,0.38s-0.198,0.255-0.198,0.41
			c0,0.183,0.085,0.328,0.256,0.438s0.702,0.189,1.593,0.239s1.491,0.221,1.801,0.513s0.465,0.679,0.465,1.162
			c0,0.569-0.249,1.018-0.745,1.343c-0.497,0.326-1.187,0.489-2.071,0.489c-0.879,0-1.559-0.153-2.037-0.462
			c-0.479-0.307-0.718-0.714-0.718-1.22c0-0.82,0.611-1.328,1.832-1.524v-0.027c-0.679-0.159-1.019-0.458-1.019-0.896
			c0-0.442,0.419-0.784,1.258-1.025v-0.027c-0.551-0.164-0.97-0.437-1.254-0.817c-0.285-0.38-0.427-0.803-0.427-1.268
			c0-0.661,0.23-1.199,0.69-1.617c0.46-0.416,1.121-0.625,1.982-0.625H54.19z M51.401,253.693c0.652,0,1.17-0.111,1.555-0.335
			s0.578-0.518,0.578-0.882c0-0.738-0.667-1.107-2.003-1.107c-1.522,0-2.283,0.388-2.283,1.162S49.965,253.693,51.401,253.693z
			 M51.305,248.655c0.46,0,0.855-0.165,1.186-0.496c0.331-0.33,0.496-0.726,0.496-1.186s-0.165-0.854-0.496-1.18
			c-0.331-0.325-0.73-0.488-1.2-0.488c-0.465,0-0.857,0.159-1.176,0.479s-0.479,0.706-0.479,1.162c0,0.474,0.162,0.877,0.485,1.21
			S50.84,248.655,51.305,248.655z"/>
		<path d="M60.554,247.657h-4.956c-0.014,0.109-0.021,0.219-0.021,0.328c0,0.702,0.25,1.297,0.752,1.784s1.094,0.731,1.777,0.731
			c0.797,0,1.577-0.312,2.338-0.937v0.759c-0.72,0.556-1.527,0.834-2.42,0.834c-0.907,0-1.657-0.314-2.249-0.943
			s-0.889-1.429-0.889-2.399c0-0.921,0.273-1.683,0.82-2.286c0.547-0.604,1.235-0.906,2.064-0.906c0.779,0,1.438,0.272,1.976,0.816
			C60.285,245.983,60.554,246.723,60.554,247.657z M55.687,247.117h4.074c-0.237-1.226-0.9-1.839-1.989-1.839
			c-0.515,0-0.96,0.16-1.336,0.482C56.06,246.081,55.81,246.534,55.687,247.117z"/>
	</g>
	<rect x="10.316" y="53.043" fill-rule="evenodd" clip-rule="evenodd" fill="#AAC46C" width="698.826" height="84.11"/>
	
		<rect x="10.316" y="53.043" fill="none" stroke="#839950" stroke-width="2" stroke-linejoin="round" stroke-miterlimit="10" width="698.826" height="84.11"/>
	<g>
		<path fill="#FFFFFF" d="M276.425,87.764v17.735h-1.257v-0.914c-1.066,0.762-2.217,1.143-3.453,1.143
			c-1.659,0-3.058-0.586-4.196-1.758c-1.138-1.173-1.708-2.613-1.708-4.323c0-1.735,0.561-3.178,1.682-4.329
			s2.528-1.727,4.221-1.727c1.075,0,2.226,0.313,3.453,0.939v-6.767H276.425z M275.168,103.442v-7.541
			c-1.117-0.728-2.251-1.092-3.402-1.092c-1.346,0-2.455,0.446-3.326,1.34c-0.872,0.893-1.308,2.033-1.308,3.421
			c0,1.413,0.465,2.59,1.396,3.529s2.095,1.409,3.491,1.409C273.103,104.509,274.152,104.153,275.168,103.442z"/>
		<path fill="#FFFFFF" d="M288.942,103.468v1.041c-1.075,0.812-1.862,1.219-2.361,1.219c-0.288,0-0.487-0.096-0.597-0.285
			c-0.11-0.191-0.19-0.578-0.241-1.162c-1.227,0.965-2.446,1.447-3.656,1.447c-0.88,0-1.625-0.288-2.234-0.863
			s-0.914-1.273-0.914-2.095c0-1.27,0.588-2.271,1.765-3.003c1.176-0.731,2.856-1.152,5.04-1.263v-1.485
			c0-1.591-0.863-2.387-2.59-2.387c-1.1,0-2.29,0.495-3.567,1.485v-1.282c1.32-0.829,2.577-1.244,3.771-1.244
			c1.058,0,1.93,0.26,2.615,0.781c0.686,0.52,1.028,1.275,1.028,2.266v7.274c0,0.397,0.093,0.597,0.279,0.597
			C287.516,104.509,288.071,104.162,288.942,103.468z M285.743,103.188v-3.644c-1.6-0.06-2.926,0.222-3.98,0.845
			c-1.054,0.621-1.581,1.415-1.581,2.38c0,0.542,0.22,0.999,0.66,1.371s0.99,0.559,1.65,0.559
			C283.56,104.699,284.643,104.195,285.743,103.188z"/>
		<path fill="#FFFFFF" d="M292.992,89.947v3.872h3.275v1.016h-3.275v6.944c0,1.117,0.091,1.852,0.273,2.202
			c0.182,0.352,0.671,0.527,1.466,0.527c0.609,0,1.32-0.19,2.133-0.571v1.193c-0.821,0.397-1.625,0.597-2.412,0.597
			c-0.77,0-1.414-0.22-1.93-0.66s-0.774-1.05-0.774-1.828v-8.404H288.6v-1.016h3.148v-2.78l0.851-1.092H292.992z"/>
		<path fill="#FFFFFF" d="M307.884,103.468v1.041c-1.075,0.812-1.862,1.219-2.361,1.219c-0.288,0-0.487-0.096-0.597-0.285
			c-0.11-0.191-0.19-0.578-0.241-1.162c-1.227,0.965-2.446,1.447-3.656,1.447c-0.88,0-1.625-0.288-2.234-0.863
			s-0.914-1.273-0.914-2.095c0-1.27,0.588-2.271,1.765-3.003c1.176-0.731,2.856-1.152,5.04-1.263v-1.485
			c0-1.591-0.863-2.387-2.59-2.387c-1.1,0-2.29,0.495-3.567,1.485v-1.282c1.32-0.829,2.577-1.244,3.771-1.244
			c1.058,0,1.93,0.26,2.615,0.781c0.686,0.52,1.028,1.275,1.028,2.266v7.274c0,0.397,0.093,0.597,0.279,0.597
			C306.458,104.509,307.012,104.162,307.884,103.468z M304.685,103.188v-3.644c-1.6-0.06-2.926,0.222-3.98,0.845
			c-1.054,0.621-1.581,1.415-1.581,2.38c0,0.542,0.22,0.999,0.66,1.371s0.99,0.559,1.65,0.559
			C302.501,104.699,303.584,104.195,304.685,103.188z"/>
		<path fill="#FFFFFF" d="M319.716,87.764v17.735h-1.257v-0.914c-1.066,0.762-2.217,1.143-3.453,1.143
			c-1.659,0-3.058-0.586-4.196-1.758c-1.138-1.173-1.708-2.613-1.708-4.323c0-1.735,0.561-3.178,1.682-4.329
			s2.528-1.727,4.221-1.727c1.075,0,2.226,0.313,3.453,0.939v-6.767H319.716z M318.459,103.442v-7.541
			c-1.117-0.728-2.251-1.092-3.402-1.092c-1.346,0-2.455,0.446-3.326,1.34c-0.872,0.893-1.308,2.033-1.308,3.421
			c0,1.413,0.465,2.59,1.396,3.529s2.095,1.409,3.491,1.409C316.394,104.509,317.443,104.153,318.459,103.442z"/>
		<path fill="#FFFFFF" d="M330.989,94.975l-0.724,1.168c-0.973-0.889-1.756-1.333-2.349-1.333c-1.168,0-2.417,1.117-3.745,3.352
			v7.338h-1.244v-11.68h1.244v3.072h0.051c1.396-2.2,2.759-3.301,4.088-3.301C329.072,93.591,329.965,94.052,330.989,94.975z"/>
		<path fill="#FFFFFF" d="M342.969,87.535h1.198l-5.695,18.192h-1.224L342.969,87.535z"/>
		<path fill="#FFFFFF" d="M355.593,89.947v3.872h3.275v1.016h-3.275v6.944c0,1.117,0.091,1.852,0.273,2.202
			c0.182,0.352,0.671,0.527,1.466,0.527c0.609,0,1.32-0.19,2.133-0.571v1.193c-0.821,0.397-1.625,0.597-2.412,0.597
			c-0.77,0-1.414-0.22-1.93-0.66s-0.774-1.05-0.774-1.828v-8.404H351.2v-1.016h3.148v-2.78l0.851-1.092H355.593z"/>
		<path fill="#FFFFFF" d="M369.24,94.975l-0.724,1.168c-0.974-0.889-1.757-1.333-2.349-1.333c-1.168,0-2.416,1.117-3.745,3.352
			v7.338h-1.244v-11.68h1.244v3.072h0.051c1.396-2.2,2.759-3.301,4.088-3.301C367.323,93.591,368.217,94.052,369.24,94.975z"/>
		<path fill="#FFFFFF" d="M379.764,99.228h-9.203c-0.025,0.203-0.038,0.406-0.038,0.609c0,1.304,0.466,2.408,1.396,3.313
			s2.031,1.358,3.301,1.358c1.481,0,2.929-0.58,4.341-1.739v1.409c-1.336,1.032-2.834,1.549-4.493,1.549
			c-1.685,0-3.077-0.584-4.177-1.752s-1.65-2.653-1.65-4.456c0-1.71,0.508-3.125,1.523-4.247c1.016-1.121,2.293-1.682,3.834-1.682
			c1.447,0,2.67,0.506,3.668,1.518C379.266,96.119,379.764,97.492,379.764,99.228z M370.726,98.225h7.565
			c-0.439-2.276-1.67-3.415-3.693-3.415c-0.957,0-1.783,0.299-2.482,0.895C371.418,96.302,370.954,97.142,370.726,98.225z"/>
		<path fill="#FFFFFF" d="M383.725,87.764v17.735h-1.256V87.764H383.725z"/>
		<path fill="#FFFFFF" d="M388.613,87.764v17.735h-1.256V87.764H388.613z"/>
		<path fill="#FFFFFF" d="M393.5,87.764v2.133h-1.256v-2.133H393.5z M393.5,93.819v11.68h-1.256v-11.68H393.5z"/>
		<path fill="#FFFFFF" d="M403.354,94.581v1.346c-1.186-0.796-2.252-1.193-3.199-1.193c-0.703,0-1.295,0.19-1.777,0.569
			c-0.482,0.38-0.725,0.849-0.725,1.405c0,0.396,0.146,0.762,0.441,1.096c0.293,0.333,1.102,0.755,2.424,1.267
			c1.322,0.511,2.188,1.042,2.594,1.592s0.609,1.164,0.609,1.841c0,0.905-0.367,1.67-1.104,2.291
			c-0.736,0.623-1.646,0.934-2.73,0.934c-1.176,0-2.344-0.355-3.504-1.066v-1.219c1.381,0.711,2.604,1.066,3.67,1.066
			c0.719,0,1.309-0.19,1.77-0.571c0.463-0.38,0.693-0.866,0.693-1.459c0-0.406-0.15-0.78-0.451-1.123
			c-0.301-0.342-1.113-0.776-2.438-1.302s-2.184-1.044-2.578-1.557c-0.393-0.512-0.59-1.081-0.59-1.707
			c0-0.889,0.367-1.645,1.098-2.266c0.732-0.623,1.623-0.934,2.674-0.934C401.186,93.591,402.227,93.921,403.354,94.581z"/>
		<path fill="#FFFFFF" d="M414.371,94.162v1.384c-1.117-0.491-2.129-0.736-3.033-0.736c-1.305,0-2.363,0.453-3.182,1.358
			c-0.816,0.905-1.225,2.082-1.225,3.529c0,1.473,0.408,2.643,1.225,3.511c0.818,0.867,1.912,1.301,3.283,1.301
			c0.998,0,2.047-0.225,3.148-0.673v1.295c-1.168,0.397-2.252,0.597-3.25,0.597c-1.711,0-3.092-0.542-4.146-1.625
			c-1.053-1.083-1.58-2.505-1.58-4.266c0-1.837,0.531-3.337,1.594-4.5c1.062-1.164,2.418-1.746,4.068-1.746
			C412.18,93.591,413.213,93.781,414.371,94.162z"/>
		<path fill="#FFFFFF" d="M422.408,93.591c1.691,0,3.104,0.58,4.232,1.739c1.131,1.159,1.695,2.606,1.695,4.342
			c0,1.727-0.564,3.167-1.695,4.323c-1.129,1.154-2.541,1.732-4.232,1.732c-1.693,0-3.109-0.578-4.248-1.732
			c-1.137-1.156-1.707-2.597-1.707-4.323c0-1.735,0.57-3.183,1.707-4.342C419.299,94.171,420.715,93.591,422.408,93.591z
			 M422.408,104.509c1.311,0,2.408-0.459,3.287-1.377c0.881-0.919,1.32-2.072,1.32-3.46c0-1.38-0.441-2.535-1.326-3.466
			s-1.979-1.396-3.281-1.396c-1.32,0-2.424,0.461-3.309,1.384c-0.883,0.923-1.326,2.082-1.326,3.479c0,1.388,0.443,2.541,1.326,3.46
			C419.984,104.05,421.088,104.509,422.408,104.509z"/>
		<path fill="#FFFFFF" d="M432.336,93.819v0.66c1.176-0.593,2.348-0.889,3.516-0.889c1.66,0,3.035,0.571,4.127,1.714
			s1.637,2.581,1.637,4.316c0,1.71-0.562,3.155-1.688,4.335c-1.127,1.182-2.502,1.771-4.127,1.771c-1.125,0-2.281-0.292-3.465-0.876
			v6.627h-1.244V93.819H432.336z M432.336,95.673v7.96c1.057,0.584,2.133,0.876,3.225,0.876c1.396,0,2.525-0.44,3.389-1.32
			s1.295-2.035,1.295-3.466c0-1.422-0.457-2.597-1.371-3.522c-0.914-0.928-2.068-1.391-3.465-1.391
			C434.408,94.81,433.385,95.098,432.336,95.673z"/>
		<path fill="#FFFFFF" d="M454.273,99.228h-9.205c-0.025,0.203-0.037,0.406-0.037,0.609c0,1.304,0.465,2.408,1.396,3.313
			c0.93,0.905,2.031,1.358,3.301,1.358c1.48,0,2.928-0.58,4.342-1.739v1.409c-1.338,1.032-2.836,1.549-4.494,1.549
			c-1.686,0-3.076-0.584-4.178-1.752c-1.1-1.168-1.65-2.653-1.65-4.456c0-1.71,0.508-3.125,1.523-4.247
			c1.016-1.121,2.295-1.682,3.834-1.682c1.447,0,2.67,0.506,3.67,1.518C453.773,96.119,454.273,97.492,454.273,99.228z
			 M445.234,98.225h7.566c-0.441-2.276-1.672-3.415-3.695-3.415c-0.955,0-1.783,0.299-2.482,0.895
			C445.926,96.302,445.463,97.142,445.234,98.225z"/>
	</g>
	
		<rect x="11.316" y="54.043" opacity="0.5412" fill-rule="evenodd" clip-rule="evenodd" fill="#E0E0E0" width="62.252" height="24.234"/>
	<g>
		<path d="M20.348,62.094v9.55H19.61v-9.55H20.348z"/>
		<path d="M22.966,65.354v1.094h0.027c0.524-0.812,1.214-1.217,2.071-1.217c0.711,0,1.278,0.228,1.702,0.684
			s0.636,1.087,0.636,1.894v3.835h-0.67v-3.582c0-1.449-0.57-2.174-1.709-2.174c-0.834,0-1.52,0.449-2.058,1.347v4.409h-0.67v-6.289
			H22.966z"/>
		<path d="M30.39,63.27v2.085h1.764v0.547H30.39v3.739c0,0.602,0.049,0.997,0.147,1.187c0.098,0.188,0.361,0.283,0.79,0.283
			c0.328,0,0.711-0.103,1.148-0.308v0.643c-0.442,0.214-0.875,0.321-1.299,0.321c-0.415,0-0.761-0.118-1.039-0.355
			s-0.417-0.565-0.417-0.984v-4.525h-1.695v-0.547h1.695v-1.497l0.458-0.588H30.39z"/>
		<path d="M38.744,68.267h-4.956c-0.014,0.109-0.021,0.219-0.021,0.328c0,0.702,0.25,1.297,0.752,1.784s1.094,0.731,1.777,0.731
			c0.797,0,1.577-0.312,2.338-0.937v0.759c-0.72,0.556-1.527,0.834-2.42,0.834c-0.907,0-1.657-0.314-2.249-0.943
			s-0.889-1.429-0.889-2.399c0-0.921,0.273-1.683,0.82-2.286c0.547-0.604,1.235-0.906,2.064-0.906c0.779,0,1.438,0.272,1.976,0.816
			C38.475,66.593,38.744,67.332,38.744,68.267z M33.876,67.727h4.074c-0.237-1.226-0.9-1.839-1.989-1.839
			c-0.515,0-0.96,0.16-1.336,0.482C34.249,66.69,34,67.144,33.876,67.727z"/>
		<path d="M44.445,65.977l-0.39,0.629c-0.524-0.479-0.946-0.718-1.265-0.718c-0.629,0-1.301,0.602-2.017,1.805v3.951h-0.67v-6.289
			h0.67v1.654h0.027c0.752-1.185,1.486-1.777,2.201-1.777C43.413,65.231,43.894,65.479,44.445,65.977z"/>
		<path d="M48.533,62.237v0.629c-0.451-0.159-0.83-0.239-1.135-0.239c-1.016,0-1.524,0.649-1.524,1.948v0.779h1.217v0.547h-1.217
			v5.742h-0.67v-5.742h-1.162v-0.547h1.162v-1.032c0-0.725,0.211-1.298,0.632-1.72c0.421-0.421,0.938-0.632,1.548-0.632
			C47.717,61.971,48.1,62.06,48.533,62.237z"/>
		<path d="M53.14,70.55v0.561c-0.579,0.438-1.002,0.656-1.271,0.656c-0.155,0-0.262-0.051-0.321-0.154
			c-0.059-0.102-0.103-0.311-0.13-0.625c-0.661,0.52-1.317,0.779-1.969,0.779c-0.474,0-0.875-0.155-1.203-0.465
			s-0.492-0.686-0.492-1.128c0-0.684,0.317-1.223,0.95-1.616c0.633-0.395,1.538-0.621,2.714-0.681v-0.8
			c0-0.856-0.465-1.285-1.395-1.285c-0.592,0-1.233,0.267-1.921,0.8v-0.69c0.711-0.446,1.388-0.67,2.03-0.67
			c0.57,0,1.039,0.141,1.408,0.42c0.369,0.281,0.554,0.688,0.554,1.221v3.917c0,0.214,0.05,0.321,0.15,0.321
			C52.372,71.11,52.671,70.924,53.14,70.55z M51.417,70.399v-1.962c-0.861-0.032-1.576,0.12-2.143,0.454
			c-0.567,0.336-0.851,0.763-0.851,1.282c0,0.292,0.119,0.538,0.355,0.738s0.533,0.301,0.889,0.301
			C50.242,71.213,50.825,70.941,51.417,70.399z"/>
		<path d="M58.527,65.539v0.745c-0.602-0.265-1.146-0.396-1.634-0.396c-0.702,0-1.272,0.244-1.712,0.731s-0.66,1.121-0.66,1.9
			c0,0.793,0.22,1.423,0.66,1.89c0.44,0.468,1.029,0.701,1.767,0.701c0.538,0,1.103-0.121,1.695-0.362v0.697
			c-0.629,0.214-1.212,0.321-1.75,0.321c-0.92,0-1.665-0.292-2.232-0.875s-0.851-1.349-0.851-2.297c0-0.989,0.286-1.797,0.858-2.424
			c0.572-0.626,1.302-0.939,2.191-0.939C57.347,65.231,57.902,65.334,58.527,65.539z"/>
		<path d="M65.288,68.267h-4.956c-0.014,0.109-0.021,0.219-0.021,0.328c0,0.702,0.25,1.297,0.752,1.784s1.094,0.731,1.777,0.731
			c0.797,0,1.577-0.312,2.338-0.937v0.759c-0.72,0.556-1.527,0.834-2.42,0.834c-0.907,0-1.657-0.314-2.249-0.943
			s-0.889-1.429-0.889-2.399c0-0.921,0.273-1.683,0.82-2.286c0.547-0.604,1.235-0.906,2.064-0.906c0.779,0,1.438,0.272,1.976,0.816
			C65.019,66.593,65.288,67.332,65.288,68.267z M60.42,67.727h4.074c-0.237-1.226-0.9-1.839-1.989-1.839
			c-0.515,0-0.96,0.16-1.336,0.482C60.793,66.69,60.543,67.144,60.42,67.727z"/>
	</g>
	<g>
		<path d="M201.312,9.698v24.557h-1.898V9.698H201.312z"/>
		<path d="M207.974,18.083v2.848h0.07c1.312-2.109,3.029-3.164,5.15-3.164c2.473,0,4.213,1.295,5.221,3.885
			c1.521-2.59,3.393-3.885,5.616-3.885c1.673,0,3.024,0.598,4.054,1.793c1.029,1.195,1.544,2.783,1.544,4.764v9.932h-1.723v-9.176
			c0-1.746-0.369-3.12-1.105-4.122s-1.772-1.503-3.105-1.503c-0.994,0-1.86,0.299-2.597,0.896s-1.497,1.559-2.281,2.883v11.021
			h-1.74v-9.211c0-1.793-0.384-3.173-1.151-4.14s-1.796-1.45-3.085-1.45c-1.875,0-3.498,1.154-4.869,3.463v11.338h-1.723V18.083
			H207.974z"/>
		<path d="M235.835,18.083v0.914c1.629-0.82,3.252-1.23,4.869-1.23c2.297,0,4.201,0.791,5.713,2.373s2.268,3.574,2.268,5.977
			c0,2.367-0.779,4.368-2.338,6.003s-3.463,2.452-5.713,2.452c-1.559,0-3.158-0.404-4.799-1.213v9.176h-1.723V18.083H235.835z
			 M235.835,20.649v11.021c1.465,0.809,2.953,1.213,4.465,1.213c1.934,0,3.498-0.609,4.693-1.828s1.793-2.818,1.793-4.799
			c0-1.969-0.633-3.595-1.898-4.878s-2.865-1.925-4.799-1.925C238.706,19.454,237.288,19.853,235.835,20.649z"/>
		<path d="M254.45,9.698v24.557h-1.74V9.698H254.45z"/>
		<path d="M272.978,25.571h-12.744c-0.035,0.281-0.053,0.562-0.053,0.844c0,1.805,0.645,3.334,1.934,4.588s2.812,1.881,4.57,1.881
			c2.051,0,4.055-0.803,6.012-2.408v1.951c-1.852,1.43-3.926,2.145-6.223,2.145c-2.332,0-4.26-0.809-5.783-2.426
			s-2.285-3.674-2.285-6.17c0-2.367,0.703-4.327,2.109-5.88s3.176-2.329,5.309-2.329c2.004,0,3.697,0.7,5.08,2.101
			S272.978,23.169,272.978,25.571z M260.462,24.183h10.477c-0.609-3.152-2.314-4.729-5.115-4.729c-1.324,0-2.47,0.413-3.437,1.239
			S260.778,22.683,260.462,24.183z"/>
		<path d="M278.093,18.083v2.848h0.07c1.312-2.109,3.029-3.164,5.15-3.164c2.473,0,4.213,1.295,5.221,3.885
			c1.521-2.59,3.393-3.885,5.616-3.885c1.673,0,3.024,0.598,4.054,1.793c1.029,1.195,1.544,2.783,1.544,4.764v9.932h-1.723v-9.176
			c0-1.746-0.369-3.12-1.105-4.122s-1.772-1.503-3.105-1.503c-0.994,0-1.86,0.299-2.597,0.896s-1.497,1.559-2.281,2.883v11.021
			h-1.74v-9.211c0-1.793-0.384-3.173-1.151-4.14s-1.796-1.45-3.085-1.45c-1.875,0-3.498,1.154-4.869,3.463v11.338h-1.723V18.083
			H278.093z"/>
		<path d="M317.978,25.571h-12.744c-0.035,0.281-0.053,0.562-0.053,0.844c0,1.805,0.645,3.334,1.934,4.588s2.812,1.881,4.57,1.881
			c2.051,0,4.055-0.803,6.012-2.408v1.951c-1.852,1.43-3.926,2.145-6.223,2.145c-2.332,0-4.26-0.809-5.783-2.426
			s-2.285-3.674-2.285-6.17c0-2.367,0.703-4.327,2.109-5.88s3.176-2.329,5.309-2.329c2.004,0,3.697,0.7,5.08,2.101
			S317.978,23.169,317.978,25.571z M305.462,24.183h10.477c-0.609-3.152-2.314-4.729-5.115-4.729c-1.324,0-2.47,0.413-3.437,1.239
			S305.778,22.683,305.462,24.183z"/>
		<path d="M323.163,18.083v2.812h0.07c1.348-2.086,3.123-3.129,5.326-3.129c1.828,0,3.287,0.586,4.377,1.758
			s1.635,2.795,1.635,4.869v9.861h-1.723v-9.211c0-3.727-1.465-5.59-4.395-5.59c-2.145,0-3.908,1.154-5.291,3.463v11.338h-1.723
			V18.083H323.163z"/>
		<path d="M342.253,12.722v5.361h4.535v1.406h-4.535v9.615c0,1.547,0.126,2.563,0.378,3.05s0.929,0.729,2.03,0.729
			c0.844,0,1.828-0.264,2.953-0.791v1.652c-1.137,0.551-2.25,0.826-3.34,0.826c-1.066,0-1.957-0.305-2.672-0.914
			s-1.072-1.453-1.072-2.531V19.489h-4.359v-1.406h4.359v-3.85l1.178-1.512H342.253z"/>
		<path d="M363.733,25.571h-12.744c-0.035,0.281-0.053,0.562-0.053,0.844c0,1.805,0.645,3.334,1.934,4.588s2.812,1.881,4.57,1.881
			c2.051,0,4.055-0.803,6.012-2.408v1.951c-1.852,1.43-3.926,2.145-6.223,2.145c-2.332,0-4.26-0.809-5.783-2.426
			s-2.285-3.674-2.285-6.17c0-2.367,0.703-4.327,2.109-5.88s3.176-2.329,5.309-2.329c2.004,0,3.697,0.7,5.08,2.101
			S363.733,23.169,363.733,25.571z M351.218,24.183h10.477c-0.609-3.152-2.314-4.729-5.115-4.729c-1.324,0-2.47,0.413-3.437,1.239
			S351.534,22.683,351.218,24.183z"/>
		<path d="M381.136,9.698v24.557h-1.74v-1.266c-1.477,1.055-3.07,1.582-4.781,1.582c-2.297,0-4.233-0.812-5.81-2.435
			s-2.364-3.618-2.364-5.985c0-2.402,0.776-4.4,2.329-5.994s3.501-2.391,5.845-2.391c1.488,0,3.082,0.434,4.781,1.301V9.698H381.136
			z M379.396,31.407V20.966c-1.547-1.008-3.117-1.512-4.711-1.512c-1.863,0-3.398,0.618-4.605,1.854s-1.811,2.815-1.811,4.737
			c0,1.957,0.645,3.586,1.934,4.887s2.9,1.951,4.834,1.951C376.536,32.884,377.989,32.392,379.396,31.407z"/>
		<path d="M396.2,9.698h5.115c2.684,0,4.717,0.562,6.1,1.688s2.074,2.678,2.074,4.658c0,2.367-1.178,4.189-3.533,5.467
			c3.785,0.82,5.678,2.895,5.678,6.223c0,1.992-0.741,3.577-2.224,4.755s-3.489,1.767-6.021,1.767H396.2V9.698z M398.099,11.28
			v9.791h2.637c4.465,0,6.697-1.629,6.697-4.887c0-3.27-2.256-4.904-6.768-4.904H398.099z M398.099,22.671v10.002h5.08
			c2.098,0,3.691-0.451,4.781-1.354s1.635-2.109,1.635-3.621c0-3.352-2.414-5.027-7.242-5.027H398.099z"/>
		<path d="M427.577,31.442v1.441c-1.488,1.125-2.578,1.688-3.27,1.688c-0.398,0-0.674-0.132-0.826-0.396s-0.264-0.8-0.334-1.608
			c-1.699,1.336-3.387,2.004-5.062,2.004c-1.219,0-2.25-0.398-3.094-1.195s-1.266-1.764-1.266-2.9c0-1.758,0.814-3.144,2.443-4.157
			s3.955-1.597,6.979-1.749v-2.057c0-2.203-1.195-3.305-3.586-3.305c-1.523,0-3.17,0.686-4.939,2.057v-1.775
			c1.828-1.148,3.568-1.723,5.221-1.723c1.465,0,2.672,0.36,3.621,1.081s1.424,1.767,1.424,3.138v10.072
			c0,0.551,0.129,0.826,0.387,0.826C425.603,32.884,426.37,32.403,427.577,31.442z M423.147,31.056v-5.045
			c-2.215-0.082-4.052,0.308-5.511,1.169s-2.188,1.96-2.188,3.296c0,0.75,0.305,1.383,0.914,1.898s1.371,0.773,2.285,0.773
			C420.124,33.147,421.624,32.45,423.147,31.056z"/>
		<path d="M441.429,18.558v1.916c-1.547-0.68-2.947-1.02-4.201-1.02c-1.805,0-3.272,0.627-4.403,1.881s-1.696,2.883-1.696,4.887
			c0,2.039,0.565,3.659,1.696,4.86s2.646,1.802,4.544,1.802c1.383,0,2.836-0.311,4.359-0.932v1.793
			c-1.617,0.551-3.117,0.826-4.5,0.826c-2.367,0-4.28-0.75-5.739-2.25s-2.188-3.469-2.188-5.906c0-2.543,0.735-4.62,2.206-6.231
			s3.349-2.417,5.634-2.417C438.394,17.767,439.823,18.03,441.429,18.558z"/>
		<path d="M446.649,9.698v24.557h-1.723V9.698H446.649z M458.093,18.083l-8.844,7.674l10.215,8.498h-2.362l-10.206-8.49l8.933-7.682
			H458.093z"/>
		<path d="M473.853,25.571h-12.744c-0.035,0.281-0.053,0.562-0.053,0.844c0,1.805,0.645,3.334,1.934,4.588s2.812,1.881,4.57,1.881
			c2.051,0,4.055-0.803,6.012-2.408v1.951c-1.852,1.43-3.926,2.145-6.223,2.145c-2.332,0-4.26-0.809-5.783-2.426
			s-2.285-3.674-2.285-6.17c0-2.367,0.703-4.327,2.109-5.88s3.176-2.329,5.309-2.329c2.004,0,3.697,0.7,5.08,2.101
			S473.853,23.169,473.853,25.571z M461.337,24.183h10.477c-0.609-3.152-2.314-4.729-5.115-4.729c-1.324,0-2.47,0.413-3.437,1.239
			S461.653,22.683,461.337,24.183z"/>
		<path d="M479.038,18.083v2.812h0.07c1.348-2.086,3.123-3.129,5.326-3.129c1.828,0,3.287,0.586,4.377,1.758
			s1.635,2.795,1.635,4.869v9.861h-1.723v-9.211c0-3.727-1.465-5.59-4.395-5.59c-2.145,0-3.908,1.154-5.291,3.463v11.338h-1.723
			V18.083H479.038z"/>
		<path d="M508.903,9.698v24.557h-1.74v-1.266c-1.477,1.055-3.07,1.582-4.781,1.582c-2.297,0-4.233-0.812-5.81-2.435
			s-2.364-3.618-2.364-5.985c0-2.402,0.776-4.4,2.329-5.994s3.501-2.391,5.845-2.391c1.488,0,3.082,0.434,4.781,1.301V9.698H508.903
			z M507.163,31.407V20.966c-1.547-1.008-3.117-1.512-4.711-1.512c-1.863,0-3.398,0.618-4.605,1.854s-1.811,2.815-1.811,4.737
			c0,1.957,0.645,3.586,1.934,4.887s2.9,1.951,4.834,1.951C504.304,32.884,505.757,32.392,507.163,31.407z"/>
		<path d="M522.21,19.138v1.863c-1.641-1.102-3.117-1.652-4.43-1.652c-0.973,0-1.793,0.263-2.461,0.789
			c-0.668,0.525-1.002,1.174-1.002,1.945c0,0.549,0.203,1.055,0.609,1.517c0.406,0.461,1.525,1.046,3.357,1.754
			s3.029,1.442,3.592,2.204s0.844,1.611,0.844,2.549c0,1.254-0.51,2.312-1.529,3.173s-2.279,1.292-3.779,1.292
			c-1.629,0-3.246-0.492-4.852-1.477v-1.688c1.91,0.984,3.604,1.477,5.08,1.477c0.996,0,1.813-0.264,2.452-0.79
			c0.639-0.527,0.958-1.201,0.958-2.021c0-0.562-0.208-1.081-0.625-1.555c-0.416-0.475-1.541-1.076-3.375-1.804
			c-1.833-0.727-3.022-1.445-3.567-2.154s-0.817-1.497-0.817-2.364c0-1.23,0.507-2.276,1.521-3.138s2.247-1.292,3.7-1.292
			C519.21,17.767,520.651,18.224,522.21,19.138z"/>
	</g>
</g>
</svg>
