<?xml version="1.0" encoding="utf-8"?>
<!-- Generator: Adobe Illustrator 16.0.4, SVG Export Plug-In . SVG Version: 6.00 Build 0)  -->
<!DOCTYPE svg PUBLIC "-//W3C//DTD SVG 1.1//EN" "http://www.w3.org/Graphics/SVG/1.1/DTD/svg11.dtd">
<svg version="1.1" id="Layer_1" xmlns="http://www.w3.org/2000/svg" xmlns:xlink="http://www.w3.org/1999/xlink" x="0px" y="0px"
	 width="411em" height="343em" viewBox="0 0 411 343" enable-background="new 0 0 411 343" xml:space="preserve">
<g>
	<rect x="38.471" y="7.706" fill-rule="evenodd" clip-rule="evenodd" fill="#CBCBCB" width="111.176" height="35.882"/>
	
		<rect x="38.471" y="7.706" fill="none" stroke="#919191" stroke-width="1" stroke-linejoin="round" stroke-miterlimit="10" width="111.176" height="35.882"/>
	<g>
		<path d="M76.913,20.005v13.643h-1.055V20.005H76.913z"/>
		<path d="M80.653,24.663v1.562h0.039c0.749-1.159,1.735-1.738,2.959-1.738c1.016,0,1.826,0.325,2.432,0.977
			s0.908,1.553,0.908,2.705v5.479h-0.957V28.53c0-2.07-0.814-3.105-2.441-3.105c-1.191,0-2.171,0.642-2.939,1.924v6.299h-0.957
			v-8.984H80.653z"/>
		<path d="M90.477,24.663v0.508c0.905-0.456,1.807-0.684,2.705-0.684c1.276,0,2.334,0.439,3.174,1.318s1.26,1.985,1.26,3.32
			c0,1.315-0.433,2.427-1.299,3.335s-1.924,1.362-3.174,1.362c-0.866,0-1.754-0.225-2.666-0.674v5.098H89.52V24.663H90.477z
			 M90.477,26.089v6.123c0.814,0.449,1.641,0.674,2.48,0.674c1.074,0,1.943-0.339,2.607-1.016s0.996-1.565,0.996-2.666
			c0-1.094-0.352-1.997-1.055-2.71s-1.592-1.069-2.666-1.069C92.072,25.425,91.284,25.646,90.477,26.089z"/>
		<path d="M106.034,33.647v-1.484h-0.039c-0.417,0.599-0.845,1.025-1.284,1.279s-0.998,0.381-1.675,0.381
			c-0.963,0-1.761-0.312-2.393-0.938s-0.947-1.511-0.947-2.656v-5.566h0.957v5.547c0,0.833,0.228,1.487,0.684,1.963
			s1.048,0.713,1.777,0.713c0.625,0,1.157-0.144,1.597-0.43s0.88-0.781,1.323-1.484v-6.309h0.957v8.984H106.034z"/>
		<path d="M111.258,21.685v2.979h2.52v0.781h-2.52v5.342c0,0.859,0.07,1.424,0.21,1.694s0.516,0.405,1.128,0.405
			c0.469,0,1.016-0.146,1.641-0.439v0.918c-0.631,0.306-1.25,0.459-1.855,0.459c-0.592,0-1.087-0.169-1.484-0.508
			s-0.596-0.808-0.596-1.406v-6.465h-2.422v-0.781h2.422v-2.139l0.654-0.84H111.258z"/>
	</g>
	<rect x="149.647" y="7.706" fill-rule="evenodd" clip-rule="evenodd" fill="#CBCBCB" width="111.176" height="35.882"/>
	
		<rect x="149.647" y="7.706" fill="none" stroke="#919191" stroke-width="1" stroke-linejoin="round" stroke-miterlimit="10" width="111.176" height="35.882"/>
	<g>
		<path d="M188.089,20.005v13.643h-1.055V20.005H188.089z"/>
		<path d="M191.83,24.663v1.562h0.039c0.749-1.159,1.735-1.738,2.959-1.738c1.016,0,1.826,0.325,2.432,0.977
			s0.908,1.553,0.908,2.705v5.479h-0.957V28.53c0-2.07-0.814-3.105-2.441-3.105c-1.191,0-2.171,0.642-2.939,1.924v6.299h-0.957
			v-8.984H191.83z"/>
		<path d="M201.654,24.663v0.508c0.905-0.456,1.807-0.684,2.705-0.684c1.276,0,2.334,0.439,3.174,1.318s1.26,1.985,1.26,3.32
			c0,1.315-0.433,2.427-1.299,3.335s-1.924,1.362-3.174,1.362c-0.866,0-1.754-0.225-2.666-0.674v5.098h-0.957V24.663H201.654z
			 M201.654,26.089v6.123c0.814,0.449,1.641,0.674,2.48,0.674c1.074,0,1.943-0.339,2.607-1.016s0.996-1.565,0.996-2.666
			c0-1.094-0.352-1.997-1.055-2.71s-1.592-1.069-2.666-1.069C203.249,25.425,202.461,25.646,201.654,26.089z"/>
		<path d="M217.21,33.647v-1.484h-0.039c-0.417,0.599-0.845,1.025-1.284,1.279s-0.998,0.381-1.675,0.381
			c-0.963,0-1.761-0.312-2.393-0.938s-0.947-1.511-0.947-2.656v-5.566h0.957v5.547c0,0.833,0.228,1.487,0.684,1.963
			s1.048,0.713,1.777,0.713c0.625,0,1.157-0.144,1.597-0.43s0.88-0.781,1.323-1.484v-6.309h0.957v8.984H217.21z"/>
		<path d="M222.435,21.685v2.979h2.52v0.781h-2.52v5.342c0,0.859,0.07,1.424,0.21,1.694s0.516,0.405,1.128,0.405
			c0.469,0,1.016-0.146,1.641-0.439v0.918c-0.631,0.306-1.25,0.459-1.855,0.459c-0.592,0-1.087-0.169-1.484-0.508
			s-0.596-0.808-0.596-1.406v-6.465h-2.422v-0.781h2.422v-2.139l0.654-0.84H222.435z"/>
	</g>
	<rect x="260.823" y="7.706" fill-rule="evenodd" clip-rule="evenodd" fill="#CBCBCB" width="111.177" height="35.882"/>
	
		<rect x="260.823" y="7.706" fill="none" stroke="#919191" stroke-width="1" stroke-linejoin="round" stroke-miterlimit="10" width="111.177" height="35.882"/>
	<g>
		<path d="M299.266,20.005v13.643h-1.055V20.005H299.266z"/>
		<path d="M303.006,24.663v1.562h0.039c0.748-1.159,1.734-1.738,2.959-1.738c1.016,0,1.826,0.325,2.432,0.977
			s0.908,1.553,0.908,2.705v5.479h-0.957V28.53c0-2.07-0.814-3.105-2.441-3.105c-1.191,0-2.172,0.642-2.939,1.924v6.299h-0.957
			v-8.984H303.006z"/>
		<path d="M312.83,24.663v0.508c0.904-0.456,1.807-0.684,2.705-0.684c1.275,0,2.334,0.439,3.174,1.318s1.26,1.985,1.26,3.32
			c0,1.315-0.434,2.427-1.299,3.335s-1.924,1.362-3.174,1.362c-0.865,0-1.754-0.225-2.666-0.674v5.098h-0.957V24.663H312.83z
			 M312.83,26.089v6.123c0.814,0.449,1.641,0.674,2.48,0.674c1.074,0,1.943-0.339,2.607-1.016s0.996-1.565,0.996-2.666
			c0-1.094-0.352-1.997-1.055-2.71s-1.592-1.069-2.666-1.069C314.426,25.425,313.637,25.646,312.83,26.089z"/>
		<path d="M328.387,33.647v-1.484h-0.039c-0.416,0.599-0.845,1.025-1.284,1.279s-0.997,0.381-1.675,0.381
			c-0.963,0-1.762-0.312-2.393-0.938s-0.947-1.511-0.947-2.656v-5.566h0.957v5.547c0,0.833,0.229,1.487,0.684,1.963
			s1.049,0.713,1.777,0.713c0.625,0,1.157-0.144,1.597-0.43s0.88-0.781,1.323-1.484v-6.309h0.957v8.984H328.387z"/>
		<path d="M333.611,21.685v2.979h2.52v0.781h-2.52v5.342c0,0.859,0.07,1.424,0.21,1.694s0.517,0.405,1.128,0.405
			c0.469,0,1.016-0.146,1.641-0.439v0.918c-0.631,0.306-1.25,0.459-1.855,0.459c-0.592,0-1.088-0.169-1.484-0.508
			s-0.596-0.808-0.596-1.406v-6.465h-2.422v-0.781h2.422v-2.139l0.654-0.84H333.611z"/>
	</g>
	<path fill-rule="evenodd" clip-rule="evenodd" fill="#AAC46C" d="M7.588,86.687c0-3.303,2.677-5.98,5.98-5.98h83.333
		c3.303,0,5.98,2.677,5.98,5.98v23.921c0,3.303-2.678,5.98-5.98,5.98H13.569c-3.303,0-5.98-2.678-5.98-5.98V86.687z"/>
	<path fill="none" stroke="#839950" stroke-width="1" stroke-linejoin="round" stroke-miterlimit="10" d="M7.588,86.687
		c0-3.303,2.677-5.98,5.98-5.98h83.333c3.303,0,5.98,2.677,5.98,5.98v23.921c0,3.303-2.678,5.98-5.98,5.98H13.569
		c-3.303,0-5.98-2.678-5.98-5.98V86.687z"/>
	<g>
		<path fill="#FFFFFF" d="M47.053,99.271l4.665-5.702h0.96v12.278H51.72v-10.89l-4.671,5.739l-4.689-5.739v10.89h-0.949V93.568h0.95
			L47.053,99.271z"/>
		<path fill="#FFFFFF" d="M61.652,104.44v0.721c-0.744,0.562-1.289,0.844-1.635,0.844c-0.199,0-0.337-0.066-0.413-0.197
			c-0.076-0.133-0.132-0.4-0.167-0.805c-0.85,0.668-1.693,1.002-2.531,1.002c-0.609,0-1.125-0.199-1.547-0.598
			s-0.633-0.882-0.633-1.45c0-0.879,0.407-1.571,1.222-2.079c0.814-0.506,1.978-0.798,3.489-0.874v-1.028
			c0-1.102-0.598-1.652-1.793-1.652c-0.762,0-1.585,0.343-2.47,1.028v-0.888c0.914-0.574,1.784-0.861,2.61-0.861
			c0.732,0,1.336,0.18,1.811,0.541c0.475,0.359,0.712,0.883,0.712,1.568v5.036c0,0.275,0.064,0.413,0.193,0.413
			C60.665,105.161,61.048,104.921,61.652,104.44z M59.437,104.247v-2.522c-1.107-0.041-2.026,0.153-2.755,0.585
			c-0.729,0.43-1.094,0.979-1.094,1.647c0,0.375,0.152,0.691,0.457,0.949s0.686,0.387,1.143,0.387
			C57.925,105.293,58.675,104.944,59.437,104.247z"/>
		<path fill="#FFFFFF" d="M63.752,97.761v0.457c0.814-0.41,1.626-0.615,2.435-0.615c1.148,0,2.101,0.396,2.856,1.187
			s1.134,1.787,1.134,2.988c0,1.184-0.39,2.185-1.169,3.001c-0.779,0.818-1.731,1.227-2.856,1.227c-0.779,0-1.579-0.202-2.399-0.606
			v4.588h-0.861V97.761H63.752z M63.752,99.044v5.511c0.732,0.404,1.477,0.606,2.232,0.606c0.967,0,1.749-0.305,2.347-0.914
			s0.896-1.409,0.896-2.399c0-0.984-0.316-1.798-0.949-2.438c-0.633-0.643-1.433-0.963-2.399-0.963
			C65.188,98.446,64.479,98.646,63.752,99.044z"/>
	</g>
	<path fill-rule="evenodd" clip-rule="evenodd" fill="#AAC46C" d="M307.588,86.687c0-3.303,2.678-5.98,5.98-5.98h83.333
		c3.304,0,5.98,2.677,5.98,5.98v23.921c0,3.303-2.677,5.98-5.98,5.98h-83.333c-3.303,0-5.98-2.678-5.98-5.98V86.687z"/>
	<path fill="none" stroke="#839950" stroke-width="1" stroke-linejoin="round" stroke-miterlimit="10" d="M307.588,86.687
		c0-3.303,2.678-5.98,5.98-5.98h83.333c3.304,0,5.98,2.677,5.98,5.98v23.921c0,3.303-2.677,5.98-5.98,5.98h-83.333
		c-3.303,0-5.98-2.678-5.98-5.98V86.687z"/>
	<g>
		<path fill="#FFFFFF" d="M347.053,99.271l4.664-5.702h0.961v12.278h-0.958v-10.89l-4.671,5.739l-4.689-5.739v10.89h-0.949V93.568
			h0.949L347.053,99.271z"/>
		<path fill="#FFFFFF" d="M361.651,104.44v0.721c-0.744,0.562-1.289,0.844-1.635,0.844c-0.199,0-0.337-0.066-0.413-0.197
			c-0.076-0.133-0.132-0.4-0.167-0.805c-0.85,0.668-1.693,1.002-2.531,1.002c-0.609,0-1.125-0.199-1.547-0.598
			s-0.633-0.882-0.633-1.45c0-0.879,0.407-1.571,1.222-2.079c0.814-0.506,1.978-0.798,3.489-0.874v-1.028
			c0-1.102-0.598-1.652-1.793-1.652c-0.762,0-1.585,0.343-2.47,1.028v-0.888c0.914-0.574,1.784-0.861,2.61-0.861
			c0.732,0,1.336,0.18,1.811,0.541c0.475,0.359,0.712,0.883,0.712,1.568v5.036c0,0.275,0.064,0.413,0.193,0.413
			C360.664,105.161,361.048,104.921,361.651,104.44z M359.437,104.247v-2.522c-1.107-0.041-2.026,0.153-2.755,0.585
			c-0.73,0.43-1.095,0.979-1.095,1.647c0,0.375,0.152,0.691,0.457,0.949s0.686,0.387,1.143,0.387
			C357.925,105.293,358.675,104.944,359.437,104.247z"/>
		<path fill="#FFFFFF" d="M363.752,97.761v0.457c0.814-0.41,1.626-0.615,2.435-0.615c1.148,0,2.101,0.396,2.856,1.187
			s1.134,1.787,1.134,2.988c0,1.184-0.39,2.185-1.169,3.001c-0.779,0.818-1.731,1.227-2.856,1.227c-0.779,0-1.579-0.202-2.399-0.606
			v4.588h-0.861V97.761H363.752z M363.752,99.044v5.511c0.732,0.404,1.477,0.606,2.232,0.606c0.967,0,1.749-0.305,2.347-0.914
			s0.896-1.409,0.896-2.399c0-0.984-0.316-1.798-0.949-2.438c-0.633-0.643-1.433-0.963-2.399-0.963
			C365.188,98.446,364.479,98.646,363.752,99.044z"/>
	</g>
	<path fill-rule="evenodd" clip-rule="evenodd" fill="#AAC46C" d="M157.588,86.687c0-3.303,2.678-5.98,5.981-5.98h83.333
		c3.304,0,5.98,2.677,5.98,5.98v23.921c0,3.303-2.677,5.98-5.98,5.98h-83.333c-3.303,0-5.981-2.678-5.981-5.98V86.687z"/>
	<path fill="none" stroke="#839950" stroke-width="1" stroke-linejoin="round" stroke-miterlimit="10" d="M157.588,86.687
		c0-3.303,2.678-5.98,5.981-5.98h83.333c3.303,0,5.98,2.677,5.98,5.98v23.921c0,3.303-2.678,5.98-5.98,5.98h-83.333
		c-3.303,0-5.981-2.678-5.981-5.98V86.687z"/>
	<g>
		<path fill="#FFFFFF" d="M197.053,99.271l4.665-5.702h0.96v12.278h-0.958v-10.89l-4.671,5.739l-4.689-5.739v10.89h-0.949V93.568
			h0.95L197.053,99.271z"/>
		<path fill="#FFFFFF" d="M211.652,104.44v0.721c-0.744,0.562-1.289,0.844-1.635,0.844c-0.199,0-0.337-0.066-0.413-0.197
			c-0.076-0.133-0.132-0.4-0.167-0.805c-0.85,0.668-1.693,1.002-2.531,1.002c-0.609,0-1.125-0.199-1.547-0.598
			s-0.633-0.882-0.633-1.45c0-0.879,0.407-1.571,1.222-2.079c0.814-0.506,1.978-0.798,3.489-0.874v-1.028
			c0-1.102-0.598-1.652-1.793-1.652c-0.762,0-1.585,0.343-2.47,1.028v-0.888c0.914-0.574,1.784-0.861,2.61-0.861
			c0.732,0,1.336,0.18,1.811,0.541c0.475,0.359,0.712,0.883,0.712,1.568v5.036c0,0.275,0.064,0.413,0.193,0.413
			C210.665,105.161,211.048,104.921,211.652,104.44z M209.437,104.247v-2.522c-1.107-0.041-2.026,0.153-2.755,0.585
			c-0.729,0.43-1.094,0.979-1.094,1.647c0,0.375,0.152,0.691,0.457,0.949s0.686,0.387,1.143,0.387
			C207.925,105.293,208.675,104.944,209.437,104.247z"/>
		<path fill="#FFFFFF" d="M213.752,97.761v0.457c0.814-0.41,1.626-0.615,2.435-0.615c1.148,0,2.101,0.396,2.856,1.187
			s1.134,1.787,1.134,2.988c0,1.184-0.39,2.185-1.169,3.001c-0.779,0.818-1.731,1.227-2.856,1.227c-0.779,0-1.579-0.202-2.399-0.606
			v4.588h-0.861V97.761H213.752z M213.752,99.044v5.511c0.732,0.404,1.477,0.606,2.232,0.606c0.967,0,1.749-0.305,2.347-0.914
			s0.896-1.409,0.896-2.399c0-0.984-0.316-1.798-0.949-2.438c-0.633-0.643-1.433-0.963-2.399-0.963
			C215.188,98.446,214.479,98.646,213.752,99.044z"/>
	</g>
	<rect x="7.588" y="153.706" fill-rule="evenodd" clip-rule="evenodd" fill="#CD665F" width="395.293" height="35.882"/>
	
		<rect x="7.588" y="153.706" fill="none" stroke="#9F4B46" stroke-width="1" stroke-linejoin="round" stroke-miterlimit="10" width="395.293" height="35.882"/>
	<g>
		<path fill="#FFFFFF" d="M75.433,167.184v1.046c-1.066-0.627-1.983-0.94-2.751-0.94c-0.738,0-1.355,0.224-1.85,0.673
			c-0.495,0.447-0.743,1.003-0.743,1.665c0,0.475,0.146,0.902,0.439,1.283s0.905,0.747,1.837,1.099s1.611,0.645,2.039,0.879
			s0.791,0.574,1.09,1.02s0.448,1.022,0.448,1.731c0,0.943-0.346,1.74-1.037,2.391s-1.535,0.976-2.531,0.976
			c-1.02,0-2.068-0.357-3.146-1.072v-1.116c1.189,0.873,2.221,1.31,3.094,1.31c0.727,0,1.34-0.235,1.841-0.707
			c0.501-0.473,0.751-1.051,0.751-1.736c0-0.521-0.155-0.992-0.466-1.411s-0.94-0.811-1.889-1.175
			c-0.949-0.364-1.627-0.658-2.034-0.88c-0.408-0.223-0.753-0.541-1.038-0.953c-0.285-0.413-0.427-0.944-0.427-1.595
			c0-0.901,0.346-1.67,1.037-2.306s1.523-0.953,2.496-0.953C73.549,166.41,74.495,166.668,75.433,167.184z"/>
		<path fill="#FFFFFF" d="M78.658,166.568v5.599h0.035c0.674-1.043,1.562-1.564,2.663-1.564c0.914,0,1.644,0.293,2.188,0.879
			s0.817,1.392,0.817,2.417v4.948h-0.861v-4.605c0-1.863-0.732-2.795-2.197-2.795c-1.049,0-1.931,0.577-2.646,1.731v5.669h-0.861
			v-12.278H78.658z"/>
		<path fill="#FFFFFF" d="M92.325,178.847v-1.336H92.29c-0.375,0.539-0.76,0.923-1.156,1.151s-0.898,0.343-1.507,0.343
			c-0.867,0-1.585-0.281-2.153-0.844s-0.853-1.359-0.853-2.391v-5.01h0.861v4.992c0,0.75,0.205,1.339,0.615,1.767
			s0.943,0.642,1.6,0.642c0.562,0,1.042-0.129,1.437-0.387s0.792-0.703,1.191-1.336v-5.678h0.861v8.086H92.325z"/>
		<path fill="#FFFFFF" d="M100.306,166.753v0.809c-0.58-0.205-1.066-0.308-1.459-0.308c-1.307,0-1.96,0.835-1.96,2.505v1.002h1.564
			v0.703h-1.564v7.383h-0.861v-7.383h-1.494v-0.703h1.494v-1.327c0-0.932,0.271-1.668,0.813-2.21s1.206-0.813,1.991-0.813
			C99.257,166.41,99.749,166.524,100.306,166.753z"/>
		<path fill="#FFFFFF" d="M102.916,170.761v0.703h-1.67v7.383h-0.861v-7.383h-1.494v-0.703h1.494v-1.397
			c0-0.926,0.256-1.649,0.769-2.171s1.162-0.782,1.947-0.782c0.404,0,0.806,0.091,1.204,0.272v0.844
			c-0.521-0.182-0.946-0.272-1.274-0.272c-0.568,0-1.008,0.184-1.318,0.55s-0.466,0.874-0.466,1.524v1.433H102.916z
			 M106.019,166.568v12.278h-0.87v-12.278H106.019z"/>
		<path fill="#FFFFFF" d="M115.282,174.505h-6.372c-0.018,0.141-0.026,0.281-0.026,0.422c0,0.902,0.322,1.667,0.967,2.294
			s1.406,0.94,2.285,0.94c1.025,0,2.027-0.401,3.006-1.204v0.976c-0.926,0.715-1.963,1.072-3.111,1.072
			c-1.166,0-2.13-0.404-2.892-1.213s-1.143-1.837-1.143-3.085c0-1.184,0.352-2.163,1.055-2.94c0.703-0.775,1.588-1.164,2.654-1.164
			c1.002,0,1.849,0.351,2.54,1.051S115.282,173.304,115.282,174.505z M109.024,173.811h5.238c-0.305-1.576-1.157-2.364-2.558-2.364
			c-0.662,0-1.235,0.207-1.718,0.619C109.503,172.479,109.183,173.061,109.024,173.811z"/>
		<path fill="#FFFFFF" d="M119.911,166.41h0.83l-3.942,12.595h-0.848L119.911,166.41z"/>
		<path fill="#FFFFFF" d="M126.515,171.288v0.932c-0.82-0.551-1.559-0.826-2.215-0.826c-0.486,0-0.896,0.132-1.23,0.395
			s-0.501,0.587-0.501,0.973c0,0.274,0.102,0.527,0.305,0.758c0.203,0.231,0.763,0.523,1.679,0.877
			c0.916,0.354,1.515,0.722,1.796,1.103s0.422,0.806,0.422,1.274c0,0.627-0.255,1.156-0.765,1.586
			c-0.51,0.432-1.14,0.646-1.89,0.646c-0.814,0-1.623-0.246-2.426-0.738v-0.844c0.955,0.492,1.802,0.738,2.54,0.738
			c0.498,0,0.907-0.132,1.226-0.396s0.479-0.6,0.479-1.01c0-0.281-0.104-0.54-0.312-0.777c-0.208-0.237-0.771-0.538-1.688-0.901
			c-0.917-0.364-1.511-0.723-1.784-1.078c-0.272-0.354-0.409-0.748-0.409-1.182c0-0.615,0.253-1.139,0.76-1.568
			c0.507-0.432,1.124-0.646,1.85-0.646C125.015,170.603,125.735,170.831,126.515,171.288z"/>
		<path fill="#FFFFFF" d="M132.201,170.603c1.172,0,2.149,0.401,2.931,1.204s1.173,1.805,1.173,3.006
			c0,1.195-0.391,2.192-1.173,2.993c-0.782,0.799-1.759,1.199-2.931,1.199s-2.152-0.4-2.94-1.199
			c-0.788-0.801-1.182-1.798-1.182-2.993c0-1.201,0.394-2.203,1.182-3.006S131.029,170.603,132.201,170.603z M132.201,178.161
			c0.908,0,1.667-0.317,2.276-0.953s0.914-1.435,0.914-2.396c0-0.955-0.306-1.755-0.918-2.399s-1.37-0.967-2.272-0.967
			c-0.914,0-1.677,0.319-2.29,0.958s-0.918,1.441-0.918,2.408c0,0.961,0.306,1.76,0.918,2.396S131.287,178.161,132.201,178.161z"/>
		<path fill="#FFFFFF" d="M143.794,171.561l-0.501,0.809c-0.674-0.615-1.216-0.923-1.626-0.923c-0.809,0-1.673,0.773-2.593,2.32
			v5.08h-0.861v-8.086h0.861v2.127h0.035c0.967-1.523,1.91-2.285,2.83-2.285C142.467,170.603,143.085,170.922,143.794,171.561z"/>
		<path fill="#FFFFFF" d="M147.211,168.08v2.681h2.268v0.703h-2.268v4.808c0,0.773,0.063,1.282,0.189,1.524
			c0.126,0.244,0.464,0.365,1.015,0.365c0.422,0,0.914-0.132,1.477-0.396v0.826c-0.568,0.275-1.125,0.413-1.67,0.413
			c-0.533,0-0.979-0.152-1.336-0.457s-0.536-0.727-0.536-1.266v-5.818h-2.18v-0.703h2.18v-1.925l0.589-0.756H147.211z"/>
		<path fill="#FFFFFF" d="M152.125,170.761v1.749h-1.169v-1.749H152.125z M152.125,177.098v1.749h-1.169v-1.749H152.125z"/>
		<path fill="#FFFFFF" d="M164.193,170.761v0.703h-1.837c0.744,0.68,1.116,1.395,1.116,2.145c0,0.674-0.145,1.207-0.435,1.6
			s-0.636,0.679-1.037,0.857s-0.936,0.354-1.604,0.527s-1.087,0.335-1.257,0.487s-0.255,0.328-0.255,0.527
			c0,0.234,0.11,0.422,0.33,0.562s0.902,0.243,2.048,0.308s1.917,0.284,2.316,0.659s0.598,0.873,0.598,1.494
			c0,0.732-0.319,1.308-0.958,1.728c-0.639,0.418-1.526,0.628-2.663,0.628c-1.131,0-2.004-0.198-2.619-0.593
			c-0.615-0.396-0.923-0.919-0.923-1.569c0-1.055,0.785-1.708,2.355-1.96v-0.035c-0.873-0.205-1.31-0.589-1.31-1.151
			c0-0.568,0.539-1.008,1.617-1.318v-0.035c-0.709-0.211-1.247-0.561-1.613-1.05s-0.549-1.033-0.549-1.631
			c0-0.85,0.296-1.543,0.888-2.078c0.592-0.537,1.441-0.805,2.549-0.805H164.193z M160.607,182.266c0.838,0,1.504-0.144,2-0.431
			s0.743-0.665,0.743-1.134c0-0.949-0.858-1.424-2.575-1.424c-1.957,0-2.936,0.498-2.936,1.494S158.762,182.266,160.607,182.266z
			 M160.484,175.788c0.592,0,1.1-0.212,1.525-0.637s0.637-0.934,0.637-1.525s-0.212-1.097-0.637-1.516s-0.939-0.629-1.542-0.629
			c-0.598,0-1.102,0.205-1.512,0.615s-0.615,0.908-0.615,1.494c0,0.609,0.208,1.128,0.624,1.556S159.887,175.788,160.484,175.788z"
			/>
		<path fill="#FFFFFF" d="M171.084,171.561l-0.501,0.809c-0.674-0.615-1.216-0.923-1.626-0.923c-0.809,0-1.673,0.773-2.593,2.32
			v5.08h-0.861v-8.086h0.861v2.127h0.035c0.967-1.523,1.91-2.285,2.83-2.285C169.757,170.603,170.375,170.922,171.084,171.561z"/>
		<path fill="#FFFFFF" d="M175.241,170.603c1.172,0,2.149,0.401,2.931,1.204s1.173,1.805,1.173,3.006
			c0,1.195-0.391,2.192-1.173,2.993c-0.782,0.799-1.759,1.199-2.931,1.199s-2.152-0.4-2.94-1.199
			c-0.788-0.801-1.182-1.798-1.182-2.993c0-1.201,0.394-2.203,1.182-3.006S174.069,170.603,175.241,170.603z M175.241,178.161
			c0.908,0,1.667-0.317,2.276-0.953s0.914-1.435,0.914-2.396c0-0.955-0.306-1.755-0.918-2.399s-1.37-0.967-2.272-0.967
			c-0.914,0-1.677,0.319-2.29,0.958s-0.918,1.441-0.918,2.408c0,0.961,0.306,1.76,0.918,2.396S174.327,178.161,175.241,178.161z"/>
		<path fill="#FFFFFF" d="M186.939,178.847v-1.336h-0.035c-0.375,0.539-0.76,0.923-1.156,1.151s-0.898,0.343-1.507,0.343
			c-0.867,0-1.585-0.281-2.153-0.844s-0.853-1.359-0.853-2.391v-5.01h0.861v4.992c0,0.75,0.205,1.339,0.615,1.767
			s0.943,0.642,1.6,0.642c0.562,0,1.042-0.129,1.437-0.387s0.792-0.703,1.191-1.336v-5.678h0.861v8.086H186.939z"/>
		<path fill="#FFFFFF" d="M190.938,170.761v0.457c0.814-0.41,1.626-0.615,2.435-0.615c1.148,0,2.101,0.396,2.856,1.187
			s1.134,1.787,1.134,2.988c0,1.184-0.39,2.185-1.169,3.001c-0.779,0.818-1.731,1.227-2.856,1.227c-0.779,0-1.579-0.202-2.399-0.606
			v4.588h-0.861v-12.226H190.938z M190.938,172.044v5.511c0.732,0.404,1.477,0.606,2.232,0.606c0.967,0,1.749-0.305,2.347-0.914
			s0.896-1.409,0.896-2.399c0-0.984-0.316-1.798-0.949-2.438c-0.633-0.643-1.433-0.963-2.399-0.963
			C192.374,171.446,191.665,171.646,190.938,172.044z"/>
		<path fill="#FFFFFF" d="M204.236,178.398v-11.83h0.861v5.353c0.861-0.879,1.834-1.318,2.918-1.318
			c1.055,0,1.919,0.368,2.593,1.104s1.011,1.683,1.011,2.843c0,1.348-0.412,2.428-1.235,3.239s-1.917,1.217-3.283,1.217
			C206.205,179.005,205.25,178.803,204.236,178.398z M205.098,172.888v4.896c0.668,0.252,1.33,0.378,1.986,0.378
			c1.043,0,1.906-0.335,2.588-1.006s1.024-1.522,1.024-2.554c0-0.955-0.264-1.74-0.791-2.355s-1.192-0.923-1.995-0.923
			C206.949,171.323,206.012,171.845,205.098,172.888z"/>
		<path fill="#FFFFFF" d="M219.646,170.761l-6.052,12.226h-0.883l2.827-5.711l-3.407-6.515h0.904l2.934,5.646l2.795-5.646H219.646z"
			/>
		<path fill="#FFFFFF" d="M226.475,170.761v1.424h0.035c0.656-1.055,1.515-1.582,2.575-1.582c1.236,0,2.106,0.647,2.61,1.942
			c0.761-1.295,1.697-1.942,2.808-1.942c0.836,0,1.512,0.299,2.027,0.896c0.515,0.598,0.771,1.392,0.771,2.382v4.966h-0.861v-4.588
			c0-0.873-0.184-1.561-0.553-2.061c-0.368-0.502-0.886-0.752-1.553-0.752c-0.497,0-0.93,0.149-1.298,0.448
			c-0.369,0.299-0.749,0.779-1.141,1.441v5.511h-0.87v-4.605c0-0.896-0.192-1.586-0.576-2.07c-0.384-0.482-0.898-0.725-1.542-0.725
			c-0.938,0-1.749,0.577-2.435,1.731v5.669h-0.861v-8.086H226.475z"/>
		<path fill="#FFFFFF" d="M245.986,177.44v0.721c-0.744,0.562-1.289,0.844-1.635,0.844c-0.199,0-0.336-0.066-0.412-0.197
			c-0.076-0.133-0.133-0.4-0.168-0.805c-0.85,0.668-1.693,1.002-2.531,1.002c-0.609,0-1.125-0.199-1.547-0.598
			s-0.633-0.882-0.633-1.45c0-0.879,0.408-1.571,1.223-2.079c0.814-0.506,1.977-0.798,3.488-0.874v-1.028
			c0-1.102-0.598-1.652-1.793-1.652c-0.762,0-1.584,0.343-2.469,1.028v-0.888c0.914-0.574,1.783-0.861,2.609-0.861
			c0.732,0,1.336,0.18,1.811,0.541c0.475,0.359,0.713,0.883,0.713,1.568v5.036c0,0.275,0.064,0.413,0.193,0.413
			C245,178.161,245.383,177.921,245.986,177.44z M243.771,177.247v-2.522c-1.107-0.041-2.025,0.153-2.755,0.585
			c-0.729,0.43-1.095,0.979-1.095,1.647c0,0.375,0.152,0.691,0.457,0.949s0.686,0.387,1.143,0.387
			C242.26,178.293,243.01,177.944,243.771,177.247z"/>
		<path fill="#FFFFFF" d="M248.088,170.761v0.457c0.814-0.41,1.625-0.615,2.434-0.615c1.148,0,2.102,0.396,2.857,1.187
			s1.133,1.787,1.133,2.988c0,1.184-0.389,2.185-1.168,3.001c-0.779,0.818-1.732,1.227-2.857,1.227
			c-0.779,0-1.578-0.202-2.398-0.606v4.588h-0.861v-12.226H248.088z M248.088,172.044v5.511c0.732,0.404,1.477,0.606,2.232,0.606
			c0.967,0,1.748-0.305,2.346-0.914s0.896-1.409,0.896-2.399c0-0.984-0.316-1.798-0.949-2.438c-0.633-0.643-1.432-0.963-2.398-0.963
			C249.523,171.446,248.814,171.646,248.088,172.044z"/>
		<path fill="#FFFFFF" d="M265.146,170.603c1.172,0,2.149,0.401,2.932,1.204s1.174,1.805,1.174,3.006
			c0,1.195-0.392,2.192-1.174,2.993c-0.782,0.799-1.76,1.199-2.932,1.199s-2.151-0.4-2.939-1.199
			c-0.788-0.801-1.182-1.798-1.182-2.993c0-1.201,0.394-2.203,1.182-3.006S263.975,170.603,265.146,170.603z M265.146,178.161
			c0.908,0,1.668-0.317,2.277-0.953s0.914-1.435,0.914-2.396c0-0.955-0.307-1.755-0.919-2.399s-1.37-0.967-2.272-0.967
			c-0.914,0-1.677,0.319-2.289,0.958s-0.918,1.441-0.918,2.408c0,0.961,0.306,1.76,0.918,2.396S264.232,178.161,265.146,178.161z"/>
		<path fill="#FFFFFF" d="M276.846,178.847v-1.336h-0.035c-0.375,0.539-0.761,0.923-1.156,1.151s-0.898,0.343-1.508,0.343
			c-0.867,0-1.584-0.281-2.152-0.844s-0.854-1.359-0.854-2.391v-5.01h0.861v4.992c0,0.75,0.205,1.339,0.615,1.767
			s0.943,0.642,1.6,0.642c0.562,0,1.042-0.129,1.438-0.387s0.793-0.703,1.191-1.336v-5.678h0.861v8.086H276.846z"/>
		<path fill="#FFFFFF" d="M281.547,168.08v2.681h2.268v0.703h-2.268v4.808c0,0.773,0.063,1.282,0.189,1.524
			c0.126,0.244,0.465,0.365,1.016,0.365c0.422,0,0.914-0.132,1.477-0.396v0.826c-0.568,0.275-1.125,0.413-1.67,0.413
			c-0.533,0-0.979-0.152-1.336-0.457s-0.537-0.727-0.537-1.266v-5.818h-2.18v-0.703h2.18v-1.925l0.59-0.756H281.547z"/>
		<path fill="#FFFFFF" d="M286.275,170.761v0.457c0.814-0.41,1.627-0.615,2.436-0.615c1.148,0,2.1,0.396,2.855,1.187
			s1.135,1.787,1.135,2.988c0,1.184-0.391,2.185-1.17,3.001c-0.779,0.818-1.73,1.227-2.855,1.227c-0.779,0-1.58-0.202-2.4-0.606
			v4.588h-0.861v-12.226H286.275z M286.275,172.044v5.511c0.732,0.404,1.477,0.606,2.232,0.606c0.967,0,1.75-0.305,2.348-0.914
			s0.896-1.409,0.896-2.399c0-0.984-0.316-1.798-0.949-2.438c-0.633-0.643-1.434-0.963-2.4-0.963
			C287.711,171.446,287.002,171.646,286.275,172.044z"/>
		<path fill="#FFFFFF" d="M300.277,178.847v-1.336h-0.035c-0.375,0.539-0.761,0.923-1.156,1.151s-0.898,0.343-1.508,0.343
			c-0.867,0-1.584-0.281-2.152-0.844s-0.854-1.359-0.854-2.391v-5.01h0.861v4.992c0,0.75,0.205,1.339,0.615,1.767
			s0.943,0.642,1.6,0.642c0.562,0,1.042-0.129,1.438-0.387s0.793-0.703,1.191-1.336v-5.678h0.861v8.086H300.277z"/>
		<path fill="#FFFFFF" d="M304.979,168.08v2.681h2.268v0.703h-2.268v4.808c0,0.773,0.063,1.282,0.189,1.524
			c0.126,0.244,0.465,0.365,1.016,0.365c0.422,0,0.914-0.132,1.477-0.396v0.826c-0.568,0.275-1.125,0.413-1.67,0.413
			c-0.533,0-0.979-0.152-1.336-0.457s-0.537-0.727-0.537-1.266v-5.818h-2.18v-0.703h2.18v-1.925l0.59-0.756H304.979z"/>
		<path fill="#FFFFFF" d="M314.639,166.568v12.278h-0.861v-12.278H314.639z M320.359,170.761l-4.422,3.837l5.107,4.249h-1.181
			l-5.103-4.245l4.466-3.841H320.359z"/>
		<path fill="#FFFFFF" d="M328.24,174.505h-6.373c-0.018,0.141-0.025,0.281-0.025,0.422c0,0.902,0.322,1.667,0.967,2.294
			s1.406,0.94,2.285,0.94c1.025,0,2.027-0.401,3.006-1.204v0.976c-0.926,0.715-1.963,1.072-3.111,1.072
			c-1.166,0-2.131-0.404-2.893-1.213s-1.143-1.837-1.143-3.085c0-1.184,0.352-2.163,1.055-2.94c0.703-0.775,1.588-1.164,2.654-1.164
			c1.002,0,1.85,0.351,2.541,1.051S328.24,173.304,328.24,174.505z M321.982,173.811h5.238c-0.305-1.576-1.158-2.364-2.559-2.364
			c-0.662,0-1.234,0.207-1.718,0.619C322.461,172.479,322.141,173.061,321.982,173.811z"/>
		<path fill="#FFFFFF" d="M336.475,170.761l-6.051,12.226h-0.883l2.826-5.711l-3.406-6.515h0.904l2.934,5.646l2.795-5.646H336.475z"
			/>
		<path fill="#FFFFFF" d="M341.924,171.288v0.932c-0.82-0.551-1.559-0.826-2.215-0.826c-0.486,0-0.896,0.132-1.23,0.395
			s-0.5,0.587-0.5,0.973c0,0.274,0.102,0.527,0.305,0.758c0.203,0.231,0.762,0.523,1.678,0.877c0.916,0.354,1.516,0.722,1.797,1.103
			s0.422,0.806,0.422,1.274c0,0.627-0.256,1.156-0.766,1.586c-0.51,0.432-1.139,0.646-1.889,0.646c-0.814,0-1.623-0.246-2.426-0.738
			v-0.844c0.955,0.492,1.801,0.738,2.539,0.738c0.498,0,0.907-0.132,1.227-0.396s0.479-0.6,0.479-1.01
			c0-0.281-0.104-0.54-0.312-0.777c-0.207-0.237-0.77-0.538-1.688-0.901c-0.916-0.364-1.511-0.723-1.783-1.078
			c-0.272-0.354-0.408-0.748-0.408-1.182c0-0.615,0.253-1.139,0.76-1.568c0.507-0.432,1.123-0.646,1.85-0.646
			C340.424,170.603,341.145,170.831,341.924,171.288z"/>
	</g>
	<path fill-rule="evenodd" clip-rule="evenodd" fill="#AAC46C" d="M62.294,232.687c0-3.303,2.678-5.98,5.98-5.98h83.333
		c3.303,0,5.98,2.678,5.98,5.98v23.921c0,3.303-2.677,5.98-5.98,5.98H68.274c-3.303,0-5.98-2.678-5.98-5.98V232.687z"/>
	<path fill="none" stroke="#839950" stroke-width="1" stroke-linejoin="round" stroke-miterlimit="10" d="M62.294,232.687
		c0-3.303,2.678-5.98,5.98-5.98h83.333c3.303,0,5.981,2.678,5.981,5.98v23.921c0,3.304-2.678,5.98-5.981,5.98H68.274
		c-3.303,0-5.98-2.677-5.98-5.98V232.687z"/>
	<g>
		<path fill="#FFFFFF" d="M85.073,239.568h3.146c1.318,0,2.326,0.286,3.023,0.856c0.697,0.572,1.046,1.344,1.046,2.316
			c0,1.418-0.779,2.414-2.338,2.988c0.404,0.193,0.949,0.817,1.635,1.872l2.777,4.245h-1.124l-2.139-3.365
			c-0.715-1.125-1.271-1.827-1.669-2.105c-0.398-0.278-0.981-0.418-1.749-0.418h-1.661v5.889h-0.949V239.568z M86.022,240.359v4.808
			h2.039c1.037,0,1.83-0.209,2.377-0.629c0.548-0.418,0.822-1.012,0.822-1.779c0-0.756-0.278-1.345-0.835-1.767
			s-1.356-0.633-2.399-0.633H86.022z"/>
		<path fill="#FFFFFF" d="M101.974,247.505h-6.372c-0.018,0.141-0.026,0.281-0.026,0.422c0,0.902,0.322,1.667,0.967,2.294
			s1.406,0.94,2.285,0.94c1.025,0,2.027-0.401,3.006-1.204v0.976c-0.926,0.715-1.963,1.072-3.111,1.072
			c-1.166,0-2.13-0.404-2.892-1.213s-1.143-1.837-1.143-3.085c0-1.184,0.352-2.163,1.055-2.94c0.703-0.775,1.588-1.164,2.654-1.164
			c1.002,0,1.849,0.351,2.54,1.051S101.974,246.304,101.974,247.505z M95.716,246.811h5.238c-0.305-1.576-1.157-2.364-2.558-2.364
			c-0.662,0-1.235,0.207-1.718,0.619C96.195,245.479,95.875,246.061,95.716,246.811z"/>
		<path fill="#FFFFFF" d="M110.675,239.568v12.278h-0.87v-0.633c-0.738,0.527-1.535,0.791-2.391,0.791
			c-1.148,0-2.117-0.405-2.905-1.217s-1.182-1.81-1.182-2.993c0-1.201,0.388-2.2,1.165-2.997s1.75-1.195,2.922-1.195
			c0.744,0,1.541,0.217,2.391,0.65v-4.685H110.675z M109.805,250.423v-5.221c-0.773-0.504-1.559-0.756-2.355-0.756
			c-0.932,0-1.699,0.31-2.303,0.928s-0.905,1.407-0.905,2.368c0,0.979,0.322,1.793,0.967,2.443s1.45,0.976,2.417,0.976
			C108.375,251.161,109.102,250.915,109.805,250.423z"/>
		<path fill="#FFFFFF" d="M118.585,251.847v-1.336h-0.035c-0.375,0.539-0.76,0.923-1.156,1.151s-0.898,0.343-1.507,0.343
			c-0.867,0-1.585-0.281-2.153-0.844s-0.853-1.359-0.853-2.391v-5.01h0.861v4.992c0,0.75,0.205,1.339,0.615,1.767
			s0.943,0.642,1.6,0.642c0.562,0,1.042-0.129,1.437-0.387s0.792-0.703,1.191-1.336v-5.678h0.861v8.086H118.585z"/>
		<path fill="#FFFFFF" d="M127.41,243.998v0.958c-0.773-0.34-1.474-0.51-2.101-0.51c-0.902,0-1.636,0.313-2.202,0.94
			s-0.848,1.441-0.848,2.443c0,1.02,0.283,1.83,0.848,2.431s1.323,0.9,2.272,0.9c0.691,0,1.418-0.155,2.18-0.466v0.896
			c-0.809,0.275-1.559,0.413-2.25,0.413c-1.184,0-2.14-0.375-2.87-1.125s-1.094-1.734-1.094-2.953c0-1.271,0.368-2.31,1.103-3.115
			s1.674-1.209,2.817-1.209C125.892,243.603,126.607,243.734,127.41,243.998z"/>
		<path fill="#FFFFFF" d="M136.102,247.505h-6.372c-0.018,0.141-0.026,0.281-0.026,0.422c0,0.902,0.322,1.667,0.967,2.294
			s1.406,0.94,2.285,0.94c1.025,0,2.027-0.401,3.006-1.204v0.976c-0.926,0.715-1.963,1.072-3.111,1.072
			c-1.166,0-2.13-0.404-2.892-1.213s-1.143-1.837-1.143-3.085c0-1.184,0.352-2.163,1.055-2.94c0.703-0.775,1.588-1.164,2.654-1.164
			c1.002,0,1.849,0.351,2.54,1.051S136.102,246.304,136.102,247.505z M129.844,246.811h5.238c-0.305-1.576-1.157-2.364-2.558-2.364
			c-0.662,0-1.235,0.207-1.718,0.619C130.323,245.479,130.002,246.061,129.844,246.811z"/>
	</g>
	<path fill-rule="evenodd" clip-rule="evenodd" fill="#AAC46C" d="M252.882,232.687c0-3.303,2.678-5.98,5.981-5.98h83.332
		c3.304,0,5.981,2.678,5.981,5.98v23.921c0,3.303-2.678,5.98-5.981,5.98h-83.332c-3.304,0-5.981-2.678-5.981-5.98V232.687z"/>
	<path fill="none" stroke="#839950" stroke-width="1" stroke-linejoin="round" stroke-miterlimit="10" d="M252.882,232.687
		c0-3.303,2.678-5.98,5.98-5.98h83.333c3.304,0,5.98,2.678,5.98,5.98v23.921c0,3.304-2.677,5.98-5.98,5.98h-83.333
		c-3.303,0-5.98-2.677-5.98-5.98V232.687z"/>
	<g>
		<path fill="#FFFFFF" d="M275.661,239.568h3.146c1.318,0,2.326,0.286,3.023,0.856c0.697,0.572,1.046,1.344,1.046,2.316
			c0,1.418-0.779,2.414-2.338,2.988c0.404,0.193,0.949,0.817,1.635,1.872l2.777,4.245h-1.123l-2.139-3.365
			c-0.715-1.125-1.271-1.827-1.67-2.105s-0.981-0.418-1.748-0.418h-1.661v5.889h-0.949V239.568z M276.61,240.359v4.808h2.039
			c1.037,0,1.829-0.209,2.378-0.629c0.547-0.418,0.821-1.012,0.821-1.779c0-0.756-0.278-1.345-0.835-1.767s-1.356-0.633-2.399-0.633
			H276.61z"/>
		<path fill="#FFFFFF" d="M292.562,247.505h-6.372c-0.018,0.141-0.026,0.281-0.026,0.422c0,0.902,0.322,1.667,0.967,2.294
			s1.406,0.94,2.285,0.94c1.025,0,2.027-0.401,3.006-1.204v0.976c-0.926,0.715-1.963,1.072-3.111,1.072
			c-1.166,0-2.13-0.404-2.892-1.213s-1.143-1.837-1.143-3.085c0-1.184,0.352-2.163,1.055-2.94c0.703-0.775,1.588-1.164,2.654-1.164
			c1.002,0,1.849,0.351,2.54,1.051S292.562,246.304,292.562,247.505z M286.305,246.811h5.238c-0.305-1.576-1.157-2.364-2.558-2.364
			c-0.662,0-1.235,0.207-1.718,0.619C286.783,245.479,286.463,246.061,286.305,246.811z"/>
		<path fill="#FFFFFF" d="M301.264,239.568v12.278h-0.87v-0.633c-0.738,0.527-1.535,0.791-2.391,0.791
			c-1.148,0-2.116-0.405-2.905-1.217c-0.787-0.812-1.182-1.81-1.182-2.993c0-1.201,0.389-2.2,1.164-2.997
			c0.777-0.797,1.751-1.195,2.923-1.195c0.744,0,1.541,0.217,2.391,0.65v-4.685H301.264z M300.394,250.423v-5.221
			c-0.773-0.504-1.559-0.756-2.355-0.756c-0.932,0-1.699,0.31-2.303,0.928s-0.905,1.407-0.905,2.368
			c0,0.979,0.322,1.793,0.967,2.443s1.45,0.976,2.417,0.976C298.964,251.161,299.69,250.915,300.394,250.423z"/>
		<path fill="#FFFFFF" d="M309.174,251.847v-1.336h-0.035c-0.375,0.539-0.76,0.923-1.156,1.151
			c-0.395,0.229-0.897,0.343-1.507,0.343c-0.867,0-1.585-0.281-2.153-0.844s-0.853-1.359-0.853-2.391v-5.01h0.861v4.992
			c0,0.75,0.205,1.339,0.615,1.767s0.943,0.642,1.6,0.642c0.562,0,1.042-0.129,1.437-0.387c0.396-0.258,0.793-0.703,1.191-1.336
			v-5.678h0.861v8.086H309.174z"/>
		<path fill="#FFFFFF" d="M317.998,243.998v0.958c-0.773-0.34-1.474-0.51-2.101-0.51c-0.902,0-1.636,0.313-2.202,0.94
			c-0.564,0.627-0.848,1.441-0.848,2.443c0,1.02,0.283,1.83,0.848,2.431c0.566,0.601,1.323,0.9,2.272,0.9
			c0.691,0,1.418-0.155,2.18-0.466v0.896c-0.809,0.275-1.559,0.413-2.25,0.413c-1.184,0-2.14-0.375-2.87-1.125
			c-0.729-0.75-1.094-1.734-1.094-2.953c0-1.271,0.367-2.31,1.104-3.115c0.734-0.806,1.674-1.209,2.816-1.209
			C316.48,243.603,317.195,243.734,317.998,243.998z"/>
		<path fill="#FFFFFF" d="M326.69,247.505h-6.372c-0.018,0.141-0.026,0.281-0.026,0.422c0,0.902,0.322,1.667,0.967,2.294
			s1.406,0.94,2.285,0.94c1.025,0,2.027-0.401,3.006-1.204v0.976c-0.926,0.715-1.963,1.072-3.111,1.072
			c-1.166,0-2.13-0.404-2.892-1.213s-1.143-1.837-1.143-3.085c0-1.184,0.352-2.163,1.055-2.94c0.703-0.775,1.588-1.164,2.654-1.164
			c1.002,0,1.849,0.351,2.54,1.051S326.69,246.304,326.69,247.505z M320.433,246.811h5.238c-0.305-1.576-1.157-2.364-2.558-2.364
			c-0.662,0-1.234,0.207-1.719,0.619C320.912,245.479,320.591,246.061,320.433,246.811z"/>
	</g>
	<rect x="94.059" y="299.706" fill-rule="evenodd" clip-rule="evenodd" fill="#CBCBCB" width="111.177" height="35.882"/>
	
		<rect x="94.059" y="299.706" fill="none" stroke="#919191" stroke-width="1" stroke-linejoin="round" stroke-miterlimit="10" width="111.177" height="35.882"/>
	<g>
		<path d="M128.932,311.829c2.017,0,3.727,0.679,5.128,2.036s2.103,3.013,2.103,4.966c0,1.946-0.701,3.599-2.103,4.956
			s-3.111,2.036-5.128,2.036c-2.011,0-3.713-0.679-5.109-2.036s-2.093-3.01-2.093-4.956c0-1.953,0.698-3.608,2.093-4.966
			S126.921,311.829,128.932,311.829z M128.971,324.847c1.698,0,3.13-0.581,4.298-1.743c1.167-1.162,1.751-2.586,1.751-4.272
			c0-1.692-0.584-3.12-1.751-4.282c-1.168-1.162-2.601-1.743-4.298-1.743c-1.705,0-3.147,0.581-4.328,1.743s-1.771,2.59-1.771,4.282
			c0,1.687,0.59,3.11,1.771,4.272S127.266,324.847,128.971,324.847z"/>
		<path d="M144.757,325.647v-1.484h-0.039c-0.417,0.599-0.845,1.025-1.284,1.279s-0.998,0.381-1.675,0.381
			c-0.963,0-1.761-0.312-2.393-0.938s-0.947-1.511-0.947-2.656v-5.566h0.957v5.547c0,0.833,0.228,1.487,0.684,1.963
			s1.048,0.713,1.777,0.713c0.625,0,1.157-0.144,1.597-0.43s0.88-0.781,1.323-1.484v-6.309h0.957v8.984H144.757z"/>
		<path d="M149.981,313.685v2.979h2.52v0.781h-2.52v5.342c0,0.859,0.07,1.424,0.21,1.694s0.516,0.405,1.128,0.405
			c0.469,0,1.016-0.146,1.641-0.439v0.918c-0.631,0.306-1.25,0.459-1.855,0.459c-0.592,0-1.087-0.169-1.484-0.508
			s-0.596-0.808-0.596-1.406v-6.465h-2.422v-0.781h2.422v-2.139l0.654-0.84H149.981z"/>
		<path d="M155.235,316.663v0.508c0.905-0.456,1.807-0.684,2.705-0.684c1.276,0,2.334,0.439,3.174,1.318s1.26,1.985,1.26,3.32
			c0,1.315-0.433,2.427-1.299,3.335s-1.924,1.362-3.174,1.362c-0.866,0-1.754-0.225-2.666-0.674v5.098h-0.957v-13.584H155.235z
			 M155.235,318.089v6.123c0.814,0.449,1.641,0.674,2.48,0.674c1.074,0,1.943-0.339,2.607-1.016s0.996-1.565,0.996-2.666
			c0-1.094-0.352-1.997-1.055-2.71s-1.592-1.069-2.666-1.069C156.831,317.425,156.042,317.646,155.235,318.089z"/>
		<path d="M170.792,325.647v-1.484h-0.039c-0.417,0.599-0.845,1.025-1.284,1.279s-0.998,0.381-1.675,0.381
			c-0.963,0-1.761-0.312-2.393-0.938s-0.947-1.511-0.947-2.656v-5.566h0.957v5.547c0,0.833,0.228,1.487,0.684,1.963
			s1.048,0.713,1.777,0.713c0.625,0,1.157-0.144,1.597-0.43s0.88-0.781,1.323-1.484v-6.309h0.957v8.984H170.792z"/>
		<path d="M176.017,313.685v2.979h2.52v0.781h-2.52v5.342c0,0.859,0.07,1.424,0.21,1.694s0.516,0.405,1.128,0.405
			c0.469,0,1.016-0.146,1.641-0.439v0.918c-0.631,0.306-1.25,0.459-1.855,0.459c-0.592,0-1.087-0.169-1.484-0.508
			s-0.596-0.808-0.596-1.406v-6.465h-2.422v-0.781h2.422v-2.139l0.654-0.84H176.017z"/>
	</g>
	<rect x="205.235" y="299.706" fill-rule="evenodd" clip-rule="evenodd" fill="#CBCBCB" width="111.176" height="35.882"/>
	
		<rect x="205.235" y="299.706" fill="none" stroke="#919191" stroke-width="1" stroke-linejoin="round" stroke-miterlimit="10" width="111.176" height="35.882"/>
	<g>
		<path d="M240.107,311.829c2.018,0,3.727,0.679,5.129,2.036s2.104,3.013,2.104,4.966c0,1.946-0.701,3.599-2.104,4.956
			s-3.111,2.036-5.129,2.036c-2.01,0-3.713-0.679-5.108-2.036s-2.093-3.01-2.093-4.956c0-1.953,0.698-3.608,2.093-4.966
			S238.098,311.829,240.107,311.829z M240.146,324.847c1.698,0,3.131-0.581,4.299-1.743s1.752-2.586,1.752-4.272
			c0-1.692-0.584-3.12-1.752-4.282s-2.601-1.743-4.299-1.743c-1.704,0-3.146,0.581-4.327,1.743s-1.771,2.59-1.771,4.282
			c0,1.687,0.59,3.11,1.771,4.272S238.442,324.847,240.146,324.847z"/>
		<path d="M255.934,325.647v-1.484h-0.039c-0.417,0.599-0.846,1.025-1.285,1.279s-0.997,0.381-1.674,0.381
			c-0.964,0-1.762-0.312-2.393-0.938c-0.632-0.625-0.947-1.511-0.947-2.656v-5.566h0.957v5.547c0,0.833,0.228,1.487,0.684,1.963
			c0.455,0.476,1.048,0.713,1.777,0.713c0.625,0,1.156-0.144,1.596-0.43s0.881-0.781,1.324-1.484v-6.309h0.957v8.984H255.934z"/>
		<path d="M261.158,313.685v2.979h2.52v0.781h-2.52v5.342c0,0.859,0.069,1.424,0.209,1.694c0.141,0.271,0.517,0.405,1.129,0.405
			c0.469,0,1.016-0.146,1.641-0.439v0.918c-0.632,0.306-1.25,0.459-1.855,0.459c-0.593,0-1.088-0.169-1.484-0.508
			c-0.397-0.339-0.596-0.808-0.596-1.406v-6.465h-2.422v-0.781h2.422v-2.139l0.654-0.84H261.158z"/>
		<path d="M266.412,316.663v0.508c0.904-0.456,1.807-0.684,2.705-0.684c1.275,0,2.334,0.439,3.174,1.318s1.26,1.985,1.26,3.32
			c0,1.315-0.434,2.427-1.299,3.335c-0.866,0.908-1.924,1.362-3.174,1.362c-0.866,0-1.755-0.225-2.666-0.674v5.098h-0.957v-13.584
			H266.412z M266.412,318.089v6.123c0.813,0.449,1.641,0.674,2.48,0.674c1.074,0,1.943-0.339,2.607-1.016s0.996-1.565,0.996-2.666
			c0-1.094-0.352-1.997-1.055-2.71s-1.592-1.069-2.666-1.069C268.007,317.425,267.219,317.646,266.412,318.089z"/>
		<path d="M281.969,325.647v-1.484h-0.039c-0.417,0.599-0.846,1.025-1.285,1.279s-0.997,0.381-1.674,0.381
			c-0.964,0-1.762-0.312-2.393-0.938c-0.632-0.625-0.947-1.511-0.947-2.656v-5.566h0.957v5.547c0,0.833,0.228,1.487,0.684,1.963
			c0.455,0.476,1.048,0.713,1.777,0.713c0.625,0,1.156-0.144,1.596-0.43s0.881-0.781,1.324-1.484v-6.309h0.957v8.984H281.969z"/>
		<path d="M287.193,313.685v2.979h2.52v0.781h-2.52v5.342c0,0.859,0.069,1.424,0.209,1.694c0.141,0.271,0.517,0.405,1.129,0.405
			c0.469,0,1.016-0.146,1.641-0.439v0.918c-0.632,0.306-1.25,0.459-1.855,0.459c-0.593,0-1.088-0.169-1.484-0.508
			c-0.397-0.339-0.596-0.808-0.596-1.406v-6.465h-2.422v-0.781h2.422v-2.139l0.654-0.84H287.193z"/>
	</g>
	
		<line fill="none" stroke="#000000" stroke-width="1.5" stroke-linejoin="round" stroke-miterlimit="10" x1="94.059" y1="43.588" x2="56.67" y2="79.334"/>
	<path fill-rule="evenodd" clip-rule="evenodd" d="M55.235,80.706l8.423-2.016c0.537-0.128,0.868-0.668,0.74-1.205
		c-0.128-0.537-0.668-0.869-1.205-0.74l-5.088,1.218l1.445-5.029c0.152-0.531-0.154-1.084-0.685-1.237l0,0
		c-0.531-0.153-1.085,0.154-1.237,0.685L55.235,80.706z"/>
	
		<line fill="none" stroke="#000000" stroke-width="1.5" stroke-linejoin="round" stroke-miterlimit="10" x1="205.235" y1="43.588" x2="205.235" y2="78.729"/>
	<path fill-rule="evenodd" clip-rule="evenodd" d="M205.235,80.713l-4.364-7.481c-0.278-0.477-0.117-1.089,0.36-1.368
		s1.089-0.117,1.368,0.36l2.636,4.52l2.636-4.52c0.278-0.477,0.891-0.638,1.368-0.36l0,0c0.477,0.278,0.638,0.891,0.36,1.368
		L205.235,80.713z"/>
	
		<line fill="none" stroke="#000000" stroke-width="1.5" stroke-linejoin="round" stroke-miterlimit="10" x1="316.412" y1="43.588" x2="353.79" y2="79.341"/>
	<path fill-rule="evenodd" clip-rule="evenodd" d="M355.225,80.713l-8.423-2.018c-0.537-0.129-0.868-0.668-0.739-1.206
		s0.668-0.868,1.205-0.739l5.088,1.219l-1.443-5.029c-0.152-0.531,0.154-1.085,0.686-1.237l0,0c0.53-0.152,1.085,0.154,1.237,0.685
		L355.225,80.713z"/>
	
		<line fill="none" stroke="#000000" stroke-width="1.5" stroke-linejoin="round" stroke-miterlimit="10" x1="55.235" y1="116.588" x2="55.235" y2="151.729"/>
	<path fill-rule="evenodd" clip-rule="evenodd" d="M55.235,153.713l-4.364-7.481c-0.278-0.477-0.117-1.089,0.36-1.368
		s1.089-0.117,1.368,0.36l2.636,4.52l2.636-4.52c0.278-0.477,0.891-0.638,1.368-0.36l0,0c0.477,0.278,0.638,0.891,0.36,1.368
		L55.235,153.713z"/>
	
		<line fill="none" stroke="#000000" stroke-width="1.5" stroke-linejoin="round" stroke-miterlimit="10" x1="205.235" y1="116.588" x2="205.235" y2="151.729"/>
	<path fill-rule="evenodd" clip-rule="evenodd" d="M205.235,153.713l-4.364-7.481c-0.278-0.477-0.117-1.089,0.36-1.368
		s1.089-0.117,1.368,0.36l2.636,4.52l2.636-4.52c0.278-0.477,0.891-0.638,1.368-0.36l0,0c0.477,0.278,0.638,0.891,0.36,1.368
		L205.235,153.713z"/>
	
		<line fill="none" stroke="#000000" stroke-width="1.5" stroke-linejoin="round" stroke-miterlimit="10" x1="355.235" y1="116.588" x2="355.235" y2="151.729"/>
	<path fill-rule="evenodd" clip-rule="evenodd" d="M355.235,153.713l-4.364-7.481c-0.278-0.477-0.117-1.089,0.36-1.368
		c0.477-0.278,1.089-0.117,1.367,0.36l2.637,4.52l2.636-4.52c0.278-0.477,0.891-0.638,1.368-0.36l0,0
		c0.477,0.278,0.638,0.891,0.359,1.368L355.235,153.713z"/>
	
		<line fill="none" stroke="#000000" stroke-width="1.5" stroke-linejoin="round" stroke-miterlimit="10" x1="55.235" y1="189.588" x2="108.281" y2="225.599"/>
	<path fill-rule="evenodd" clip-rule="evenodd" d="M109.923,226.713l-8.64-0.591c-0.551-0.038-0.967-0.515-0.93-1.066
		c0.038-0.551,0.515-0.967,1.066-0.929l5.22,0.357l-2.258-4.72c-0.238-0.498-0.028-1.096,0.47-1.334l0,0
		c0.499-0.238,1.096-0.027,1.334,0.471L109.923,226.713z"/>
	
		<line fill="none" stroke="#000000" stroke-width="1.5" stroke-linejoin="round" stroke-miterlimit="10" x1="109.941" y1="262.588" x2="148.179" y2="298.357"/>
	<path fill-rule="evenodd" clip-rule="evenodd" d="M149.629,299.713l-8.444-1.923c-0.539-0.123-0.875-0.659-0.753-1.197
		c0.123-0.539,0.659-0.876,1.197-0.753l5.101,1.162l-1.5-5.013c-0.158-0.529,0.143-1.087,0.671-1.245l0,0
		c0.529-0.158,1.086,0.143,1.245,0.672L149.629,299.713z"/>
	
		<line fill="none" stroke="#000000" stroke-width="1.5" stroke-linejoin="round" stroke-miterlimit="10" x1="300.529" y1="262.588" x2="262.273" y2="298.351"/>
	<path fill-rule="evenodd" clip-rule="evenodd" d="M260.823,299.706l8.445-1.921c0.538-0.123,0.875-0.658,0.753-1.197
		c-0.122-0.538-0.658-0.876-1.197-0.753l-5.102,1.16l1.502-5.012c0.158-0.529-0.143-1.087-0.672-1.245l0,0
		c-0.528-0.158-1.086,0.142-1.244,0.671L260.823,299.706z"/>
	
		<line fill="none" stroke="#000000" stroke-width="1.5" stroke-linejoin="round" stroke-miterlimit="10" x1="355.235" y1="189.588" x2="302.172" y2="225.592"/>
	<path fill-rule="evenodd" clip-rule="evenodd" d="M300.529,226.706l8.641-0.589c0.551-0.038,0.967-0.516,0.93-1.066
		c-0.038-0.551-0.515-0.967-1.066-0.93l-5.22,0.356l2.26-4.719c0.239-0.499,0.028-1.096-0.47-1.334l0,0
		c-0.498-0.239-1.096-0.028-1.334,0.47L300.529,226.706z"/>
</g>
</svg>
