<?xml version="1.0" encoding="utf-8"?>
<!-- Generator: Adobe Illustrator 16.0.4, SVG Export Plug-In . SVG Version: 6.00 Build 0)  -->
<!DOCTYPE svg PUBLIC "-//W3C//DTD SVG 1.1//EN" "http://www.w3.org/Graphics/SVG/1.1/DTD/svg11.dtd">
<svg version="1.1" id="Layer_1" xmlns="http://www.w3.org/2000/svg" xmlns:xlink="http://www.w3.org/1999/xlink" x="0px" y="0px"
	 width="569em" height="402em" viewBox="0 0 569 402" enable-background="new 0 0 569 402" xml:space="preserve">
<g>
	<g>
		<path d="M53.338,7.666h10.498c5.309,0,9.363,1.396,12.161,4.189c2.797,2.793,4.197,6.402,4.197,10.828
			c0,4.34-1.385,7.925-4.154,10.753c-2.77,2.829-6.702,4.243-11.796,4.243H53.338V7.666z M55.658,9.6v26.146h8.457
			c3.878,0,7.108-1.192,9.691-3.577c2.583-2.385,3.874-5.546,3.874-9.485c0-3.853-1.273-6.996-3.82-9.432
			C71.312,10.817,68.014,9.6,63.965,9.6H55.658z"/>
		<path d="M104.771,22.727h2.471c-0.936,2.929-2.317,5.764-4.145,8.505l6.121,6.448h-2.97l-4.513-4.698
			c-2.936,3.39-6.378,5.085-10.331,5.085c-2.348,0-4.242-0.655-5.681-1.966s-2.158-3.025-2.158-5.146
			c0-3.938,2.478-6.989,7.434-9.152c-2.492-2.592-3.738-4.927-3.738-7.004c0-1.833,0.688-3.384,2.062-4.651s3.065-1.901,5.07-1.901
			c1.891,0,3.455,0.59,4.694,1.77c1.239,1.18,1.858,2.656,1.858,4.43c0,3.175-2.083,5.82-6.25,7.937l6.769,7.13
			C102.834,27.473,103.936,25.211,104.771,22.727z M100.157,31.338l-7.61-7.924c-2.235,0.959-3.872,1.998-4.91,3.115
			c-1.039,1.117-1.558,2.484-1.558,4.104c0,1.662,0.512,2.958,1.537,3.889c1.024,0.932,2.446,1.396,4.266,1.396
			C94.892,35.918,97.649,34.392,100.157,31.338z M93.184,20.787c3.743-1.561,5.615-3.6,5.615-6.119c0-1.217-0.43-2.233-1.289-3.05
			c-0.859-0.815-1.941-1.224-3.244-1.224c-1.347,0-2.475,0.411-3.384,1.234c-0.91,0.823-1.364,1.836-1.364,3.039
			C89.518,16.528,90.739,18.568,93.184,20.787z"/>
		<path d="M112.979,7.666h7.691c3.223,0,5.686,0.698,7.391,2.095c1.704,1.396,2.557,3.284,2.557,5.661
			c0,3.467-1.905,5.901-5.715,7.305c0.988,0.473,2.32,1.998,3.996,4.576l6.789,10.377h-2.747l-5.228-8.226
			c-1.747-2.751-3.107-4.467-4.081-5.147s-2.398-1.021-4.274-1.021h-4.059V37.68h-2.32V7.666z M115.299,9.6v11.752h4.984
			c2.535,0,4.472-0.512,5.812-1.536c1.339-1.023,2.009-2.474,2.009-4.351c0-1.848-0.681-3.287-2.041-4.318
			c-1.361-1.031-3.316-1.547-5.865-1.547H115.299z"/>
		<path d="M164.541,9.17v2.557c-2.607-1.532-4.849-2.299-6.725-2.299c-1.805,0-3.312,0.548-4.522,1.644
			c-1.21,1.096-1.815,2.453-1.815,4.071c0,1.16,0.358,2.206,1.074,3.137c0.716,0.932,2.213,1.826,4.49,2.686
			s3.938,1.576,4.984,2.148c1.045,0.573,1.934,1.404,2.664,2.492c0.73,1.089,1.096,2.5,1.096,4.232c0,2.307-0.845,4.254-2.535,5.844
			c-1.69,1.59-3.753,2.385-6.188,2.385c-2.492,0-5.056-0.873-7.691-2.621v-2.729c2.907,2.135,5.428,3.201,7.562,3.201
			c1.776,0,3.276-0.576,4.501-1.729s1.837-2.567,1.837-4.244c0-1.274-0.38-2.424-1.139-3.448s-2.298-1.981-4.618-2.872
			c-2.319-0.891-3.977-1.607-4.973-2.151c-0.997-0.544-1.842-1.321-2.537-2.33s-1.042-2.309-1.042-3.897
			c0-2.204,0.845-4.083,2.535-5.636c1.69-1.554,3.724-2.33,6.102-2.33C159.936,7.279,162.249,7.91,164.541,9.17z"/>
		<path d="M184.264,18.494v2.342c-1.891-0.83-3.603-1.246-5.135-1.246c-2.206,0-4,0.767-5.382,2.299
			c-1.382,1.533-2.073,3.523-2.073,5.973c0,2.492,0.691,4.473,2.073,5.94c1.382,1.469,3.233,2.202,5.554,2.202
			c1.69,0,3.466-0.379,5.328-1.139v2.191c-1.977,0.673-3.81,1.01-5.5,1.01c-2.894,0-5.231-0.916-7.015-2.75
			c-1.783-1.833-2.675-4.239-2.675-7.219c0-3.107,0.898-5.646,2.696-7.616c1.797-1.969,4.093-2.954,6.886-2.954
			C180.554,17.527,182.301,17.85,184.264,18.494z"/>
		<path d="M204.459,34.242v1.762c-1.819,1.375-3.151,2.062-3.996,2.062c-0.487,0-0.824-0.161-1.01-0.483
			c-0.187-0.322-0.322-0.978-0.408-1.966c-2.077,1.633-4.14,2.449-6.188,2.449c-1.49,0-2.75-0.486-3.781-1.461
			c-1.031-0.974-1.547-2.155-1.547-3.545c0-2.148,0.995-3.842,2.986-5.081c1.991-1.238,4.834-1.951,8.529-2.138v-2.514
			c0-2.692-1.461-4.039-4.383-4.039c-1.862,0-3.875,0.838-6.037,2.514v-2.17c2.234-1.403,4.361-2.105,6.381-2.105
			c1.79,0,3.266,0.44,4.426,1.321s1.74,2.159,1.74,3.835v12.311c0,0.674,0.157,1.01,0.473,1.01
			C202.045,36.004,202.983,35.417,204.459,34.242z M199.045,33.77v-6.166c-2.707-0.1-4.952,0.376-6.735,1.429
			s-2.675,2.396-2.675,4.028c0,0.917,0.372,1.69,1.117,2.32c0.745,0.631,1.676,0.945,2.793,0.945
			C195.35,36.326,197.183,35.475,199.045,33.77z"/>
		<path d="M209.916,7.666V37.68h-2.127V7.666H209.916z"/>
		<path d="M231.508,34.242v1.762c-1.819,1.375-3.151,2.062-3.996,2.062c-0.487,0-0.824-0.161-1.01-0.483
			c-0.187-0.322-0.322-0.978-0.408-1.966c-2.077,1.633-4.14,2.449-6.188,2.449c-1.49,0-2.75-0.486-3.781-1.461
			c-1.031-0.974-1.547-2.155-1.547-3.545c0-2.148,0.995-3.842,2.986-5.081c1.991-1.238,4.834-1.951,8.529-2.138v-2.514
			c0-2.692-1.461-4.039-4.383-4.039c-1.862,0-3.875,0.838-6.037,2.514v-2.17c2.234-1.403,4.361-2.105,6.381-2.105
			c1.79,0,3.266,0.44,4.426,1.321s1.74,2.159,1.74,3.835v12.311c0,0.674,0.157,1.01,0.473,1.01
			C229.094,36.004,230.032,35.417,231.508,34.242z M226.094,33.77v-6.166c-2.707-0.1-4.952,0.376-6.735,1.429
			s-2.675,2.396-2.675,4.028c0,0.917,0.372,1.69,1.117,2.32c0.745,0.631,1.676,0.945,2.793,0.945
			C222.398,36.326,224.231,35.475,226.094,33.77z"/>
		<path d="M234.494,36.584V7.666h2.105V20.75c2.105-2.148,4.483-3.223,7.133-3.223c2.578,0,4.69,0.899,6.338,2.696
			c1.647,1.798,2.471,4.114,2.471,6.95c0,3.295-1.006,5.934-3.019,7.917c-2.013,1.984-4.688,2.976-8.024,2.976
			C239.307,38.066,236.972,37.572,234.494,36.584z M236.6,23.113V35.08c1.633,0.616,3.251,0.924,4.855,0.924
			c2.549,0,4.658-0.819,6.327-2.46c1.668-1.64,2.503-3.72,2.503-6.241c0-2.334-0.645-4.254-1.934-5.758s-2.915-2.256-4.877-2.256
			C241.125,19.289,238.834,20.564,236.6,23.113z"/>
		<path d="M258.734,7.666V37.68h-2.127V7.666H258.734z"/>
		<path d="M281.379,27.066h-15.576c-0.043,0.344-0.064,0.688-0.064,1.031c0,2.206,0.788,4.075,2.363,5.607
			c1.575,1.533,3.438,2.299,5.586,2.299c2.506,0,4.956-0.98,7.348-2.943v2.385c-2.263,1.748-4.798,2.621-7.605,2.621
			c-2.851,0-5.207-0.988-7.068-2.965c-1.862-1.977-2.793-4.49-2.793-7.541c0-2.893,0.859-5.288,2.578-7.187
			c1.719-1.897,3.881-2.847,6.488-2.847c2.449,0,4.519,0.856,6.209,2.567C280.534,21.807,281.379,24.131,281.379,27.066z
			 M266.082,25.369h12.805c-0.745-3.853-2.829-5.779-6.252-5.779c-1.619,0-3.019,0.505-4.2,1.515S266.469,23.536,266.082,25.369z"/>
		<path d="M315.002,7.666V9.6h-14.051v12.01h13.686v1.955h-13.686v12.182h14.395v1.934h-16.715V7.666H315.002z"/>
		<path d="M321.512,17.914v3.438h0.086c1.646-2.549,3.817-3.824,6.51-3.824c2.234,0,4.018,0.717,5.35,2.148
			c1.332,1.433,1.998,3.416,1.998,5.951V37.68h-2.105V26.422c0-4.555-1.791-6.832-5.371-6.832c-2.621,0-4.777,1.411-6.467,4.232
			V37.68h-2.105V17.914H321.512z"/>
		<path d="M356.387,17.914l-8.511,20.152h-1.269l-9.02-20.152h2.141l7.452,16.65l7.148-16.65H356.387z"/>
		<path d="M361.564,7.666v3.609h-2.127V7.666H361.564z M361.564,17.914V37.68h-2.127V17.914H361.564z"/>
		<path d="M381.051,19.869l-1.225,1.977c-1.647-1.504-2.973-2.256-3.975-2.256c-1.977,0-4.09,1.891-6.338,5.672V37.68h-2.105V17.914
			h2.105v5.199h0.086c2.363-3.724,4.669-5.586,6.918-5.586C377.807,17.527,379.317,18.309,381.051,19.869z"/>
		<path d="M391.213,17.527c2.864,0,5.253,0.981,7.165,2.943c1.912,1.963,2.868,4.412,2.868,7.348c0,2.922-0.956,5.36-2.868,7.315
			s-4.301,2.933-7.165,2.933c-2.865,0-5.261-0.978-7.187-2.933c-1.927-1.955-2.89-4.394-2.89-7.315c0-2.936,0.963-5.385,2.89-7.348
			C385.952,18.509,388.348,17.527,391.213,17.527z M391.213,36.004c2.22,0,4.074-0.776,5.564-2.331
			c1.489-1.554,2.234-3.505,2.234-5.854c0-2.334-0.749-4.289-2.245-5.865c-1.497-1.575-3.349-2.363-5.554-2.363
			c-2.234,0-4.101,0.781-5.597,2.342c-1.497,1.562-2.245,3.523-2.245,5.887c0,2.35,0.748,4.301,2.245,5.854
			C387.112,35.228,388.979,36.004,391.213,36.004z"/>
		<path d="M407.971,17.914v3.438h0.086c1.646-2.549,3.816-3.824,6.51-3.824c2.234,0,4.018,0.717,5.35,2.148
			c1.332,1.433,1.998,3.416,1.998,5.951V37.68h-2.105V26.422c0-4.555-1.791-6.832-5.371-6.832c-2.621,0-4.777,1.411-6.467,4.232
			V37.68h-2.105V17.914H407.971z"/>
		<path d="M429.455,17.914v3.48h0.086c1.604-2.578,3.702-3.867,6.295-3.867c3.021,0,5.148,1.583,6.381,4.748
			c1.859-3.165,4.147-4.748,6.864-4.748c2.045,0,3.696,0.73,4.955,2.191c1.258,1.461,1.888,3.402,1.888,5.822V37.68h-2.105V26.465
			c0-2.134-0.45-3.813-1.351-5.038c-0.901-1.225-2.166-1.837-3.796-1.837c-1.215,0-2.273,0.365-3.174,1.096
			s-1.829,1.905-2.787,3.523V37.68h-2.127V26.422c0-2.191-0.47-3.878-1.407-5.06c-0.938-1.182-2.195-1.772-3.771-1.772
			c-2.292,0-4.275,1.411-5.951,4.232V37.68h-2.105V17.914H429.455z"/>
		<path d="M478.203,27.066h-15.576c-0.043,0.344-0.064,0.688-0.064,1.031c0,2.206,0.787,4.075,2.363,5.607
			c1.575,1.533,3.438,2.299,5.586,2.299c2.506,0,4.955-0.98,7.348-2.943v2.385c-2.264,1.748-4.799,2.621-7.605,2.621
			c-2.851,0-5.207-0.988-7.068-2.965c-1.862-1.977-2.793-4.49-2.793-7.541c0-2.893,0.859-5.288,2.578-7.187
			c1.719-1.897,3.881-2.847,6.488-2.847c2.449,0,4.519,0.856,6.209,2.567C477.357,21.807,478.203,24.131,478.203,27.066z
			 M462.906,25.369h12.805c-0.745-3.853-2.829-5.779-6.252-5.779c-1.619,0-3.019,0.505-4.2,1.515S463.293,23.536,462.906,25.369z"/>
		<path d="M484.541,17.914v3.438h0.086c1.646-2.549,3.816-3.824,6.51-3.824c2.234,0,4.018,0.717,5.35,2.148
			c1.332,1.433,1.998,3.416,1.998,5.951V37.68h-2.105V26.422c0-4.555-1.791-6.832-5.371-6.832c-2.621,0-4.777,1.411-6.467,4.232
			V37.68h-2.105V17.914H484.541z"/>
		<path d="M507.873,11.361v6.553h5.543v1.719h-5.543v11.752c0,1.891,0.153,3.134,0.462,3.728c0.308,0.595,1.135,0.892,2.481,0.892
			c1.031,0,2.234-0.322,3.609-0.967v2.02c-1.39,0.673-2.75,1.01-4.082,1.01c-1.304,0-2.393-0.373-3.266-1.117
			c-0.874-0.744-1.311-1.775-1.311-3.094V19.633h-5.328v-1.719h5.328v-4.705l1.439-1.848H507.873z"/>
	</g>
	<rect x="8.316" y="59.787" fill-rule="evenodd" clip-rule="evenodd" fill="#AAC46C" width="552.625" height="107.576"/>
	
		<rect x="8.316" y="59.787" fill="none" stroke="#839950" stroke-width="2" stroke-linejoin="round" stroke-miterlimit="10" width="552.625" height="107.576"/>
	<g>
		<path fill="#FFFFFF" d="M169.173,103.418v24.557h-1.74v-1.266c-1.477,1.055-3.07,1.582-4.781,1.582
			c-2.297,0-4.233-0.812-5.81-2.435s-2.364-3.618-2.364-5.985c0-2.402,0.776-4.4,2.329-5.994s3.501-2.391,5.845-2.391
			c1.488,0,3.082,0.434,4.781,1.301v-9.369H169.173z M167.433,125.127v-10.441c-1.547-1.008-3.117-1.512-4.711-1.512
			c-1.863,0-3.398,0.618-4.605,1.854s-1.811,2.815-1.811,4.737c0,1.957,0.645,3.586,1.934,4.887s2.9,1.951,4.834,1.951
			C164.574,126.604,166.027,126.111,167.433,125.127z"/>
		<path fill="#FFFFFF" d="M186.505,125.162v1.441c-1.488,1.125-2.578,1.688-3.27,1.688c-0.398,0-0.674-0.132-0.826-0.396
			s-0.264-0.8-0.334-1.608c-1.699,1.336-3.387,2.004-5.062,2.004c-1.219,0-2.25-0.398-3.094-1.195s-1.266-1.764-1.266-2.9
			c0-1.758,0.814-3.144,2.443-4.157s3.955-1.597,6.979-1.749v-2.057c0-2.203-1.195-3.305-3.586-3.305
			c-1.523,0-3.17,0.686-4.939,2.057v-1.775c1.828-1.148,3.568-1.723,5.221-1.723c1.465,0,2.672,0.36,3.621,1.081
			s1.424,1.767,1.424,3.138v10.072c0,0.551,0.129,0.826,0.387,0.826C184.531,126.604,185.298,126.123,186.505,125.162z
			 M182.076,124.775v-5.045c-2.215-0.082-4.052,0.308-5.511,1.169s-2.188,1.96-2.188,3.296c0,0.75,0.305,1.383,0.914,1.898
			s1.371,0.773,2.285,0.773C179.052,126.867,180.552,126.17,182.076,124.775z"/>
		<path fill="#FFFFFF" d="M192.113,106.441v5.361h4.535v1.406h-4.535v9.615c0,1.547,0.126,2.563,0.378,3.05s0.929,0.729,2.03,0.729
			c0.844,0,1.828-0.264,2.953-0.791v1.652c-1.137,0.551-2.25,0.826-3.34,0.826c-1.066,0-1.957-0.305-2.672-0.914
			s-1.072-1.453-1.072-2.531v-11.637h-4.359v-1.406h4.359v-3.85l1.178-1.512H192.113z"/>
		<path fill="#FFFFFF" d="M212.732,125.162v1.441c-1.488,1.125-2.578,1.688-3.27,1.688c-0.398,0-0.674-0.132-0.826-0.396
			s-0.264-0.8-0.334-1.608c-1.699,1.336-3.387,2.004-5.062,2.004c-1.219,0-2.25-0.398-3.094-1.195s-1.266-1.764-1.266-2.9
			c0-1.758,0.814-3.144,2.443-4.157s3.955-1.597,6.979-1.749v-2.057c0-2.203-1.195-3.305-3.586-3.305
			c-1.523,0-3.17,0.686-4.939,2.057v-1.775c1.828-1.148,3.568-1.723,5.221-1.723c1.465,0,2.672,0.36,3.621,1.081
			s1.424,1.767,1.424,3.138v10.072c0,0.551,0.129,0.826,0.387,0.826C210.757,126.604,211.525,126.123,212.732,125.162z
			 M208.302,124.775v-5.045c-2.215-0.082-4.052,0.308-5.511,1.169s-2.188,1.96-2.188,3.296c0,0.75,0.305,1.383,0.914,1.898
			s1.371,0.773,2.285,0.773C205.279,126.867,206.779,126.17,208.302,124.775z"/>
		<path fill="#FFFFFF" d="M229.115,103.418v24.557h-1.74v-1.266c-1.477,1.055-3.07,1.582-4.781,1.582
			c-2.297,0-4.233-0.812-5.81-2.435s-2.364-3.618-2.364-5.985c0-2.402,0.776-4.4,2.329-5.994s3.501-2.391,5.845-2.391
			c1.488,0,3.082,0.434,4.781,1.301v-9.369H229.115z M227.375,125.127v-10.441c-1.547-1.008-3.117-1.512-4.711-1.512
			c-1.863,0-3.398,0.618-4.605,1.854s-1.811,2.815-1.811,4.737c0,1.957,0.645,3.586,1.934,4.887s2.9,1.951,4.834,1.951
			C224.515,126.604,225.968,126.111,227.375,125.127z"/>
		<path fill="#FFFFFF" d="M244.724,113.402l-1.002,1.617c-1.348-1.23-2.432-1.846-3.252-1.846c-1.617,0-3.346,1.547-5.186,4.641
			v10.16h-1.723v-16.172h1.723v4.254h0.07c1.934-3.047,3.82-4.57,5.66-4.57C242.07,111.486,243.306,112.125,244.724,113.402z"/>
		<path fill="#FFFFFF" d="M261.311,103.102h1.659l-7.885,25.189h-1.695L261.311,103.102z"/>
		<path fill="#FFFFFF" d="M278.791,106.441v5.361h4.536v1.406h-4.536v9.615c0,1.547,0.126,2.563,0.378,3.05s0.929,0.729,2.03,0.729
			c0.844,0,1.829-0.264,2.954-0.791v1.652c-1.137,0.551-2.25,0.826-3.34,0.826c-1.066,0-1.957-0.305-2.672-0.914
			s-1.072-1.453-1.072-2.531v-11.637h-4.359v-1.406h4.359v-3.85l1.178-1.512H278.791z"/>
		<path fill="#FFFFFF" d="M297.688,113.402l-1.002,1.617c-1.348-1.23-2.432-1.846-3.252-1.846c-1.617,0-3.346,1.547-5.186,4.641
			v10.16h-1.723v-16.172h1.723v4.254h0.07c1.934-3.047,3.82-4.57,5.66-4.57C295.033,111.486,296.27,112.125,297.688,113.402z"/>
		<path fill="#FFFFFF" d="M312.26,119.291h-12.744c-0.035,0.281-0.053,0.562-0.053,0.844c0,1.805,0.645,3.334,1.934,4.588
			s2.812,1.881,4.57,1.881c2.051,0,4.055-0.803,6.012-2.408v1.951c-1.852,1.43-3.926,2.145-6.223,2.145
			c-2.332,0-4.26-0.809-5.783-2.426s-2.285-3.674-2.285-6.17c0-2.367,0.703-4.327,2.109-5.88s3.176-2.329,5.309-2.329
			c2.004,0,3.697,0.7,5.08,2.101S312.26,116.889,312.26,119.291z M299.744,117.902h10.477c-0.609-3.152-2.314-4.729-5.115-4.729
			c-1.324,0-2.471,0.413-3.438,1.239S300.061,116.402,299.744,117.902z"/>
		<path fill="#FFFFFF" d="M317.744,103.418v24.557h-1.74v-24.557H317.744z"/>
		<path fill="#FFFFFF" d="M324.512,103.418v24.557h-1.74v-24.557H324.512z"/>
		<path fill="#FFFFFF" d="M331.279,103.418v2.953h-1.74v-2.953H331.279z M331.279,111.803v16.172h-1.74v-16.172H331.279z"/>
		<path fill="#FFFFFF" d="M344.92,112.857v1.863c-1.641-1.102-3.117-1.652-4.43-1.652c-0.973,0-1.793,0.263-2.461,0.789
			c-0.668,0.525-1.002,1.174-1.002,1.945c0,0.549,0.203,1.055,0.609,1.517c0.406,0.461,1.525,1.046,3.357,1.754
			s3.029,1.442,3.592,2.204s0.844,1.611,0.844,2.549c0,1.254-0.51,2.312-1.529,3.173s-2.279,1.292-3.779,1.292
			c-1.629,0-3.246-0.492-4.852-1.477v-1.688c1.91,0.984,3.604,1.477,5.08,1.477c0.996,0,1.812-0.264,2.451-0.79
			c0.639-0.527,0.959-1.201,0.959-2.021c0-0.562-0.209-1.081-0.625-1.555c-0.416-0.475-1.541-1.076-3.375-1.804
			c-1.834-0.727-3.023-1.445-3.568-2.154s-0.816-1.497-0.816-2.364c0-1.23,0.506-2.276,1.52-3.138s2.248-1.292,3.701-1.292
			C341.92,111.486,343.361,111.943,344.92,112.857z"/>
		<path fill="#FFFFFF" d="M360.178,112.277v1.916c-1.547-0.68-2.947-1.02-4.201-1.02c-1.805,0-3.273,0.627-4.404,1.881
			s-1.695,2.883-1.695,4.887c0,2.039,0.564,3.659,1.695,4.86s2.646,1.802,4.545,1.802c1.383,0,2.836-0.311,4.359-0.932v1.793
			c-1.617,0.551-3.117,0.826-4.5,0.826c-2.367,0-4.281-0.75-5.74-2.25s-2.188-3.469-2.188-5.906c0-2.543,0.734-4.62,2.205-6.231
			s3.35-2.417,5.635-2.417C357.143,111.486,358.572,111.75,360.178,112.277z"/>
		<path fill="#FFFFFF" d="M371.305,111.486c2.344,0,4.297,0.803,5.861,2.408s2.348,3.609,2.348,6.012
			c0,2.391-0.783,4.386-2.348,5.985s-3.518,2.399-5.861,2.399s-4.305-0.8-5.881-2.399s-2.363-3.595-2.363-5.985
			c0-2.402,0.787-4.406,2.363-6.012S368.961,111.486,371.305,111.486z M371.305,126.604c1.816,0,3.334-0.636,4.553-1.907
			s1.828-2.868,1.828-4.79c0-1.91-0.613-3.51-1.838-4.799s-2.738-1.934-4.543-1.934c-1.828,0-3.355,0.639-4.58,1.916
			s-1.836,2.883-1.836,4.816c0,1.922,0.611,3.519,1.836,4.79S369.477,126.604,371.305,126.604z"/>
		<path fill="#FFFFFF" d="M385.051,111.803v0.914c1.629-0.82,3.252-1.23,4.869-1.23c2.297,0,4.201,0.791,5.713,2.373
			s2.268,3.574,2.268,5.977c0,2.367-0.779,4.368-2.338,6.003s-3.463,2.452-5.713,2.452c-1.559,0-3.158-0.404-4.799-1.213v9.176
			h-1.723v-24.451H385.051z M385.051,114.369v11.021c1.465,0.809,2.953,1.213,4.465,1.213c1.934,0,3.498-0.609,4.693-1.828
			s1.793-2.818,1.793-4.799c0-1.969-0.633-3.595-1.898-4.878s-2.865-1.925-4.799-1.925
			C387.922,113.174,386.504,113.572,385.051,114.369z"/>
		<path fill="#FFFFFF" d="M415.426,119.291h-12.744c-0.035,0.281-0.053,0.562-0.053,0.844c0,1.805,0.645,3.334,1.934,4.588
			s2.812,1.881,4.57,1.881c2.051,0,4.055-0.803,6.012-2.408v1.951c-1.852,1.43-3.926,2.145-6.223,2.145
			c-2.332,0-4.26-0.809-5.783-2.426s-2.285-3.674-2.285-6.17c0-2.367,0.703-4.327,2.109-5.88s3.176-2.329,5.309-2.329
			c2.004,0,3.697,0.7,5.08,2.101S415.426,116.889,415.426,119.291z M402.91,117.902h10.477c-0.609-3.152-2.314-4.729-5.115-4.729
			c-1.324,0-2.471,0.413-3.438,1.239S403.227,116.402,402.91,117.902z"/>
	</g>
	<rect x="8.316" y="287.025" fill-rule="evenodd" clip-rule="evenodd" fill="#6095C9" width="552.625" height="107.371"/>
	
		<rect x="8.316" y="287.025" fill="none" stroke="#47719C" stroke-width="2" stroke-linejoin="round" stroke-miterlimit="10" width="552.625" height="107.371"/>
	<g>
		<path fill="#FFFFFF" d="M191.322,330.555l-11.756,12.267l12.881,12.29h-2.416l-12.859-12.27v12.27h-1.898v-24.557h1.898v12.217
			l11.781-12.217H191.322z"/>
		<path fill="#FFFFFF" d="M207.652,346.428h-12.744c-0.035,0.281-0.053,0.562-0.053,0.844c0,1.805,0.645,3.334,1.934,4.588
			s2.812,1.881,4.57,1.881c2.051,0,4.055-0.803,6.012-2.408v1.951c-1.852,1.43-3.926,2.145-6.223,2.145
			c-2.332,0-4.26-0.809-5.783-2.426s-2.285-3.674-2.285-6.17c0-2.367,0.703-4.327,2.109-5.88s3.176-2.329,5.309-2.329
			c2.004,0,3.697,0.7,5.08,2.101S207.652,344.025,207.652,346.428z M195.136,345.039h10.477c-0.609-3.152-2.314-4.729-5.115-4.729
			c-1.324,0-2.47,0.413-3.437,1.239S195.453,343.539,195.136,345.039z"/>
		<path fill="#FFFFFF" d="M224.123,338.939l-12.104,24.451h-1.766l5.655-11.423l-6.815-13.028h1.809l5.867,11.291l5.59-11.291
			H224.123z"/>
		<path fill="#FFFFFF" d="M231.92,330.238h1.659l-7.885,25.189H224L231.92,330.238z"/>
		<path fill="#FFFFFF" d="M255.289,330.555l-10.291,24.803h-0.561l-10.331-24.803h1.924l8.702,20.777l8.64-20.777H255.289z"/>
		<path fill="#FFFFFF" d="M268.782,352.299v1.441c-1.488,1.125-2.578,1.688-3.27,1.688c-0.398,0-0.674-0.132-0.826-0.396
			s-0.264-0.8-0.334-1.608c-1.699,1.336-3.387,2.004-5.062,2.004c-1.219,0-2.25-0.398-3.094-1.195s-1.266-1.764-1.266-2.9
			c0-1.758,0.814-3.144,2.443-4.157s3.955-1.597,6.979-1.749v-2.057c0-2.203-1.195-3.305-3.586-3.305
			c-1.523,0-3.17,0.686-4.939,2.057v-1.775c1.828-1.148,3.568-1.723,5.221-1.723c1.465,0,2.672,0.36,3.621,1.081
			s1.424,1.767,1.424,3.138v10.072c0,0.551,0.129,0.826,0.387,0.826C266.808,353.74,267.575,353.26,268.782,352.299z
			 M264.353,351.912v-5.045c-2.215-0.082-4.052,0.308-5.511,1.169s-2.188,1.96-2.188,3.296c0,0.75,0.305,1.383,0.914,1.898
			s1.371,0.773,2.285,0.773C261.329,354.004,262.829,353.307,264.353,351.912z"/>
		<path fill="#FFFFFF" d="M273.247,330.555v24.557h-1.74v-24.557H273.247z"/>
		<path fill="#FFFFFF" d="M289.401,355.111v-2.672h-0.07c-0.75,1.078-1.521,1.846-2.312,2.303s-1.796,0.686-3.015,0.686
			c-1.734,0-3.17-0.562-4.307-1.688s-1.705-2.719-1.705-4.781v-10.02h1.723v9.984c0,1.5,0.41,2.678,1.23,3.533
			s1.887,1.283,3.199,1.283c1.125,0,2.083-0.258,2.874-0.773s1.585-1.406,2.382-2.672v-11.355h1.723v16.172H289.401z"/>
		<path fill="#FFFFFF" d="M309.423,346.428h-12.744c-0.035,0.281-0.053,0.562-0.053,0.844c0,1.805,0.645,3.334,1.934,4.588
			s2.812,1.881,4.57,1.881c2.051,0,4.055-0.803,6.012-2.408v1.951c-1.852,1.43-3.926,2.145-6.223,2.145
			c-2.332,0-4.26-0.809-5.783-2.426s-2.285-3.674-2.285-6.17c0-2.367,0.703-4.327,2.109-5.88s3.176-2.329,5.309-2.329
			c2.004,0,3.697,0.7,5.08,2.101S309.423,344.025,309.423,346.428z M296.907,345.039h10.477c-0.609-3.152-2.314-4.729-5.115-4.729
			c-1.324,0-2.47,0.413-3.437,1.239S297.224,343.539,296.907,345.039z"/>
		<path fill="#FFFFFF" d="M335.052,331.785v2.092c-2.133-1.254-3.967-1.881-5.502-1.881c-1.477,0-2.71,0.448-3.7,1.345
			s-1.485,2.007-1.485,3.331c0,0.949,0.293,1.805,0.879,2.566s1.811,1.494,3.674,2.197s3.223,1.289,4.078,1.758
			s1.582,1.148,2.18,2.039s0.896,2.045,0.896,3.463c0,1.887-0.691,3.48-2.074,4.781s-3.07,1.951-5.062,1.951
			c-2.039,0-4.137-0.715-6.293-2.145v-2.232c2.379,1.746,4.441,2.619,6.188,2.619c1.453,0,2.681-0.472,3.683-1.415
			s1.503-2.101,1.503-3.473c0-1.043-0.311-1.983-0.932-2.821s-1.88-1.621-3.778-2.35c-1.897-0.729-3.254-1.315-4.068-1.761
			c-0.815-0.444-1.507-1.08-2.076-1.906c-0.568-0.825-0.853-1.888-0.853-3.188c0-1.804,0.691-3.341,2.074-4.611
			s3.047-1.906,4.992-1.906C331.284,330.238,333.177,330.754,335.052,331.785z"/>
		<path fill="#FFFFFF" d="M342.944,333.578v5.361h4.535v1.406h-4.535v9.615c0,1.547,0.126,2.563,0.378,3.05s0.929,0.729,2.03,0.729
			c0.844,0,1.828-0.264,2.953-0.791v1.652c-1.137,0.551-2.25,0.826-3.34,0.826c-1.066,0-1.957-0.305-2.672-0.914
			s-1.072-1.453-1.072-2.531v-11.637h-4.359v-1.406h4.359v-3.85l1.178-1.512H342.944z"/>
		<path fill="#FFFFFF" d="M358.167,338.623c2.344,0,4.298,0.803,5.862,2.408s2.347,3.609,2.347,6.012
			c0,2.391-0.782,4.386-2.347,5.985s-3.519,2.399-5.862,2.399s-4.304-0.8-5.88-2.399s-2.364-3.595-2.364-5.985
			c0-2.402,0.788-4.406,2.364-6.012S355.823,338.623,358.167,338.623z M358.167,353.74c1.816,0,3.334-0.636,4.553-1.907
			s1.828-2.868,1.828-4.79c0-1.91-0.612-3.51-1.837-4.799s-2.739-1.934-4.544-1.934c-1.828,0-3.354,0.639-4.579,1.916
			s-1.837,2.883-1.837,4.816c0,1.922,0.612,3.519,1.837,4.79S356.339,353.74,358.167,353.74z"/>
		<path fill="#FFFFFF" d="M381.352,340.539l-1.002,1.617c-1.348-1.23-2.432-1.846-3.252-1.846c-1.616,0-3.345,1.547-5.185,4.641
			v10.16h-1.723v-16.172h1.723v4.254h0.07c1.934-3.047,3.819-4.57,5.659-4.57C378.697,338.623,379.934,339.262,381.352,340.539z"/>
		<path fill="#FFFFFF" d="M395.926,346.428h-12.744c-0.035,0.281-0.053,0.562-0.053,0.844c0,1.805,0.645,3.334,1.934,4.588
			s2.812,1.881,4.57,1.881c2.051,0,4.055-0.803,6.012-2.408v1.951c-1.852,1.43-3.926,2.145-6.223,2.145
			c-2.332,0-4.26-0.809-5.783-2.426s-2.285-3.674-2.285-6.17c0-2.367,0.703-4.327,2.109-5.88s3.176-2.329,5.309-2.329
			c2.004,0,3.697,0.7,5.08,2.101S395.926,344.025,395.926,346.428z M383.41,345.039h10.477c-0.609-3.152-2.314-4.729-5.115-4.729
			c-1.324,0-2.471,0.413-3.438,1.239S383.727,343.539,383.41,345.039z"/>
	</g>
	<rect x="8.316" y="173.861" fill-rule="evenodd" clip-rule="evenodd" fill="#CD665F" width="552.625" height="107.44"/>
	
		<rect x="8.316" y="173.861" fill="none" stroke="#9F4B46" stroke-width="2" stroke-linejoin="round" stroke-miterlimit="10" width="552.625" height="107.44"/>
	<g>
		<path fill="#FFFFFF" d="M214.912,228.83l9.329-11.405h1.921v24.557h-1.916v-21.779l-9.343,11.479l-9.378-11.479v21.779h-1.898
			v-24.557h1.899L214.912,228.83z"/>
		<path fill="#FFFFFF" d="M244.109,239.169v1.441c-1.488,1.125-2.578,1.688-3.27,1.688c-0.398,0-0.674-0.132-0.826-0.396
			s-0.264-0.8-0.334-1.608c-1.699,1.336-3.387,2.004-5.062,2.004c-1.219,0-2.25-0.398-3.094-1.195s-1.266-1.764-1.266-2.9
			c0-1.758,0.814-3.144,2.443-4.157s3.955-1.597,6.979-1.749v-2.057c0-2.203-1.195-3.305-3.586-3.305
			c-1.523,0-3.17,0.686-4.939,2.057v-1.775c1.828-1.148,3.568-1.723,5.221-1.723c1.465,0,2.672,0.36,3.621,1.081
			s1.424,1.767,1.424,3.138v10.072c0,0.551,0.129,0.826,0.387,0.826C242.134,240.61,242.902,240.13,244.109,239.169z
			 M239.679,238.782v-5.045c-2.215-0.082-4.052,0.308-5.511,1.169s-2.188,1.96-2.188,3.296c0,0.75,0.305,1.383,0.914,1.898
			s1.371,0.773,2.285,0.773C236.656,240.874,238.156,240.177,239.679,238.782z"/>
		<path fill="#FFFFFF" d="M248.31,225.81v0.914c1.629-0.82,3.252-1.23,4.869-1.23c2.297,0,4.201,0.791,5.713,2.373
			s2.268,3.574,2.268,5.977c0,2.367-0.779,4.368-2.338,6.003s-3.463,2.452-5.713,2.452c-1.559,0-3.158-0.404-4.799-1.213v9.176
			h-1.723V225.81H248.31z M248.31,228.376v11.021c1.465,0.809,2.953,1.213,4.465,1.213c1.934,0,3.498-0.609,4.693-1.828
			s1.793-2.818,1.793-4.799c0-1.969-0.633-3.595-1.898-4.878s-2.865-1.925-4.799-1.925
			C251.181,227.181,249.763,227.579,248.31,228.376z"/>
		<path fill="#FFFFFF" d="M265.519,217.425h6.293c2.637,0,4.652,0.571,6.047,1.714s2.092,2.687,2.092,4.632
			c0,2.836-1.559,4.828-4.676,5.977c0.809,0.387,1.898,1.635,3.27,3.744l5.555,8.49h-2.248l-4.278-6.73
			c-1.429-2.251-2.542-3.654-3.338-4.211c-0.797-0.558-1.963-0.836-3.497-0.836h-3.321v11.777h-1.898V217.425z M267.417,219.007
			v9.615h4.078c2.074,0,3.659-0.419,4.755-1.257s1.644-2.024,1.644-3.56c0-1.512-0.557-2.689-1.67-3.533s-2.713-1.266-4.799-1.266
			H267.417z"/>
		<path fill="#FFFFFF" d="M299.322,233.298h-12.744c-0.035,0.281-0.053,0.562-0.053,0.844c0,1.805,0.645,3.334,1.934,4.588
			s2.812,1.881,4.57,1.881c2.051,0,4.055-0.803,6.012-2.408v1.951c-1.852,1.43-3.926,2.145-6.223,2.145
			c-2.332,0-4.26-0.809-5.783-2.426s-2.285-3.674-2.285-6.17c0-2.367,0.703-4.327,2.109-5.88s3.176-2.329,5.309-2.329
			c2.004,0,3.697,0.7,5.08,2.101S299.322,230.896,299.322,233.298z M286.807,231.909h10.477c-0.609-3.152-2.314-4.729-5.115-4.729
			c-1.324,0-2.471,0.413-3.438,1.239S287.123,230.409,286.807,231.909z"/>
		<path fill="#FFFFFF" d="M316.725,217.425v24.557h-1.74v-1.266c-1.477,1.055-3.07,1.582-4.781,1.582
			c-2.297,0-4.234-0.812-5.811-2.435s-2.363-3.618-2.363-5.985c0-2.402,0.775-4.4,2.328-5.994s3.502-2.391,5.846-2.391
			c1.488,0,3.082,0.434,4.781,1.301v-9.369H316.725z M314.984,239.134v-10.441c-1.547-1.008-3.117-1.512-4.711-1.512
			c-1.863,0-3.398,0.618-4.605,1.854s-1.811,2.815-1.811,4.737c0,1.957,0.645,3.586,1.934,4.887s2.9,1.951,4.834,1.951
			C312.125,240.61,313.578,240.118,314.984,239.134z"/>
		<path fill="#FFFFFF" d="M332.545,241.981v-2.672h-0.07c-0.75,1.078-1.521,1.846-2.312,2.303s-1.795,0.686-3.014,0.686
			c-1.734,0-3.17-0.562-4.307-1.688s-1.705-2.719-1.705-4.781v-10.02h1.723v9.984c0,1.5,0.41,2.678,1.23,3.533
			s1.887,1.283,3.199,1.283c1.125,0,2.082-0.258,2.873-0.773s1.586-1.406,2.383-2.672V225.81h1.723v16.172H332.545z"/>
		<path fill="#FFFFFF" d="M350.193,226.284v1.916c-1.547-0.68-2.947-1.02-4.201-1.02c-1.805,0-3.273,0.627-4.404,1.881
			s-1.695,2.883-1.695,4.887c0,2.039,0.564,3.659,1.695,4.86s2.646,1.802,4.545,1.802c1.383,0,2.836-0.311,4.359-0.932v1.793
			c-1.617,0.551-3.117,0.826-4.5,0.826c-2.367,0-4.281-0.75-5.74-2.25s-2.188-3.469-2.188-5.906c0-2.543,0.734-4.62,2.205-6.231
			s3.35-2.417,5.635-2.417C347.158,225.493,348.588,225.757,350.193,226.284z"/>
		<path fill="#FFFFFF" d="M367.578,233.298h-12.744c-0.035,0.281-0.053,0.562-0.053,0.844c0,1.805,0.645,3.334,1.934,4.588
			s2.812,1.881,4.57,1.881c2.051,0,4.055-0.803,6.012-2.408v1.951c-1.852,1.43-3.926,2.145-6.223,2.145
			c-2.332,0-4.26-0.809-5.783-2.426s-2.285-3.674-2.285-6.17c0-2.367,0.703-4.327,2.109-5.88s3.176-2.329,5.309-2.329
			c2.004,0,3.697,0.7,5.08,2.101S367.578,230.896,367.578,233.298z M355.062,231.909h10.477c-0.609-3.152-2.314-4.729-5.115-4.729
			c-1.324,0-2.471,0.413-3.438,1.239S355.379,230.409,355.062,231.909z"/>
	</g>
	
		<rect x="9.797" y="61.269" opacity="0.5412" fill-rule="evenodd" clip-rule="evenodd" fill="#E0E0E0" width="82.7" height="31.505"/>
	<g>
		<path d="M19.615,71.226v13.643H18.56V71.226H19.615z"/>
		<path d="M23.355,75.884v1.562h0.039c0.749-1.159,1.735-1.738,2.959-1.738c1.016,0,1.826,0.325,2.432,0.977
			s0.908,1.553,0.908,2.705v5.479h-0.957v-5.117c0-2.07-0.814-3.105-2.441-3.105c-1.191,0-2.171,0.642-2.939,1.924v6.299h-0.957
			v-8.984H23.355z"/>
		<path d="M33.96,72.905v2.979h2.52v0.781h-2.52v5.342c0,0.859,0.07,1.424,0.21,1.694s0.516,0.405,1.128,0.405
			c0.469,0,1.016-0.146,1.641-0.439v0.918c-0.631,0.306-1.25,0.459-1.855,0.459c-0.592,0-1.087-0.169-1.484-0.508
			s-0.596-0.808-0.596-1.406v-6.465h-2.422v-0.781h2.422v-2.139l0.654-0.84H33.96z"/>
		<path d="M45.894,80.044h-7.08c-0.02,0.156-0.029,0.312-0.029,0.469c0,1.003,0.358,1.853,1.074,2.549s1.562,1.045,2.539,1.045
			c1.139,0,2.252-0.446,3.34-1.338v1.084c-1.029,0.794-2.181,1.191-3.457,1.191c-1.295,0-2.367-0.449-3.213-1.348
			s-1.27-2.041-1.27-3.428c0-1.315,0.391-2.404,1.172-3.267s1.764-1.294,2.949-1.294c1.113,0,2.054,0.389,2.822,1.167
			S45.894,78.709,45.894,80.044z M38.941,79.272h5.82c-0.338-1.751-1.286-2.627-2.842-2.627c-0.736,0-1.372,0.229-1.909,0.688
			S39.117,78.439,38.941,79.272z"/>
		<path d="M54.039,76.772l-0.557,0.898c-0.749-0.684-1.351-1.025-1.807-1.025c-0.898,0-1.859,0.859-2.881,2.578v5.645h-0.957v-8.984
			h0.957v2.363h0.039c1.074-1.692,2.123-2.539,3.145-2.539C52.564,75.708,53.251,76.062,54.039,76.772z"/>
		<path d="M59.878,71.431v0.898c-0.645-0.228-1.185-0.342-1.621-0.342c-1.452,0-2.178,0.928-2.178,2.783v1.113h1.738v0.781H56.08
			v8.203h-0.957v-8.203h-1.66v-0.781h1.66v-1.475c0-1.035,0.301-1.854,0.903-2.456s1.339-0.903,2.212-0.903
			C58.713,71.05,59.26,71.177,59.878,71.431z"/>
		<path d="M66.46,83.306v0.801c-0.827,0.625-1.432,0.938-1.816,0.938c-0.221,0-0.375-0.073-0.459-0.22S64.039,84.38,64,83.931
			c-0.944,0.742-1.881,1.113-2.812,1.113c-0.677,0-1.25-0.222-1.719-0.664s-0.703-0.979-0.703-1.611c0-0.977,0.453-1.746,1.357-2.31
			S62.32,79.572,64,79.487v-1.143c0-1.224-0.664-1.836-1.992-1.836c-0.846,0-1.761,0.381-2.744,1.143v-0.986
			c1.016-0.638,1.982-0.957,2.9-0.957c0.814,0,1.484,0.2,2.012,0.601s0.791,0.981,0.791,1.743v5.596
			c0,0.306,0.072,0.459,0.215,0.459C65.363,84.106,65.79,83.84,66.46,83.306z M64,83.091v-2.803
			c-1.23-0.046-2.251,0.171-3.062,0.649s-1.216,1.089-1.216,1.831c0,0.417,0.169,0.769,0.508,1.055s0.762,0.43,1.27,0.43
			C62.32,84.253,63.153,83.865,64,83.091z"/>
		<path d="M74.156,76.147v1.064c-0.859-0.378-1.637-0.566-2.334-0.566c-1.002,0-1.818,0.349-2.446,1.045s-0.942,1.602-0.942,2.715
			c0,1.133,0.314,2.033,0.942,2.7s1.47,1.001,2.524,1.001c0.768,0,1.576-0.173,2.422-0.518v0.996
			c-0.898,0.306-1.732,0.459-2.5,0.459c-1.315,0-2.378-0.417-3.188-1.25s-1.216-1.927-1.216-3.281c0-1.413,0.409-2.566,1.226-3.462
			s1.86-1.343,3.13-1.343C72.47,75.708,73.264,75.854,74.156,76.147z"/>
		<path d="M83.814,80.044h-7.08c-0.02,0.156-0.029,0.312-0.029,0.469c0,1.003,0.358,1.853,1.074,2.549s1.562,1.045,2.539,1.045
			c1.139,0,2.252-0.446,3.34-1.338v1.084c-1.029,0.794-2.181,1.191-3.457,1.191c-1.295,0-2.367-0.449-3.213-1.348
			s-1.27-2.041-1.27-3.428c0-1.315,0.391-2.404,1.172-3.267s1.764-1.294,2.949-1.294c1.113,0,2.054,0.389,2.822,1.167
			S83.814,78.709,83.814,80.044z M76.861,79.272h5.82c-0.338-1.751-1.286-2.627-2.842-2.627c-0.736,0-1.372,0.229-1.909,0.688
			S77.037,78.439,76.861,79.272z"/>
	</g>
	
		<rect x="9.797" y="175.343" opacity="0.5412" fill-rule="evenodd" clip-rule="evenodd" fill="#E0E0E0" width="120.369" height="31.505"/>
	<g>
		<path d="M29.937,186.268v1.152c-1.654-0.879-3.275-1.318-4.863-1.318c-1.693,0-3.109,0.576-4.248,1.729s-1.709,2.591-1.709,4.316
			c0,1.745,0.573,3.181,1.719,4.307s2.607,1.689,4.385,1.689c1.484,0,3.102-0.466,4.854-1.396v1.094
			c-1.615,0.853-3.226,1.279-4.834,1.279c-2.077,0-3.807-0.666-5.19-1.997s-2.075-2.99-2.075-4.976c0-1.999,0.707-3.669,2.119-5.01
			s3.096-2.012,5.049-2.012C26.679,185.125,28.277,185.506,29.937,186.268z"/>
		<path d="M35.953,189.783c1.302,0,2.388,0.446,3.257,1.338s1.304,2.005,1.304,3.34c0,1.328-0.435,2.437-1.304,3.325
			s-1.955,1.333-3.257,1.333s-2.391-0.444-3.267-1.333s-1.313-1.997-1.313-3.325c0-1.335,0.438-2.448,1.313-3.34
			S34.65,189.783,35.953,189.783z M35.953,198.182c1.009,0,1.852-0.354,2.529-1.06s1.016-1.594,1.016-2.661
			c0-1.062-0.34-1.95-1.021-2.666s-1.522-1.074-2.524-1.074c-1.016,0-1.864,0.354-2.544,1.064s-1.021,1.602-1.021,2.676
			c0,1.067,0.34,1.955,1.021,2.661S34.937,198.182,35.953,198.182z"/>
		<path d="M43.531,189.959v1.582h0.039c0.729-1.172,1.683-1.758,2.861-1.758c1.374,0,2.34,0.72,2.9,2.158
			c0.845-1.438,1.885-2.158,3.12-2.158c0.93,0,1.68,0.332,2.252,0.996c0.572,0.664,0.858,1.546,0.858,2.646v5.518h-0.957v-5.098
			c0-0.97-0.205-1.733-0.614-2.29c-0.409-0.557-0.984-0.835-1.725-0.835c-0.552,0-1.033,0.166-1.442,0.498s-0.832,0.866-1.267,1.602
			v6.123h-0.967v-5.117c0-0.996-0.213-1.763-0.64-2.3s-0.998-0.806-1.714-0.806c-1.042,0-1.943,0.642-2.705,1.924v6.299h-0.957
			v-8.984H43.531z"/>
		<path d="M59.009,189.959v0.508c0.905-0.456,1.807-0.684,2.705-0.684c1.276,0,2.334,0.439,3.174,1.318s1.26,1.985,1.26,3.32
			c0,1.315-0.433,2.427-1.299,3.335s-1.924,1.362-3.174,1.362c-0.866,0-1.754-0.225-2.666-0.674v5.098h-0.957v-13.584H59.009z
			 M59.009,191.385v6.123c0.814,0.449,1.641,0.674,2.48,0.674c1.074,0,1.943-0.339,2.607-1.016s0.996-1.565,0.996-2.666
			c0-1.094-0.352-1.997-1.055-2.71s-1.592-1.069-2.666-1.069C60.604,190.721,59.816,190.942,59.009,191.385z"/>
		<path d="M74.566,198.943v-1.484h-0.039c-0.417,0.599-0.845,1.025-1.284,1.279s-0.998,0.381-1.675,0.381
			c-0.963,0-1.761-0.312-2.393-0.938s-0.947-1.511-0.947-2.656v-5.566h0.957v5.547c0,0.833,0.228,1.487,0.684,1.963
			s1.048,0.713,1.777,0.713c0.625,0,1.157-0.144,1.597-0.43s0.88-0.781,1.323-1.484v-6.309h0.957v8.984H74.566z"/>
		<path d="M79.791,186.98v2.979h2.52v0.781h-2.52v5.342c0,0.859,0.07,1.424,0.21,1.694s0.516,0.405,1.128,0.405
			c0.469,0,1.016-0.146,1.641-0.439v0.918c-0.631,0.306-1.25,0.459-1.855,0.459c-0.592,0-1.087-0.169-1.484-0.508
			s-0.596-0.808-0.596-1.406v-6.465h-2.422v-0.781h2.422v-2.139l0.654-0.84H79.791z"/>
		<path d="M91.246,197.381v0.801c-0.827,0.625-1.432,0.938-1.816,0.938c-0.221,0-0.375-0.073-0.459-0.22s-0.146-0.444-0.186-0.894
			c-0.944,0.742-1.881,1.113-2.812,1.113c-0.677,0-1.25-0.222-1.719-0.664s-0.703-0.979-0.703-1.611c0-0.977,0.453-1.746,1.357-2.31
			s2.197-0.887,3.877-0.972v-1.143c0-1.224-0.664-1.836-1.992-1.836c-0.846,0-1.761,0.381-2.744,1.143v-0.986
			c1.016-0.638,1.982-0.957,2.9-0.957c0.814,0,1.484,0.2,2.012,0.601s0.791,0.981,0.791,1.743v5.596
			c0,0.306,0.072,0.459,0.215,0.459C90.148,198.182,90.575,197.915,91.246,197.381z M88.785,197.166v-2.803
			c-1.23-0.046-2.251,0.171-3.062,0.649s-1.216,1.089-1.216,1.831c0,0.417,0.169,0.769,0.508,1.055s0.762,0.43,1.27,0.43
			C87.105,198.328,87.938,197.94,88.785,197.166z"/>
		<path d="M94.361,186.98v2.979h2.52v0.781h-2.52v5.342c0,0.859,0.07,1.424,0.21,1.694s0.516,0.405,1.128,0.405
			c0.469,0,1.016-0.146,1.641-0.439v0.918c-0.631,0.306-1.25,0.459-1.855,0.459c-0.592,0-1.087-0.169-1.484-0.508
			s-0.596-0.808-0.596-1.406v-6.465h-2.422v-0.781h2.422v-2.139l0.654-0.84H94.361z"/>
		<path d="M99.761,185.301v1.641h-0.967v-1.641H99.761z M99.761,189.959v8.984h-0.967v-8.984H99.761z"/>
		<path d="M106.578,189.783c1.302,0,2.388,0.446,3.257,1.338s1.304,2.005,1.304,3.34c0,1.328-0.435,2.437-1.304,3.325
			s-1.955,1.333-3.257,1.333s-2.391-0.444-3.267-1.333s-1.313-1.997-1.313-3.325c0-1.335,0.438-2.448,1.313-3.34
			S105.275,189.783,106.578,189.783z M106.578,198.182c1.009,0,1.852-0.354,2.529-1.06s1.016-1.594,1.016-2.661
			c0-1.062-0.34-1.95-1.021-2.666s-1.522-1.074-2.524-1.074c-1.016,0-1.864,0.354-2.544,1.064s-1.021,1.602-1.021,2.676
			c0,1.067,0.34,1.955,1.021,2.661S105.562,198.182,106.578,198.182z"/>
		<path d="M114.195,189.959v1.562h0.039c0.749-1.159,1.735-1.738,2.959-1.738c1.016,0,1.826,0.325,2.432,0.977
			s0.908,1.553,0.908,2.705v5.479h-0.957v-5.117c0-2.07-0.814-3.105-2.441-3.105c-1.191,0-2.171,0.642-2.939,1.924v6.299h-0.957
			v-8.984H114.195z"/>
	</g>
	
		<rect x="9.797" y="288.709" opacity="0.5412" fill-rule="evenodd" clip-rule="evenodd" fill="#E0E0E0" width="75.196" height="31.505"/>
	<g>
		<path d="M24.996,299.351v1.162c-1.185-0.696-2.204-1.045-3.057-1.045c-0.82,0-1.505,0.249-2.056,0.747s-0.825,1.115-0.825,1.851
			c0,0.527,0.163,1.003,0.488,1.426s1.006,0.83,2.041,1.221s1.791,0.716,2.266,0.977s0.879,0.638,1.211,1.133
			s0.498,1.136,0.498,1.924c0,1.048-0.384,1.934-1.152,2.656s-1.706,1.084-2.812,1.084c-1.133,0-2.298-0.397-3.496-1.191v-1.24
			c1.322,0.97,2.467,1.455,3.438,1.455c0.807,0,1.489-0.262,2.046-0.786s0.835-1.167,0.835-1.929c0-0.58-0.172-1.103-0.518-1.567
			c-0.345-0.466-1.044-0.901-2.099-1.306c-1.055-0.405-1.808-0.731-2.261-0.979s-0.837-0.6-1.153-1.059
			c-0.316-0.459-0.474-1.049-0.474-1.771c0-1.002,0.384-1.856,1.152-2.562c0.768-0.705,1.693-1.059,2.773-1.059
			C22.902,298.491,23.954,298.777,24.996,299.351z"/>
		<path d="M29.38,300.347v2.979h2.52v0.781h-2.52v5.342c0,0.859,0.07,1.424,0.21,1.694s0.516,0.405,1.128,0.405
			c0.469,0,1.016-0.146,1.641-0.439v0.918c-0.631,0.306-1.25,0.459-1.855,0.459c-0.592,0-1.087-0.169-1.484-0.508
			s-0.596-0.808-0.596-1.406v-6.465h-2.422v-0.781h2.422v-2.139l0.654-0.84H29.38z"/>
		<path d="M37.837,303.149c1.302,0,2.388,0.446,3.257,1.338s1.304,2.005,1.304,3.34c0,1.328-0.435,2.437-1.304,3.325
			s-1.955,1.333-3.257,1.333s-2.391-0.444-3.267-1.333s-1.313-1.997-1.313-3.325c0-1.335,0.438-2.448,1.313-3.34
			S36.535,303.149,37.837,303.149z M37.837,311.548c1.009,0,1.852-0.354,2.529-1.06s1.016-1.594,1.016-2.661
			c0-1.062-0.34-1.95-1.021-2.666s-1.522-1.074-2.524-1.074c-1.016,0-1.864,0.354-2.544,1.064s-1.021,1.602-1.021,2.676
			c0,1.067,0.34,1.955,1.021,2.661S36.822,311.548,37.837,311.548z"/>
		<path d="M50.718,304.214l-0.557,0.898c-0.749-0.684-1.351-1.025-1.807-1.025c-0.898,0-1.859,0.859-2.881,2.578v5.645h-0.957
			v-8.984h0.957v2.363h0.039c1.074-1.692,2.123-2.539,3.145-2.539C49.244,303.149,49.931,303.504,50.718,304.214z"/>
		<path d="M58.815,310.747v0.801c-0.827,0.625-1.432,0.938-1.816,0.938c-0.221,0-0.375-0.073-0.459-0.22s-0.146-0.444-0.186-0.894
			c-0.944,0.742-1.881,1.113-2.812,1.113c-0.677,0-1.25-0.222-1.719-0.664s-0.703-0.979-0.703-1.611c0-0.977,0.453-1.746,1.357-2.31
			s2.197-0.887,3.877-0.972v-1.143c0-1.224-0.664-1.836-1.992-1.836c-0.846,0-1.761,0.381-2.744,1.143v-0.986
			c1.016-0.638,1.982-0.957,2.9-0.957c0.814,0,1.484,0.2,2.012,0.601s0.791,0.981,0.791,1.743v5.596
			c0,0.306,0.072,0.459,0.215,0.459C57.718,311.548,58.145,311.281,58.815,310.747z M56.354,310.532v-2.803
			c-1.23-0.046-2.251,0.171-3.062,0.649s-1.216,1.089-1.216,1.831c0,0.417,0.169,0.769,0.508,1.055s0.762,0.43,1.27,0.43
			C54.675,311.694,55.508,311.307,56.354,310.532z"/>
		<path d="M67.272,303.325v0.781h-2.041c0.827,0.755,1.24,1.55,1.24,2.383c0,0.749-0.161,1.341-0.483,1.777
			s-0.707,0.754-1.152,0.952s-1.04,0.394-1.782,0.586s-1.208,0.373-1.396,0.542s-0.283,0.364-0.283,0.586
			c0,0.261,0.122,0.469,0.366,0.625s1.002,0.271,2.275,0.342s2.13,0.315,2.573,0.732s0.664,0.97,0.664,1.66
			c0,0.813-0.355,1.453-1.064,1.919s-1.696,0.698-2.959,0.698c-1.256,0-2.227-0.22-2.91-0.659s-1.025-1.021-1.025-1.743
			c0-1.172,0.873-1.897,2.617-2.178v-0.039c-0.97-0.228-1.455-0.654-1.455-1.279c0-0.632,0.599-1.12,1.797-1.465v-0.039
			c-0.788-0.234-1.385-0.623-1.792-1.167s-0.61-1.147-0.61-1.812c0-0.944,0.329-1.714,0.986-2.31s1.602-0.894,2.832-0.894H67.272z
			 M63.288,316.108c0.931,0,1.671-0.159,2.222-0.479s0.825-0.739,0.825-1.26c0-1.055-0.954-1.582-2.861-1.582
			c-2.174,0-3.262,0.554-3.262,1.66S61.237,316.108,63.288,316.108z M63.151,308.911c0.658,0,1.222-0.236,1.694-0.708
			s0.708-1.037,0.708-1.694s-0.236-1.219-0.708-1.685s-1.043-0.698-1.714-0.698c-0.664,0-1.224,0.228-1.68,0.684
			s-0.684,1.009-0.684,1.66c0,0.677,0.231,1.253,0.693,1.729S62.487,308.911,63.151,308.911z"/>
		<path d="M76.364,307.485h-7.08c-0.02,0.156-0.029,0.312-0.029,0.469c0,1.003,0.358,1.853,1.074,2.549s1.562,1.045,2.539,1.045
			c1.139,0,2.252-0.446,3.34-1.338v1.084c-1.029,0.794-2.181,1.191-3.457,1.191c-1.295,0-2.367-0.449-3.213-1.348
			s-1.27-2.041-1.27-3.428c0-1.315,0.391-2.404,1.172-3.267s1.764-1.294,2.949-1.294c1.113,0,2.054,0.389,2.822,1.167
			S76.364,306.15,76.364,307.485z M69.411,306.714h5.82c-0.338-1.751-1.286-2.627-2.842-2.627c-0.736,0-1.372,0.229-1.909,0.688
			S69.587,305.881,69.411,306.714z"/>
	</g>
</g>
</svg>
